<svg version="1.1" viewBox="0.0 0.0 709.2677165354331 720.3989501312336" fill="none" stroke="none" stroke-linecap="square" stroke-miterlimit="10" xmlns:xlink="http://www.w3.org/1999/xlink" xmlns="http://www.w3.org/2000/svg"><clipPath id="p.0"><path d="m0 0l709.2677 0l0 720.3989l-709.2677 0l0 -720.3989z" clip-rule="nonzero"/></clipPath><g clip-path="url(#p.0)"><path fill="#000000" fill-opacity="0.0" d="m0 0l709.2677 0l0 720.3989l-709.2677 0z" fill-rule="evenodd"/><path fill="#000000" d="m389.70053 326.98007c7.100769 10.560638 10.285736 40.062134 13.927216 57.640594c3.6414795 17.57846 11.380951 37.950653 7.9216614 47.83011c-3.4592896 9.879456 -21.485596 10.969696 -28.67746 11.446625c-7.191864 0.4769287 -10.286072 2.3162842 -14.473755 -8.584961c-4.1876526 -10.901245 -7.5112 -40.606995 -10.652222 -56.82251c-3.1410217 -16.215546 -8.740051 -30.931793 -8.193878 -40.470642c0.5462036 -9.538879 4.779602 -14.922668 11.471008 -16.762543c6.6913757 -1.8398438 21.57666 -4.837311 28.67743 5.7233276z" fill-rule="evenodd"/><path stroke="#000000" stroke-width="14.666666666666666" stroke-linejoin="round" stroke-linecap="butt" d="m389.70053 326.98007c7.100769 10.560638 10.285736 40.062134 13.927216 57.640594c3.6414795 17.57846 11.380951 37.950653 7.9216614 47.83011c-3.4592896 9.879456 -21.485596 10.969696 -28.67746 11.446625c-7.191864 0.4769287 -10.286072 2.3162842 -14.473755 -8.584961c-4.1876526 -10.901245 -7.5112 -40.606995 -10.652222 -56.82251c-3.1410217 -16.215546 -8.740051 -30.931793 -8.193878 -40.470642c0.5462036 -9.538879 4.779602 -14.922668 11.471008 -16.762543c6.6913757 -1.8398438 21.57666 -4.837311 28.67743 5.7233276z" fill-rule="evenodd"/><path fill="#000000" d="m396.18262 319.27533c7.6404114 2.0953674 27.597565 11.709534 40.556427 22.963257c12.958893 11.253723 32.496063 37.132538 37.19687 44.55905c4.700775 7.4265137 -9.332916 -4.019684 -8.992126 0c0.34075928 4.019684 6.9487915 17.03238 11.036743 24.118103c4.087921 7.0857544 15.262451 17.169739 13.490814 18.396332c-1.7716675 1.226593 -20.646118 -11.309265 -24.120758 -11.036743c-3.4746094 0.27252197 5.520996 14.034576 3.2729797 12.6719055c-2.2480469 -1.3626404 -10.032806 -8.230957 -16.76117 -20.847748c-6.7283325 -12.616791 -13.447937 -41.44751 -23.608917 -54.853027c-10.16098 -13.405518 -32.01181 -19.58487 -37.356964 -25.580048c-5.3451233 -5.995178 -2.354309 -12.48645 5.2861023 -10.391083z" fill-rule="evenodd"/><path stroke="#000000" stroke-width="14.666666666666666" stroke-linejoin="round" stroke-linecap="butt" d="m396.18262 319.27533c7.6404114 2.0953674 27.597565 11.709534 40.556427 22.963257c12.958893 11.253723 32.496063 37.132538 37.19687 44.55905c4.700775 7.4265137 -9.332916 -4.019684 -8.992126 0c0.34075928 4.019684 6.9487915 17.03238 11.036743 24.118103c4.087921 7.0857544 15.262451 17.169739 13.490814 18.396332c-1.7716675 1.226593 -20.646118 -11.309265 -24.120758 -11.036743c-3.4746094 0.27252197 5.520996 14.034576 3.2729797 12.6719055c-2.2480469 -1.3626404 -10.032806 -8.230957 -16.76117 -20.847748c-6.7283325 -12.616791 -13.447937 -41.44751 -23.608917 -54.853027c-10.16098 -13.405518 -32.01181 -19.58487 -37.356964 -25.580048c-5.3451233 -5.995178 -2.354309 -12.48645 5.2861023 -10.391083z" fill-rule="evenodd"/><path fill="#000000" d="m361.89285 435.18085c-11.24234 3.4746094 -21.142609 6.6819763 -30.661407 12.265076c-9.518799 5.58313 -21.61679 14.853912 -26.451447 21.233612c-4.8346252 6.3796997 -3.725708 9.392822 -2.556427 17.044617c1.169281 7.6517944 6.917328 27.069977 9.572174 28.86612c2.6548767 1.7961426 0.2559204 -20.388428 6.356964 -18.089233c6.1010437 2.2992249 28.06955 30.794434 30.249329 31.884521c2.1798096 1.0900879 -15.739716 -18.598846 -17.170593 -25.343842c-1.4308777 -6.7449646 2.5892334 -17.714783 8.585297 -15.125977c5.996063 2.5888062 26.16449 30.181976 27.391083 30.658783c1.226593 0.47680664 -18.066925 -17.493439 -20.031494 -27.797882c-1.9645691 -10.304474 2.5476685 -33.197296 8.24408 -34.02887c5.6964417 -0.831604 21.814087 26.62378 25.934387 29.039368c4.1203003 2.4155579 -6.1111145 -14.251526 -1.2125854 -14.545929c4.8984985 -0.29440308 20.673676 4.020996 30.603668 12.7795105c9.930023 8.758545 16.629059 25.407257 28.97638 39.771637c12.347321 14.364441 39.819763 42.719177 45.107605 46.414734c5.287842 3.6955566 -16.873993 -21.836426 -13.380554 -24.241455c3.4934387 -2.4050903 36.453186 14.784302 34.341187 9.810974c-2.111969 -4.9732666 -42.770325 -33.06732 -47.013123 -39.65088c-4.2427673 -6.583557 22.57788 3.3521118 21.556427 0.14959717c-1.0214233 -3.2025146 -22.729645 -12.66275 -27.685028 -19.364838c-4.9553833 -6.7020874 -4.414276 -19.112854 -2.0472412 -20.847778c2.3670044 -1.7348938 16.113281 11.25592 16.249329 10.438324c0.13604736 -0.8175659 -8.773407 -6.3818665 -15.433075 -15.343811c-6.6596375 -8.961945 -15.736206 -31.001312 -24.524933 -38.427826c-8.788696 -7.4265137 -17.373993 -6.5398254 -28.207336 -6.131256c-10.8333435 0.40859985 -25.550293 5.1080627 -36.792664 8.582703z" fill-rule="evenodd"/><path stroke="#000000" stroke-width="14.666666666666666" stroke-linejoin="round" stroke-linecap="butt" d="m361.89285 435.18085c-11.24234 3.4746094 -21.142609 6.6819763 -30.661407 12.265076c-9.518799 5.58313 -21.61679 14.853912 -26.451447 21.233612c-4.8346252 6.3796997 -3.725708 9.392822 -2.556427 17.044617c1.169281 7.6517944 6.917328 27.069977 9.572174 28.86612c2.6548767 1.7961426 0.2559204 -20.388428 6.356964 -18.089233c6.1010437 2.2992249 28.06955 30.794434 30.249329 31.884521c2.1798096 1.0900879 -15.739716 -18.598846 -17.170593 -25.343842c-1.4308777 -6.7449646 2.5892334 -17.714783 8.585297 -15.125977c5.996063 2.5888062 26.16449 30.181976 27.391083 30.658783c1.226593 0.47680664 -18.066925 -17.493439 -20.031494 -27.797882c-1.9645691 -10.304474 2.5476685 -33.197296 8.24408 -34.02887c5.6964417 -0.831604 21.814087 26.62378 25.934387 29.039368c4.1203003 2.4155579 -6.1111145 -14.251526 -1.2125854 -14.545929c4.8984985 -0.29440308 20.673676 4.020996 30.603668 12.7795105c9.930023 8.758545 16.629059 25.407257 28.97638 39.771637c12.347321 14.364441 39.819763 42.719177 45.107605 46.414734c5.287842 3.6955566 -16.873993 -21.836426 -13.380554 -24.241455c3.4934387 -2.4050903 36.453186 14.784302 34.341187 9.810974c-2.111969 -4.9732666 -42.770325 -33.06732 -47.013123 -39.65088c-4.2427673 -6.583557 22.57788 3.3521118 21.556427 0.14959717c-1.0214233 -3.2025146 -22.729645 -12.66275 -27.685028 -19.364838c-4.9553833 -6.7020874 -4.414276 -19.112854 -2.0472412 -20.847778c2.3670044 -1.7348938 16.113281 11.25592 16.249329 10.438324c0.13604736 -0.8175659 -8.773407 -6.3818665 -15.433075 -15.343811c-6.6596375 -8.961945 -15.736206 -31.001312 -24.524933 -38.427826c-8.788696 -7.4265137 -17.373993 -6.5398254 -28.207336 -6.131256c-10.8333435 0.40859985 -25.550293 5.1080627 -36.792664 8.582703z" fill-rule="evenodd"/><path fill="#000000" d="m361.6176 542.60297c-1.1132202 0.16290283 -1.3847351 6.7871094 0 9.284851c1.3847351 2.4977417 7.1951904 5.864441 8.308411 5.701477c1.1131897 -0.16296387 -0.2444458 -4.1815186 -1.6291809 -6.679199c-1.3847351 -2.4977417 -5.56604 -8.470093 -6.6792297 -8.307129z" fill-rule="evenodd"/><path stroke="#000000" stroke-width="14.666666666666666" stroke-linejoin="round" stroke-linecap="butt" d="m361.6176 542.60297c-1.1132202 0.16290283 -1.3847351 6.7871094 0 9.284851c1.3847351 2.4977417 7.1951904 5.864441 8.308411 5.701477c1.1131897 -0.16296387 -0.2444458 -4.1815186 -1.6291809 -6.679199c-1.3847351 -2.4977417 -5.56604 -8.470093 -6.6792297 -8.307129z" fill-rule="evenodd"/><path fill="#000000" d="m313.813 535.8946c0.6732178 1.234436 9.931763 13.299194 11.1102295 14.477661c1.1784973 1.1784668 -2.1876526 -4.9938354 -4.0393677 -7.4067993c-1.8516846 -2.4129639 -7.7440796 -8.305359 -7.070862 -7.070862z" fill-rule="evenodd"/><path stroke="#000000" stroke-width="14.666666666666666" stroke-linejoin="round" stroke-linecap="butt" d="m313.813 535.8946c0.6732178 1.234436 9.931763 13.299194 11.1102295 14.477661c1.1784973 1.1784668 -2.1876526 -4.9938354 -4.0393677 -7.4067993c-1.8516846 -2.4129639 -7.7440796 -8.305359 -7.070862 -7.070862z" fill-rule="evenodd"/><path fill="#000000" d="m482.85403 441.95593c-1.2344666 -0.61724854 2.1316528 6.3971863 4.0393677 8.417328c1.9076843 2.020111 8.080048 5.1062927 7.40683 3.7033997c-0.6732483 -1.4028931 -10.211731 -11.5035095 -11.4461975 -12.120728z" fill-rule="evenodd"/><path stroke="#000000" stroke-width="14.666666666666666" stroke-linejoin="round" stroke-linecap="butt" d="m482.85403 441.95593c-1.2344666 -0.61724854 2.1316528 6.3971863 4.0393677 8.417328c1.9076843 2.020111 8.080048 5.1062927 7.40683 3.7033997c-0.6732483 -1.4028931 -10.211731 -11.5035095 -11.4461975 -12.120728z" fill-rule="evenodd"/><path fill="#000000" d="m509.77594 433.53403c0.78704834 -0.88571167 7.9350586 1.6131287 9.956116 4.4973755c2.0210571 2.8842163 2.9571533 11.922363 2.170105 12.808044c-0.78704834 0.88571167 -4.871399 -4.6095886 -6.892456 -7.4938354c-2.0210571 -2.8842468 -6.020813 -8.925903 -5.2337646 -9.811584z" fill-rule="evenodd"/><path stroke="#000000" stroke-width="14.666666666666666" stroke-linejoin="round" stroke-linecap="butt" d="m509.77594 433.53403c0.78704834 -0.88571167 7.9350586 1.6131287 9.956116 4.4973755c2.0210571 2.8842163 2.9571533 11.922363 2.170105 12.808044c-0.78704834 0.88571167 -4.871399 -4.6095886 -6.892456 -7.4938354c-2.0210571 -2.8842468 -6.020813 -8.925903 -5.2337646 -9.811584z" fill-rule="evenodd"/><path fill="#000000" d="m411.7915 565.69403c0.95407104 1.6273193 16.107178 15.936157 18.183716 17.170593c2.0765686 1.2344971 -2.6937866 -6.9019775 -5.7243958 -9.763733c-3.0306396 -2.8618164 -13.413391 -9.034119 -12.45932 -7.4068604z" fill-rule="evenodd"/><path stroke="#000000" stroke-width="14.666666666666666" stroke-linejoin="round" stroke-linecap="butt" d="m411.7915 565.69403c0.95407104 1.6273193 16.107178 15.936157 18.183716 17.170593c2.0765686 1.2344971 -2.6937866 -6.9019775 -5.7243958 -9.763733c-3.0306396 -2.8618164 -13.413391 -9.034119 -12.45932 -7.4068604z" fill-rule="evenodd"/><path fill="#000000" d="m520.99457 586.4508c0.2779541 1.2965698 10.001404 15.881714 11.668152 17.502197c1.666687 1.6204224 0.27685547 -4.86261 -1.6678467 -7.779663c-1.9446411 -2.9169922 -10.278259 -11.019165 -10.000305 -9.722534z" fill-rule="evenodd"/><path stroke="#000000" stroke-width="14.666666666666666" stroke-linejoin="round" stroke-linecap="butt" d="m520.99457 586.4508c0.2779541 1.2965698 10.001404 15.881714 11.668152 17.502197c1.666687 1.6204224 0.27685547 -4.86261 -1.6678467 -7.779663c-1.9446411 -2.9169922 -10.278259 -11.019165 -10.000305 -9.722534z" fill-rule="evenodd"/><path fill="#000000" d="m522.7499 540.43274c1.6854858 2.2476196 11.142639 5.15094 11.797913 6.1810913c0.65527344 1.0302124 -6.180664 2.2476196 -7.86615 0c-1.6854858 -2.2475586 -1.5914307 -12.455383 -2.246704 -13.485535c-0.65527344 -1.0302124 -3.3705444 5.0568237 -1.6850586 7.3044434z" fill-rule="evenodd"/><path stroke="#000000" stroke-width="14.666666666666666" stroke-linejoin="round" stroke-linecap="butt" d="m522.7499 540.43274c1.6854858 2.2476196 11.142639 5.15094 11.797913 6.1810913c0.65527344 1.0302124 -6.180664 2.2476196 -7.86615 0c-1.6854858 -2.2475586 -1.5914307 -12.455383 -2.246704 -13.485535c-0.65527344 -1.0302124 -3.3705444 5.0568237 -1.6850586 7.3044434z" fill-rule="evenodd"/><path fill="#ffffff" d="m560.0761 546.14795l5.1622314 -16.026184l-9.666199 -17.989563l17.989624 9.666138l16.026123 -5.1622314l-5.1621704 16.026184l9.666138 17.989563l-17.989563 -9.666138z" fill-rule="evenodd"/><path stroke="#000000" stroke-width="12.0" stroke-linejoin="round" stroke-linecap="butt" d="m560.0761 546.14795l5.1622314 -16.026184l-9.666199 -17.989563l17.989624 9.666138l16.026123 -5.1622314l-5.1621704 16.026184l9.666138 17.989563l-17.989563 -9.666138z" fill-rule="evenodd"/><path fill="#ffffff" d="m31.341208 151.46982l67.03629 -26.333786l26.333786 -67.03629l26.33377 67.03629l67.0363 26.333786l-67.0363 26.333786l-26.33377 67.036285l-26.333786 -67.036285z" fill-rule="evenodd"/><path stroke="#000000" stroke-width="16.0" stroke-linejoin="round" stroke-linecap="butt" d="m31.341208 151.46982l67.03629 -26.333786l26.333786 -67.03629l26.33377 67.03629l67.0363 26.333786l-67.0363 26.333786l-26.33377 67.036285l-26.333786 -67.036285z" fill-rule="evenodd"/><path fill="#ffffff" d="m398.6063 627.9224l4.11792 -12.796631l-7.7242126 -14.368774l14.368713 7.724243l12.796631 -4.11792l-4.1178894 12.796631l7.7242126 14.368713l-14.368744 -7.724182z" fill-rule="evenodd"/><path stroke="#000000" stroke-width="12.0" stroke-linejoin="round" stroke-linecap="butt" d="m398.6063 627.9224l4.11792 -12.796631l-7.7242126 -14.368774l14.368713 7.724243l12.796631 -4.11792l-4.1178894 12.796631l7.7242126 14.368713l-14.368744 -7.724182z" fill-rule="evenodd"/><path fill="#ffffff" d="m519.2624 662.77716l6.6519165 -20.687195l-12.494446 -23.23407l23.23407 12.494507l20.687195 -6.6519775l-6.6519775 20.687195l12.494446 23.23407l-23.23407 -12.494507z" fill-rule="evenodd"/><path stroke="#000000" stroke-width="12.0" stroke-linejoin="round" stroke-linecap="butt" d="m519.2624 662.77716l6.6519165 -20.687195l-12.494446 -23.23407l23.23407 12.494507l20.687195 -6.6519775l-6.6519775 20.687195l12.494446 23.23407l-23.23407 -12.494507z" fill-rule="evenodd"/><path fill="#ffffff" d="m610.37286 676.29364l10.7630005 -33.468018l-20.211853 -37.587097l37.587097 20.211853l33.468018 -10.7630005l-10.7630005 33.468018l20.211853 37.587097l-37.587036 -20.211853z" fill-rule="evenodd"/><path stroke="#000000" stroke-width="12.0" stroke-linejoin="round" stroke-linecap="butt" d="m610.37286 676.29364l10.7630005 -33.468018l-20.211853 -37.587097l37.587097 20.211853l33.468018 -10.7630005l-10.7630005 33.468018l20.211853 37.587097l-37.587036 -20.211853z" fill-rule="evenodd"/><path fill="#ffffff" d="m319.23358 585.3584l2.105194 -6.555603l-3.96344 -7.3656616l7.3656616 3.96344l6.555603 -2.1051636l-2.105194 6.555603l3.96344 7.3656616l-7.3656616 -3.96344z" fill-rule="evenodd"/><path stroke="#000000" stroke-width="12.0" stroke-linejoin="round" stroke-linecap="butt" d="m319.23358 585.3584l2.105194 -6.555603l-3.96344 -7.3656616l7.3656616 3.96344l6.555603 -2.1051636l-2.105194 6.555603l3.96344 7.3656616l-7.3656616 -3.96344z" fill-rule="evenodd"/><path fill="#ffffff" d="m389.10236 534.6917l2.105194 -6.555603l-3.9634705 -7.3656616l7.365692 3.963501l6.5555725 -2.1052246l-2.105194 6.555603l3.9634705 7.3656616l-7.3656616 -3.96344z" fill-rule="evenodd"/><path stroke="#000000" stroke-width="12.0" stroke-linejoin="round" stroke-linecap="butt" d="m389.10236 534.6917l2.105194 -6.555603l-3.9634705 -7.3656616l7.365692 3.963501l6.5555725 -2.1052246l-2.105194 6.555603l3.9634705 7.3656616l-7.3656616 -3.96344z" fill-rule="evenodd"/><path fill="#ffffff" d="m507.7953 489.48438l2.1051636 -6.555603l-3.96344 -7.3656616l7.3656616 3.9634705l6.555603 -2.105194l-2.1052246 6.555603l3.963501 7.3656616l-7.3656616 -3.9634705z" fill-rule="evenodd"/><path stroke="#000000" stroke-width="12.0" stroke-linejoin="round" stroke-linecap="butt" d="m507.7953 489.48438l2.1051636 -6.555603l-3.96344 -7.3656616l7.3656616 3.9634705l6.555603 -2.105194l-2.1052246 6.555603l3.963501 7.3656616l-7.3656616 -3.9634705z" fill-rule="evenodd"/><path fill="#000000" d="m330.05005 266.03687l0 0c0 -16.055405 13.015472 -29.070862 29.070862 -29.070862l0 0c7.710083 0 15.10437 3.0628052 20.556213 8.514648c5.4518433 5.4518433 8.514648 12.84613 8.514648 20.556213l0 0c0 16.05539 -13.015472 29.070862 -29.070862 29.070862l0 0c-16.05539 0 -29.070862 -13.015472 -29.070862 -29.070862z" fill-rule="evenodd"/><path stroke="#000000" stroke-width="25.53805774278215" stroke-linejoin="round" stroke-linecap="butt" d="m330.05005 266.03687l0 0c0 -16.055405 13.015472 -29.070862 29.070862 -29.070862l0 0c7.710083 0 15.10437 3.0628052 20.556213 8.514648c5.4518433 5.4518433 8.514648 12.84613 8.514648 20.556213l0 0c0 16.05539 -13.015472 29.070862 -29.070862 29.070862l0 0c-16.05539 0 -29.070862 -13.015472 -29.070862 -29.070862z" fill-rule="evenodd"/><path fill="#000000" d="m345.6312 326.2867c0.22833252 0.22833252 -66.21918 -14.495209 -85.61679 -34.246735c-19.397644 -19.751526 -21.456268 -65.59317 -30.769043 -84.26247c-9.312775 -18.669281 -23.419067 -27.239273 -25.107605 -27.75328c-1.6885376 -0.5139923 14.315826 19.162735 14.976379 24.669296c0.6605377 5.5065613 -12.334656 7.1955414 -11.013123 8.370071c1.321518 1.1745453 10.518372 -14.257217 18.942245 -1.3228302c8.423889 12.934387 11.836395 59.83815 31.601059 78.92912c19.764648 19.091003 86.758514 35.38846 86.98688 35.61682z" fill-rule="evenodd"/><path stroke="#000000" stroke-width="24.0" stroke-linejoin="round" stroke-linecap="butt" d="m345.6312 326.2867c0.22833252 0.22833252 -66.21918 -14.495209 -85.61679 -34.246735c-19.397644 -19.751526 -21.456268 -65.59317 -30.769043 -84.26247c-9.312775 -18.669281 -23.419067 -27.239273 -25.107605 -27.75328c-1.6885376 -0.5139923 14.315826 19.162735 14.976379 24.669296c0.6605377 5.5065613 -12.334656 7.1955414 -11.013123 8.370071c1.321518 1.1745453 10.518372 -14.257217 18.942245 -1.3228302c8.423889 12.934387 11.836395 59.83815 31.601059 78.92912c19.764648 19.091003 86.758514 35.38846 86.98688 35.61682z" fill-rule="evenodd"/></g></svg>