<svg version="1.1" viewBox="0.0 0.0 700.0 721.8031496062993" fill="none" stroke="none" stroke-linecap="square" stroke-miterlimit="10" xmlns:xlink="http://www.w3.org/1999/xlink" xmlns="http://www.w3.org/2000/svg"><clipPath id="p.0"><path d="m0 0l700.0 0l0 721.80316l-700.0 0l0 -721.80316z" clip-rule="nonzero"/></clipPath><g clip-path="url(#p.0)"><path fill="#000000" fill-opacity="0.0" d="m0 0l700.0 0l0 721.80316l-700.0 0z" fill-rule="evenodd"/><path fill="#000000" fill-opacity="0.0" d="m-56.805775 102.30953l-358.0553 0l0 572.03955l358.0553 0z" fill-rule="evenodd"/><path fill="#000000" fill-opacity="0.0" d="m-414.86108 102.30953l-81.72421 -81.72423l0 572.03955l81.72421 81.72418z" fill-rule="evenodd"/><path fill="#000000" fill-opacity="0.0" d="m-56.805775 102.30953l-81.72423 -81.72423l-358.0553 0l81.72421 81.72423z" fill-rule="evenodd"/><path fill="#000000" fill-opacity="0.0" d="m-56.805775 102.30953l-81.72423 -81.72423l-358.0553 0l0 572.03955l81.72421 81.72418l358.0553 0zm0 0l-358.0553 0l-81.72421 -81.72423m81.72421 81.72423l0 572.03955" fill-rule="evenodd"/><path fill="#000000" fill-opacity="0.2" d="m-414.86108 102.30953l-81.72421 -81.72423l0 572.03955l81.72421 81.72418z" fill-rule="evenodd"/><path fill="#ffffff" fill-opacity="0.2" d="m-56.805775 102.30953l-81.72423 -81.72423l-358.0553 0l81.72421 81.72423z" fill-rule="evenodd"/><path fill="#000000" d="m395.5957 191.70569l0 0c0 -17.942734 14.545471 -32.48819 32.48819 -32.48819l0 0c8.616425 0 16.879913 3.4228516 22.972626 9.515564c6.0927124 6.0927277 9.515564 14.356216 9.515564 22.972626l0 0c0 17.942734 -14.545441 32.48819 -32.48819 32.48819l0 0c-17.942719 0 -32.48819 -14.545456 -32.48819 -32.48819z" fill-rule="evenodd"/><path stroke="#000000" stroke-width="28.53543307086614" stroke-linejoin="round" stroke-linecap="butt" d="m395.5957 191.70569l0 0c0 -17.942734 14.545471 -32.48819 32.48819 -32.48819l0 0c8.616425 0 16.879913 3.4228516 22.972626 9.515564c6.0927124 6.0927277 9.515564 14.356216 9.515564 22.972626l0 0c0 17.942734 -14.545441 32.48819 -32.48819 32.48819l0 0c-17.942719 0 -32.48819 -14.545456 -32.48819 -32.48819z" fill-rule="evenodd"/><path fill="#000000" d="m407.0105 207.65544c0 -0.19073486 49.37314 36.97725 62.335968 69.76378c12.962799 32.78653 13.916443 110.370514 15.4409485 126.95538c1.5244751 16.58487 -2.9680786 -25.056 -6.293976 -27.446198c-3.3258972 -2.3901978 -13.56604 14.058624 -13.661407 13.10498c-0.09536743 -0.9536133 12.3368225 -0.24847412 13.089233 -18.826782c0.7524109 -18.578278 3.2436523 -65.38449 -8.574799 -92.643036c-11.818481 -27.25853 -62.335968 -70.71741 -62.335968 -70.90813z" fill-rule="evenodd"/><path stroke="#000000" stroke-width="28.53543307086614" stroke-linejoin="round" stroke-linecap="butt" d="m407.0105 207.65544c0 -0.19073486 49.37314 36.97725 62.335968 69.76378c12.962799 32.78653 13.916443 110.370514 15.4409485 126.95538c1.5244751 16.58487 -2.9680786 -25.056 -6.293976 -27.446198c-3.3258972 -2.3901978 -13.56604 14.058624 -13.661407 13.10498c-0.09536743 -0.9536133 12.3368225 -0.24847412 13.089233 -18.826782c0.7524109 -18.578278 3.2436523 -65.38449 -8.574799 -92.643036c-11.818481 -27.25853 -62.335968 -70.71741 -62.335968 -70.90813z" fill-rule="evenodd"/><path fill="#000000" d="m341.38223 176.07439c-0.3451233 0.4597473 -56.947052 81.56169 -85.51967 88.96324c-28.572617 7.401581 -71.28084 -28.666656 -85.916016 -44.553802c-14.635162 -15.887131 -2.345581 -48.103226 -1.8950043 -50.769028c0.45056152 -2.6657867 0.5144348 30.71611 4.598419 34.774277c4.0839844 4.058182 19.418198 -12.625977 19.905518 -10.425186c0.4873047 2.2007904 -27.87796 12.260712 -16.981628 23.629913c10.896317 11.369202 54.72484 51.521866 82.35959 44.58531c27.634735 -6.936569 83.793945 -86.66449 83.44879 -86.20473z" fill-rule="evenodd"/><path stroke="#000000" stroke-width="28.53543307086614" stroke-linejoin="round" stroke-linecap="butt" d="m341.38223 176.07439c-0.3451233 0.4597473 -56.947052 81.56169 -85.51967 88.96324c-28.572617 7.401581 -71.28084 -28.666656 -85.916016 -44.553802c-14.635162 -15.887131 -2.345581 -48.103226 -1.8950043 -50.769028c0.45056152 -2.6657867 0.5144348 30.71611 4.598419 34.774277c4.0839844 4.058182 19.418198 -12.625977 19.905518 -10.425186c0.4873047 2.2007904 -27.87796 12.260712 -16.981628 23.629913c10.896317 11.369202 54.72484 51.521866 82.35959 44.58531c27.634735 -6.936569 83.793945 -86.66449 83.44879 -86.20473z" fill-rule="evenodd"/><path fill="#000000" d="m380.8021 177.04782c-13.028442 -3.1364899 -30.804901 -1.7252808 -48.96588 18.619415c-18.16098 20.344711 -49.080475 71.3797 -60.0 103.44882c-10.919495 32.069122 -19.31015 61.26465 -5.5170593 88.96588c13.793091 27.701233 87.373566 40.33551 88.275604 77.241455c0.90200806 36.905975 -74.91516 112.69028 -82.863525 144.19424c-7.948395 31.503906 35.058167 44.599304 35.173218 44.829407c0.11505127 0.23010254 -43.35083 -11.829834 -34.48294 -43.448853c8.867889 -31.618958 83.650055 -107.97943 87.69031 -146.26508c4.040222 -38.285645 -70.69031 -82.87402 -63.448822 -83.44882c7.241455 -0.5747986 84.73096 40.22003 106.897644 80.0c22.166656 39.77997 26.464539 125.5665 26.102356 158.67978c-0.36221313 33.113342 -28.637817 40.124695 -28.275604 40.0c0.36221313 -0.12463379 28.24759 -6.025818 30.448822 -40.747986c2.201233 -34.72223 1.609375 -127.81543 -17.241455 -167.58533c-18.85083 -39.769897 -82.53018 -43.677612 -95.863525 -71.03412c-13.3333435 -27.356537 8.762909 -70.67236 15.863525 -93.10498c7.100586 -22.432648 14.171478 -29.339905 26.740143 -41.49083c12.568695 -12.150909 45.4274 -19.939194 48.671906 -31.414688c3.2445374 -11.47551 -16.17627 -34.30185 -29.204712 -37.438324z" fill-rule="evenodd"/><path stroke="#000000" stroke-width="24.0" stroke-linejoin="round" stroke-linecap="butt" d="m380.8021 177.04782c-13.028442 -3.1364899 -30.804901 -1.7252808 -48.96588 18.619415c-18.16098 20.344711 -49.080475 71.3797 -60.0 103.44882c-10.919495 32.069122 -19.31015 61.26465 -5.5170593 88.96588c13.793091 27.701233 87.373566 40.33551 88.275604 77.241455c0.90200806 36.905975 -74.91516 112.69028 -82.863525 144.19424c-7.948395 31.503906 35.058167 44.599304 35.173218 44.829407c0.11505127 0.23010254 -43.35083 -11.829834 -34.48294 -43.448853c8.867889 -31.618958 83.650055 -107.97943 87.69031 -146.26508c4.040222 -38.285645 -70.69031 -82.87402 -63.448822 -83.44882c7.241455 -0.5747986 84.73096 40.22003 106.897644 80.0c22.166656 39.77997 26.464539 125.5665 26.102356 158.67978c-0.36221313 33.113342 -28.637817 40.124695 -28.275604 40.0c0.36221313 -0.12463379 28.24759 -6.025818 30.448822 -40.747986c2.201233 -34.72223 1.609375 -127.81543 -17.241455 -167.58533c-18.85083 -39.769897 -82.53018 -43.677612 -95.863525 -71.03412c-13.3333435 -27.356537 8.762909 -70.67236 15.863525 -93.10498c7.100586 -22.432648 14.171478 -29.339905 26.740143 -41.49083c12.568695 -12.150909 45.4274 -19.939194 48.671906 -31.414688c3.2445374 -11.47551 -16.17627 -34.30185 -29.204712 -37.438324z" fill-rule="evenodd"/><path fill="#000000" d="m209.37112 695.83185c-0.36732483 -0.16589355 2.203354 -16.790222 1.7628021 -31.812683c-0.44056702 -15.022461 -3.818573 -36.285522 -4.4061737 -58.322083c-0.5876007 -22.03656 0.44000244 -49.982727 0.88056946 -73.8974c0.44055176 -23.914612 1.1752014 -51.198853 1.7628021 -69.590485c0.5876007 -18.391632 -2.4974518 -35.125916 1.7628021 -40.759277c4.2602386 -5.633362 23.504547 2.5405884 23.79863 6.9590454c0.29408264 4.418457 -19.316437 15.022888 -22.034164 19.551697c-2.7177124 4.5288086 6.2422028 4.0312805 5.727844 7.621155c-0.5143585 3.5898743 -7.271469 0.7732849 -8.813995 13.918091c-1.5425262 13.144836 0.4402771 41.146667 -0.44111633 64.950775c-0.8814087 23.804077 -5.5084076 56.11316 -4.84729 77.87378c0.66111755 21.76056 8.006119 38.77185 8.814011 52.68976c0.8078766 13.917908 -3.599411 30.98346 -3.9667206 30.817627z" fill-rule="evenodd"/><path stroke="#000000" stroke-width="16.0" stroke-linejoin="round" stroke-linecap="butt" d="m209.37112 695.83185c-0.36732483 -0.16589355 2.203354 -16.790222 1.7628021 -31.812683c-0.44056702 -15.022461 -3.818573 -36.285522 -4.4061737 -58.322083c-0.5876007 -22.03656 0.44000244 -49.982727 0.88056946 -73.8974c0.44055176 -23.914612 1.1752014 -51.198853 1.7628021 -69.590485c0.5876007 -18.391632 -2.4974518 -35.125916 1.7628021 -40.759277c4.2602386 -5.633362 23.504547 2.5405884 23.79863 6.9590454c0.29408264 4.418457 -19.316437 15.022888 -22.034164 19.551697c-2.7177124 4.5288086 6.2422028 4.0312805 5.727844 7.621155c-0.5143585 3.5898743 -7.271469 0.7732849 -8.813995 13.918091c-1.5425262 13.144836 0.4402771 41.146667 -0.44111633 64.950775c-0.8814087 23.804077 -5.5084076 56.11316 -4.84729 77.87378c0.66111755 21.76056 8.006119 38.77185 8.814011 52.68976c0.8078766 13.917908 -3.599411 30.98346 -3.9667206 30.817627z" fill-rule="evenodd"/><path fill="#000000" d="m169.22815 81.93342c-0.24104309 -0.45975494 -40.701492 -32.53018 -37.570618 -38.622044c3.13089 -6.0918655 56.95764 2.3005257 56.355927 2.0708656c-0.6016998 -0.22966003 -49.36963 -20.115486 -59.966156 -3.4488182c-10.596527 16.666664 -4.8168488 58.85127 -3.6129837 103.44881c1.2038727 44.597565 11.438362 114.136505 10.836205 164.1365c-0.60217285 50.0 -13.245316 90.46106 -14.449188 135.8635c-1.203865 45.402466 6.5032806 108.16055 7.2259674 136.55118c0.72268677 28.390625 -10.355476 21.14917 -2.8898392 33.792664c7.465645 12.643494 33.777534 28.424744 47.683678 42.068237c13.906128 13.643494 36.596344 40.02234 35.753128 39.792664c-0.84321594 -0.2296753 -25.70195 -26.147888 -40.81241 -41.170593c-15.110458 -15.022766 -43.46852 -37.126892 -49.850357 -48.96588c-6.381836 -11.83905 11.559341 0.9203491 11.559341 -22.068237c0 -22.988647 -11.318756 -78.277374 -11.559341 -115.863525c-0.24059296 -37.58618 7.4665527 -74.8259 10.115799 -109.653564c2.6492462 -34.827637 6.8634796 -60.80664 5.7796783 -99.31232c-1.0838165 -38.505707 -12.161972 -95.97464 -12.282494 -131.7218c-0.120529175 -35.747154 3.6120605 -74.94488 11.559334 -82.761154c7.947281 -7.8162727 36.365387 36.32327 36.12433 35.863514z" fill-rule="evenodd"/><path stroke="#000000" stroke-width="16.0" stroke-linejoin="round" stroke-linecap="butt" d="m169.22815 81.93342c-0.24104309 -0.45975494 -40.701492 -32.53018 -37.570618 -38.622044c3.13089 -6.0918655 56.95764 2.3005257 56.355927 2.0708656c-0.6016998 -0.22966003 -49.36963 -20.115486 -59.966156 -3.4488182c-10.596527 16.666664 -4.8168488 58.85127 -3.6129837 103.44881c1.2038727 44.597565 11.438362 114.136505 10.836205 164.1365c-0.60217285 50.0 -13.245316 90.46106 -14.449188 135.8635c-1.203865 45.402466 6.5032806 108.16055 7.2259674 136.55118c0.72268677 28.390625 -10.355476 21.14917 -2.8898392 33.792664c7.465645 12.643494 33.777534 28.424744 47.683678 42.068237c13.906128 13.643494 36.596344 40.02234 35.753128 39.792664c-0.84321594 -0.2296753 -25.70195 -26.147888 -40.81241 -41.170593c-15.110458 -15.022766 -43.46852 -37.126892 -49.850357 -48.96588c-6.381836 -11.83905 11.559341 0.9203491 11.559341 -22.068237c0 -22.988647 -11.318756 -78.277374 -11.559341 -115.863525c-0.24059296 -37.58618 7.4665527 -74.8259 10.115799 -109.653564c2.6492462 -34.827637 6.8634796 -60.80664 5.7796783 -99.31232c-1.0838165 -38.505707 -12.161972 -95.97464 -12.282494 -131.7218c-0.120529175 -35.747154 3.6120605 -74.94488 11.559334 -82.761154c7.947281 -7.8162727 36.365387 36.32327 36.12433 35.863514z" fill-rule="evenodd"/><path fill="#000000" d="m133.09813 45.034122c4.8814697 0.35826492 113.145386 -5.231846 165.96349 -6.2782173c52.818115 -1.0463676 117.15155 0.35826874 150.94513 0c33.79358 -0.35826874 31.352844 -15.231846 51.816345 -2.1496048c20.46347 13.082237 55.945343 59.854767 70.96457 80.64304c15.019287 20.788269 17.648804 8.064743 19.151001 44.08661c1.5021973 36.02188 -8.823486 121.507 -10.137756 172.04463c-1.314331 50.53763 -1.5026855 91.57568 2.251892 131.18109c3.7545776 39.60544 19.900269 71.863495 20.275635 106.45145c0.37530518 34.58795 -10.138733 80.466736 -18.023682 101.07611c-7.8849487 20.609375 -7.883606 18.279114 -29.286072 22.580078c-21.402466 4.3009644 -57.825592 3.0463257 -99.128784 3.225708c-41.303223 0.17932129 -107.38727 -2.3289795 -148.69046 -2.1495972c-41.303223 0.17932129 -96.12488 4.121582 -99.128815 3.225708c-3.003952 -0.895874 40.59059 -8.0026245 81.10513 -8.601074c40.514526 -0.5983887 119.36453 5.1898804 161.98206 5.010498c42.617523 -0.17932129 73.22153 -4.71344 93.72305 -6.086609c20.501526 -1.3731079 19.898926 16.664917 29.286072 -2.1522217c9.387146 -18.817139 27.600098 -69.7113 27.036865 -110.75067c-0.5631714 -41.039368 -27.787476 -87.09839 -30.416138 -135.48553c-2.628601 -48.387146 10.701477 -116.12775 14.644409 -154.83728c3.9429321 -38.709534 9.013245 -51.434372 9.013245 -77.41994c0 -25.985565 -4.319641 -61.64743 -9.013245 -78.49344c-4.6935425 -16.846024 -7.3203735 -8.962387 -19.148254 -22.58268c-11.827881 -13.6203 -39.803284 -46.773846 -51.81909 -59.13911c-12.015747 -12.365269 -2.0649414 -14.156605 -20.275574 -15.052494c-18.210632 -0.8958893 -51.252197 9.139545 -88.98825 9.677166c-37.736053 0.53762054 -91.74429 -6.780842 -137.42807 -6.4514427c-45.683807 0.3293953 -141.55617 8.069553 -136.6747 8.427822z" fill-rule="evenodd"/><path stroke="#000000" stroke-width="16.0" stroke-linejoin="round" stroke-linecap="butt" d="m133.09813 45.034122c4.8814697 0.35826492 113.145386 -5.231846 165.96349 -6.2782173c52.818115 -1.0463676 117.15155 0.35826874 150.94513 0c33.79358 -0.35826874 31.352844 -15.231846 51.816345 -2.1496048c20.46347 13.082237 55.945343 59.854767 70.96457 80.64304c15.019287 20.788269 17.648804 8.064743 19.151001 44.08661c1.5021973 36.02188 -8.823486 121.507 -10.137756 172.04463c-1.314331 50.53763 -1.5026855 91.57568 2.251892 131.18109c3.7545776 39.60544 19.900269 71.863495 20.275635 106.45145c0.37530518 34.58795 -10.138733 80.466736 -18.023682 101.07611c-7.8849487 20.609375 -7.883606 18.279114 -29.286072 22.580078c-21.402466 4.3009644 -57.825592 3.0463257 -99.128784 3.225708c-41.303223 0.17932129 -107.38727 -2.3289795 -148.69046 -2.1495972c-41.303223 0.17932129 -96.12488 4.121582 -99.128815 3.225708c-3.003952 -0.895874 40.59059 -8.0026245 81.10513 -8.601074c40.514526 -0.5983887 119.36453 5.1898804 161.98206 5.010498c42.617523 -0.17932129 73.22153 -4.71344 93.72305 -6.086609c20.501526 -1.3731079 19.898926 16.664917 29.286072 -2.1522217c9.387146 -18.817139 27.600098 -69.7113 27.036865 -110.75067c-0.5631714 -41.039368 -27.787476 -87.09839 -30.416138 -135.48553c-2.628601 -48.387146 10.701477 -116.12775 14.644409 -154.83728c3.9429321 -38.709534 9.013245 -51.434372 9.013245 -77.41994c0 -25.985565 -4.319641 -61.64743 -9.013245 -78.49344c-4.6935425 -16.846024 -7.3203735 -8.962387 -19.148254 -22.58268c-11.827881 -13.6203 -39.803284 -46.773846 -51.81909 -59.13911c-12.015747 -12.365269 -2.0649414 -14.156605 -20.275574 -15.052494c-18.210632 -0.8958893 -51.252197 9.139545 -88.98825 9.677166c-37.736053 0.53762054 -91.74429 -6.780842 -137.42807 -6.4514427c-45.683807 0.3293953 -141.55617 8.069553 -136.6747 8.427822z" fill-rule="evenodd"/><path fill="#000000" d="m320.63257 119.50385c14.32312 -2.9296188 51.93802 -4.9065323 88.8595 -2.7871246c36.92148 2.1194077 104.491455 13.093361 132.66937 15.503578c28.177917 2.4102173 35.750732 -1.7902832 36.398193 -1.0422974c0.647522 0.74798584 -1.7276611 7.470886 -32.513245 5.530243c-30.785522 -1.9406586 -122.39972 -15.663414 -152.20001 -17.174149c-29.800323 -1.5107346 -20.487305 8.517227 -26.601776 8.109734c-6.1144714 -0.4074936 -2.8031921 -11.663155 -10.085083 -10.554718c-7.2818604 1.1084366 -27.518402 16.80288 -33.60623 17.20533c-6.0878296 0.40245056 -17.243835 -11.86097 -2.9207153 -14.790596z" fill-rule="evenodd"/><path stroke="#000000" stroke-width="16.0" stroke-linejoin="round" stroke-linecap="butt" d="m320.63257 119.50385c14.32312 -2.9296188 51.93802 -4.9065323 88.8595 -2.7871246c36.92148 2.1194077 104.491455 13.093361 132.66937 15.503578c28.177917 2.4102173 35.750732 -1.7902832 36.398193 -1.0422974c0.647522 0.74798584 -1.7276611 7.470886 -32.513245 5.530243c-30.785522 -1.9406586 -122.39972 -15.663414 -152.20001 -17.174149c-29.800323 -1.5107346 -20.487305 8.517227 -26.601776 8.109734c-6.1144714 -0.4074936 -2.8031921 -11.663155 -10.085083 -10.554718c-7.2818604 1.1084366 -27.518402 16.80288 -33.60623 17.20533c-6.0878296 0.40245056 -17.243835 -11.86097 -2.9207153 -14.790596z" fill-rule="evenodd"/><path fill="#000000" d="m209.65761 111.24233c-0.47375488 0.8993912 13.601929 7.0091934 17.049866 14.480316c3.4479523 7.471138 2.6434937 30.583122 3.6378021 30.346458c0.9943085 -0.23666382 -5.832901 -25.904633 2.3280792 -31.766403c8.16098 -5.8617706 47.15837 -2.7414703 46.637802 -3.4041977c-0.52056885 -0.662735 -38.152237 1.037178 -49.761154 -0.5721817c-11.6089325 -1.6093597 -19.41864 -9.983376 -19.892395 -9.083992z" fill-rule="evenodd"/><path stroke="#000000" stroke-width="16.0" stroke-linejoin="round" stroke-linecap="butt" d="m209.65761 111.24233c-0.47375488 0.8993912 13.601929 7.0091934 17.049866 14.480316c3.4479523 7.471138 2.6434937 30.583122 3.6378021 30.346458c0.9943085 -0.23666382 -5.832901 -25.904633 2.3280792 -31.766403c8.16098 -5.8617706 47.15837 -2.7414703 46.637802 -3.4041977c-0.52056885 -0.662735 -38.152237 1.037178 -49.761154 -0.5721817c-11.6089325 -1.6093597 -19.41864 -9.983376 -19.892395 -9.083992z" fill-rule="evenodd"/></g></svg>