<svg version="1.1" viewBox="0.0 0.0 709.2677165354331 720.3989501312336" fill="none" stroke="none" stroke-linecap="square" stroke-miterlimit="10" xmlns:xlink="http://www.w3.org/1999/xlink" xmlns="http://www.w3.org/2000/svg"><clipPath id="p.0"><path d="m0 0l709.2677 0l0 720.3989l-709.2677 0l0 -720.3989z" clip-rule="nonzero"/></clipPath><g clip-path="url(#p.0)"><path fill="#000000" fill-opacity="0.0" d="m0 0l709.2677 0l0 720.3989l-709.2677 0z" fill-rule="evenodd"/><path fill="#000000" d="m414.04077 160.20013l0 0c0 -18.65155 -15.120056 -33.77162 -33.771637 -33.77162l0 0c-8.956787 0 -17.546722 3.558075 -23.880127 9.8914795c-6.3334045 6.3334045 -9.8914795 14.923355 -9.8914795 23.880142l0 0c0 18.65155 15.120056 33.77162 33.771606 33.77162l0 0c18.65158 0 33.771637 -15.120071 33.771637 -33.77162z" fill-rule="evenodd"/><path stroke="#000000" stroke-width="29.666666666666668" stroke-linejoin="round" stroke-linecap="butt" d="m414.04077 160.20013l0 0c0 -18.65155 -15.120056 -33.77162 -33.771637 -33.77162l0 0c-8.956787 0 -17.546722 3.558075 -23.880127 9.8914795c-6.3334045 6.3334045 -9.8914795 14.923355 -9.8914795 23.880142l0 0c0 18.65155 15.120056 33.77162 33.771606 33.77162l0 0c18.65158 0 33.771637 -15.120071 33.771637 -33.77162z" fill-rule="evenodd"/><path fill="#000000" d="m298.36038 160.20013l0 0c0 -18.65155 15.120056 -33.77162 33.771637 -33.77162l0 0c8.956787 0 17.546722 3.558075 23.880127 9.8914795c6.3334045 6.3334045 9.8914795 14.923355 9.8914795 23.880142l0 0c0 18.65155 -15.120056 33.77162 -33.771606 33.77162l0 0c-18.65158 0 -33.771637 -15.120071 -33.771637 -33.77162z" fill-rule="evenodd"/><path stroke="#000000" stroke-width="29.666666666666668" stroke-linejoin="round" stroke-linecap="butt" d="m298.36038 160.20013l0 0c0 -18.65155 15.120056 -33.77162 33.771637 -33.77162l0 0c8.956787 0 17.546722 3.558075 23.880127 9.8914795c6.3334045 6.3334045 9.8914795 14.923355 9.8914795 23.880142l0 0c0 18.65155 -15.120056 33.77162 -33.771606 33.77162l0 0c-18.65158 0 -33.771637 -15.120071 -33.771637 -33.77162z" fill-rule="evenodd"/><path fill="#ffffff" d="m355.68915 202.47208c-5.2205505 0.3008423 -12.506317 -6.496063 -16.675446 -13.406815c-4.169098 -6.910736 -8.170013 -18.423553 -8.339233 -28.057632c-0.16921997 -9.634094 3.2864075 -22.57286 7.323883 -29.746841c4.037506 -7.1739807 11.454895 -13.353455 16.901062 -13.29705c5.446167 0.056411743 12.076416 6.442711 15.77597 13.63549c3.6995544 7.192795 6.4777527 20.244385 6.421356 29.52121c-0.056396484 9.276825 -3.1918945 19.247833 -6.7598267 26.13977c-3.5679321 6.8919373 -9.427246 14.911026 -14.647766 15.211868z" fill-rule="evenodd"/><path stroke="#000000" stroke-width="1.162729658792651" stroke-linejoin="round" stroke-linecap="butt" d="m355.68915 202.47208c-5.2205505 0.3008423 -12.506317 -6.496063 -16.675446 -13.406815c-4.169098 -6.910736 -8.170013 -18.423553 -8.339233 -28.057632c-0.16921997 -9.634094 3.2864075 -22.57286 7.323883 -29.746841c4.037506 -7.1739807 11.454895 -13.353455 16.901062 -13.29705c5.446167 0.056411743 12.076416 6.442711 15.77597 13.63549c3.6995544 7.192795 6.4777527 20.244385 6.421356 29.52121c-0.056396484 9.276825 -3.1918945 19.247833 -6.7598267 26.13977c-3.5679321 6.8919373 -9.427246 14.911026 -14.647766 15.211868z" fill-rule="evenodd"/><path fill="#cfe2f3" d="m295.205 205.38351c-19.755524 10.607239 -133.11528 46.00911 -128.07666 62.05185c5.0386047 16.042755 128.54877 33.778748 158.30829 34.20459c29.759552 0.4258728 16.9346 -35.494873 20.248962 -31.649445c3.3143616 3.845398 1.951416 49.3143 -0.362854 54.721863c-2.3142395 5.4075317 16.70694 -13.658386 -13.522675 -22.276611c-30.229614 -8.618225 -160.16519 -12.992126 -167.85497 -29.43277c-7.689789 -16.440643 99.839615 -57.941193 121.71626 -69.211105c21.876648 -11.269913 29.299133 -9.015625 9.54364 1.591629z" fill-rule="evenodd"/><path stroke="#000000" stroke-width="27.879265091863516" stroke-linejoin="round" stroke-linecap="butt" d="m295.205 205.38351c-19.755524 10.607239 -133.11528 46.00911 -128.07666 62.05185c5.0386047 16.042755 128.54877 33.778748 158.30829 34.20459c29.759552 0.4258728 16.9346 -35.494873 20.248962 -31.649445c3.3143616 3.845398 1.951416 49.3143 -0.362854 54.721863c-2.3142395 5.4075317 16.70694 -13.658386 -13.522675 -22.276611c-30.229614 -8.618225 -160.16519 -12.992126 -167.85497 -29.43277c-7.689789 -16.440643 99.839615 -57.941193 121.71626 -69.211105c21.876648 -11.269913 29.299133 -9.015625 9.54364 1.591629z" fill-rule="evenodd"/><path fill="#000000" d="m285.86423 195.65137c14.41452 -8.273682 41.280487 16.801956 43.4982 28.146072c2.217682 11.344101 -23.539429 21.580383 -30.192017 39.918564c-6.652588 18.338196 -7.3467407 46.999054 -9.723511 70.110596c-2.37677 23.111511 3.3102722 55.2529 -4.5370483 68.55859c-7.8473206 13.305664 -32.726288 17.84018 -42.546875 11.275482c-9.820572 -6.5646667 -16.46199 -27.293335 -16.376602 -50.663513c0.085372925 -23.370209 6.90921 -61.666656 16.888855 -89.55762c9.979645 -27.890976 28.574478 -69.514496 42.989 -77.78818z" fill-rule="evenodd"/><path stroke="#000000" stroke-width="27.879265091863516" stroke-linejoin="round" stroke-linecap="butt" d="m285.86423 195.65137c14.41452 -8.273682 41.280487 16.801956 43.4982 28.146072c2.217682 11.344101 -23.539429 21.580383 -30.192017 39.918564c-6.652588 18.338196 -7.3467407 46.999054 -9.723511 70.110596c-2.37677 23.111511 3.3102722 55.2529 -4.5370483 68.55859c-7.8473206 13.305664 -32.726288 17.84018 -42.546875 11.275482c-9.820572 -6.5646667 -16.46199 -27.293335 -16.376602 -50.663513c0.085372925 -23.370209 6.90921 -61.666656 16.888855 -89.55762c9.979645 -27.890976 28.574478 -69.514496 42.989 -77.78818z" fill-rule="evenodd"/><path fill="#000000" d="m264.4395 383.9267c1.6241455 5.368408 2.6227112 10.534576 16.550415 34.448517c13.927704 23.91394 78.18048 72.29016 67.01575 109.035126c-11.164703 36.744995 -117.994354 89.34369 -134.00407 111.434814c-16.009705 22.091064 37.378693 20.925293 37.945816 21.111816c0.5671387 0.18652344 -50.69098 2.4423218 -34.54303 -19.992798c16.147934 -22.43518 122.457184 -72.318115 131.43063 -114.61804c8.97345 -42.299896 -63.524048 -115.61151 -77.589966 -139.18143c-14.065918 -23.569916 -8.4296875 -7.6064453 -6.805542 -2.2380066z" fill-rule="evenodd"/><path stroke="#000000" stroke-width="27.879265091863516" stroke-linejoin="round" stroke-linecap="butt" d="m264.4395 383.9267c1.6241455 5.368408 2.6227112 10.534576 16.550415 34.448517c13.927704 23.91394 78.18048 72.29016 67.01575 109.035126c-11.164703 36.744995 -117.994354 89.34369 -134.00407 111.434814c-16.009705 22.091064 37.378693 20.925293 37.945816 21.111816c0.5671387 0.18652344 -50.69098 2.4423218 -34.54303 -19.992798c16.147934 -22.43518 122.457184 -72.318115 131.43063 -114.61804c8.97345 -42.299896 -63.524048 -115.61151 -77.589966 -139.18143c-14.065918 -23.569916 -8.4296875 -7.6064453 -6.805542 -2.2380066z" fill-rule="evenodd"/><path fill="#000000" d="m229.38487 399.93832c-0.2582245 0.38015747 42.938705 111.40738 17.646591 148.01663c-25.292099 36.609253 -140.1965 53.299194 -169.3992 71.638916c-29.202705 18.339722 -9.35479 30.655518 -5.8170013 38.399292c3.5377884 7.7437744 27.04374 8.0633545 27.04374 8.0633545c0 0 -22.930717 -0.46429443 -27.04374 -8.0633545c-4.1130295 -7.59906 -27.095364 -18.811218 2.36557 -37.531067c29.46093 -18.719849 148.53267 -38.03412 174.40002 -74.788086c25.867325 -36.753937 -18.93776 -146.11584 -19.195984 -145.73569z" fill-rule="evenodd"/><path stroke="#000000" stroke-width="27.879265091863516" stroke-linejoin="round" stroke-linecap="butt" d="m229.38487 399.93832c-0.2582245 0.38015747 42.938705 111.40738 17.646591 148.01663c-25.292099 36.609253 -140.1965 53.299194 -169.3992 71.638916c-29.202705 18.339722 -9.35479 30.655518 -5.8170013 38.399292c3.5377884 7.7437744 27.04374 8.0633545 27.04374 8.0633545c0 0 -22.930717 -0.46429443 -27.04374 -8.0633545c-4.1130295 -7.59906 -27.095364 -18.811218 2.36557 -37.531067c29.46093 -18.719849 148.53267 -38.03412 174.40002 -74.788086c25.867325 -36.753937 -18.93776 -146.11584 -19.195984 -145.73569z" fill-rule="evenodd"/><path fill="#cfe2f3" d="m414.06387 205.38351c19.755493 10.607239 133.11526 46.00911 128.07663 62.05185c-5.038574 16.042755 -128.54874 33.778748 -158.30829 34.20459c-29.759521 0.4258728 -16.93457 -35.494873 -20.248932 -31.649445c-3.3143616 3.845398 -1.951416 49.3143 0.3628235 54.721863c2.31427 5.4075317 -16.70691 -13.658386 13.522675 -22.276611c30.229614 -8.618225 160.16519 -12.992126 167.85501 -29.43277c7.6897583 -16.440643 -99.83966 -57.941193 -121.71631 -69.211105c-21.876648 -11.269913 -29.299133 -9.015625 -9.54361 1.591629z" fill-rule="evenodd"/><path stroke="#000000" stroke-width="27.879265091863516" stroke-linejoin="round" stroke-linecap="butt" d="m414.06387 205.38351c19.755493 10.607239 133.11526 46.00911 128.07663 62.05185c-5.038574 16.042755 -128.54874 33.778748 -158.30829 34.20459c-29.759521 0.4258728 -16.93457 -35.494873 -20.248932 -31.649445c-3.3143616 3.845398 -1.951416 49.3143 0.3628235 54.721863c2.31427 5.4075317 -16.70691 -13.658386 13.522675 -22.276611c30.229614 -8.618225 160.16519 -12.992126 167.85501 -29.43277c7.6897583 -16.440643 -99.83966 -57.941193 -121.71631 -69.211105c-21.876648 -11.269913 -29.299133 -9.015625 -9.54361 1.591629z" fill-rule="evenodd"/><path fill="#000000" d="m423.40463 195.65137c-14.414551 -8.273682 -41.280518 16.801956 -43.4982 28.146072c-2.2177124 11.344101 23.539429 21.580383 30.192017 39.918564c6.6525574 18.338196 7.3467407 46.999054 9.723511 70.110596c2.3767395 23.111511 -3.3103027 55.2529 4.537018 68.55859c7.8473206 13.305664 32.72632 17.84018 42.546906 11.275482c9.820557 -6.5646667 16.461975 -27.293335 16.376587 -50.663513c-0.085357666 -23.370209 -6.90921 -61.666656 -16.888855 -89.55762c-9.979645 -27.890976 -28.574463 -69.514496 -42.988983 -77.78818z" fill-rule="evenodd"/><path stroke="#000000" stroke-width="27.879265091863516" stroke-linejoin="round" stroke-linecap="butt" d="m423.40463 195.65137c-14.414551 -8.273682 -41.280518 16.801956 -43.4982 28.146072c-2.2177124 11.344101 23.539429 21.580383 30.192017 39.918564c6.6525574 18.338196 7.3467407 46.999054 9.723511 70.110596c2.3767395 23.111511 -3.3103027 55.2529 4.537018 68.55859c7.8473206 13.305664 32.72632 17.84018 42.546906 11.275482c9.820557 -6.5646667 16.461975 -27.293335 16.376587 -50.663513c-0.085357666 -23.370209 -6.90921 -61.666656 -16.888855 -89.55762c-9.979645 -27.890976 -28.574463 -69.514496 -42.988983 -77.78818z" fill-rule="evenodd"/><path fill="#000000" d="m444.82935 383.9267c-1.6241455 5.368408 -2.6227112 10.534576 -16.550415 34.448517c-13.927704 23.91394 -78.18048 72.29016 -67.01575 109.035126c11.164703 36.744995 117.994354 89.34369 134.00406 111.434814c16.009705 22.091064 -37.378693 20.925293 -37.9458 21.111816c-0.5671387 0.18652344 50.69098 2.4423218 34.54303 -19.992798c-16.14795 -22.43518 -122.457214 -72.318115 -131.43066 -114.61804c-8.97345 -42.299896 63.52408 -115.61151 77.59 -139.18143c14.065918 -23.569916 8.4296875 -7.6064453 6.805542 -2.2380066z" fill-rule="evenodd"/><path stroke="#000000" stroke-width="27.879265091863516" stroke-linejoin="round" stroke-linecap="butt" d="m444.82935 383.9267c-1.6241455 5.368408 -2.6227112 10.534576 -16.550415 34.448517c-13.927704 23.91394 -78.18048 72.29016 -67.01575 109.035126c11.164703 36.744995 117.994354 89.34369 134.00406 111.434814c16.009705 22.091064 -37.378693 20.925293 -37.9458 21.111816c-0.5671387 0.18652344 50.69098 2.4423218 34.54303 -19.992798c-16.14795 -22.43518 -122.457214 -72.318115 -131.43066 -114.61804c-8.97345 -42.299896 63.52408 -115.61151 77.59 -139.18143c14.065918 -23.569916 8.4296875 -7.6064453 6.805542 -2.2380066z" fill-rule="evenodd"/><path fill="#000000" d="m479.88397 399.93832c0.25823975 0.38015747 -42.93869 111.40738 -17.646576 148.01663c25.292084 36.609253 140.1965 53.299194 169.3992 71.638916c29.202698 18.339722 9.354797 30.655518 5.8170166 38.399292c-3.5377808 7.7437744 -27.043762 8.0633545 -27.043762 8.0633545c0 0 22.930725 -0.46429443 27.043762 -8.0633545c4.113037 -7.59906 27.095337 -18.811218 -2.3656006 -37.531067c-29.460938 -18.719849 -148.53265 -38.03412 -174.40002 -74.788086c-25.86734 -36.753937 18.937775 -146.11584 19.195984 -145.73569z" fill-rule="evenodd"/><path stroke="#000000" stroke-width="27.879265091863516" stroke-linejoin="round" stroke-linecap="butt" d="m479.88397 399.93832c0.25823975 0.38015747 -42.93869 111.40738 -17.646576 148.01663c25.292084 36.609253 140.1965 53.299194 169.3992 71.638916c29.202698 18.339722 9.354797 30.655518 5.8170166 38.399292c-3.5377808 7.7437744 -27.043762 8.0633545 -27.043762 8.0633545c0 0 22.930725 -0.46429443 27.043762 -8.0633545c4.113037 -7.59906 27.095337 -18.811218 -2.3656006 -37.531067c-29.460938 -18.719849 -148.53265 -38.03412 -174.40002 -74.788086c-25.86734 -36.753937 18.937775 -146.11584 19.195984 -145.73569z" fill-rule="evenodd"/></g></svg>