<svg version="1.1" viewBox="0.0 0.0 700.0 721.8031496062993" fill="none" stroke="none" stroke-linecap="square" stroke-miterlimit="10" xmlns:xlink="http://www.w3.org/1999/xlink" xmlns="http://www.w3.org/2000/svg"><clipPath id="p.0"><path d="m0 0l700.0 0l0 721.80316l-700.0 0l0 -721.80316z" clip-rule="nonzero"/></clipPath><g clip-path="url(#p.0)"><path fill="#000000" fill-opacity="0.0" d="m0 0l700.0 0l0 721.80316l-700.0 0z" fill-rule="evenodd"/><path fill="#ffffff" d="m190.81508 220.11026c1.3619232 -7.70105 9.48877 -11.001785 8.171539 -16.646805c-1.3172302 -5.6450195 -12.210587 -9.908981 -16.074936 -17.223312c-3.8643646 -7.314316 -7.1555786 -16.431915 -7.1112213 -26.662628c0.0443573 -10.230728 0.87815857 -24.273315 7.3773193 -34.721718c6.499176 -10.448402 20.42035 -22.393883 31.617676 -27.968735c11.197342 -5.574852 25.114761 -4.9983444 35.566315 -5.480362c10.451553 -0.4820099 20.950516 4.648697 27.14296 2.5882797c6.1924744 -2.0604172 4.7421875 -10.288528 10.01181 -14.950783c5.2695923 -4.6622543 12.384216 -9.56691 21.605896 -13.022736c9.221649 -3.4558258 21.252777 -7.8732834 33.724 -7.7122154c12.471252 0.16107178 31.003265 4.177849 41.103394 8.678631c10.100159 4.500786 14.842682 14.066498 19.497498 18.32608c4.654846 4.259575 4.654846 7.2313995 8.431519 7.2313995c3.776703 0 5.4460144 -5.222412 14.228577 -7.2313995c8.782562 -2.0089874 22.746063 -7.1532516 38.46689 -4.822525c15.720795 2.3307266 43.825867 6.911644 55.858 18.806892c12.032166 11.895248 15.413452 38.382065 16.33496 52.564575c0.92144775 14.18251 -6.854004 24.172043 -10.80603 32.530518c-3.9520264 8.35849 -12.8185425 11.667603 -12.90625 17.620407c-0.087646484 5.9528046 9.833374 11.987732 12.380188 18.096436c2.546753 6.1086884 4.7005005 8.068634 2.9005737 18.55571c-1.7999878 10.487091 -5.7963867 33.758102 -13.7005005 44.366776c-7.9040527 10.608673 -21.998535 15.198364 -33.724 19.285309c-11.725433 4.0869446 -25.65039 6.2805176 -36.628693 5.2363586c-10.978302 -1.0441589 -22.171875 -10.4687195 -29.24112 -11.501343c-7.0692444 -1.0325928 -6.060089 2.6536865 -13.174377 5.3057556c-7.1142883 2.652069 -18.884094 9.643036 -29.511322 10.606689c-10.627258 0.96362305 -24.94281 -1.4492493 -34.252167 -4.8249207c-9.309326 -3.375702 -15.631775 -14.545746 -21.60382 -15.42923c-5.9720764 -0.8834839 -7.817108 7.7975464 -14.228577 10.128265c-6.411499 2.330719 -13.701141 4.3385315 -24.240356 3.8561096c-10.539246 -0.48242188 -27.13855 -2.3303223 -38.99501 -6.75058c-11.856461 -4.4202576 -24.106949 -11.55835 -32.143753 -19.770935c-8.036789 -8.212555 -13.397491 -19.660461 -16.07698 -29.50447c-2.6795044 -9.843994 -1.3619385 -21.858444 0 -29.559494z" fill-rule="evenodd"/><path stroke="#000000" stroke-width="24.0" stroke-linejoin="round" stroke-linecap="butt" d="m190.81508 220.11026c1.3619232 -7.70105 9.48877 -11.001785 8.171539 -16.646805c-1.3172302 -5.6450195 -12.210587 -9.908981 -16.074936 -17.223312c-3.8643646 -7.314316 -7.1555786 -16.431915 -7.1112213 -26.662628c0.0443573 -10.230728 0.87815857 -24.273315 7.3773193 -34.721718c6.499176 -10.448402 20.42035 -22.393883 31.617676 -27.968735c11.197342 -5.574852 25.114761 -4.9983444 35.566315 -5.480362c10.451553 -0.4820099 20.950516 4.648697 27.14296 2.5882797c6.1924744 -2.0604172 4.7421875 -10.288528 10.01181 -14.950783c5.2695923 -4.6622543 12.384216 -9.56691 21.605896 -13.022736c9.221649 -3.4558258 21.252777 -7.8732834 33.724 -7.7122154c12.471252 0.16107178 31.003265 4.177849 41.103394 8.678631c10.100159 4.500786 14.842682 14.066498 19.497498 18.32608c4.654846 4.259575 4.654846 7.2313995 8.431519 7.2313995c3.776703 0 5.4460144 -5.222412 14.228577 -7.2313995c8.782562 -2.0089874 22.746063 -7.1532516 38.46689 -4.822525c15.720795 2.3307266 43.825867 6.911644 55.858 18.806892c12.032166 11.895248 15.413452 38.382065 16.33496 52.564575c0.92144775 14.18251 -6.854004 24.172043 -10.80603 32.530518c-3.9520264 8.35849 -12.8185425 11.667603 -12.90625 17.620407c-0.087646484 5.9528046 9.833374 11.987732 12.380188 18.096436c2.546753 6.1086884 4.7005005 8.068634 2.9005737 18.55571c-1.7999878 10.487091 -5.7963867 33.758102 -13.7005005 44.366776c-7.9040527 10.608673 -21.998535 15.198364 -33.724 19.285309c-11.725433 4.0869446 -25.65039 6.2805176 -36.628693 5.2363586c-10.978302 -1.0441589 -22.171875 -10.4687195 -29.24112 -11.501343c-7.0692444 -1.0325928 -6.060089 2.6536865 -13.174377 5.3057556c-7.1142883 2.652069 -18.884094 9.643036 -29.511322 10.606689c-10.627258 0.96362305 -24.94281 -1.4492493 -34.252167 -4.8249207c-9.309326 -3.375702 -15.631775 -14.545746 -21.60382 -15.42923c-5.9720764 -0.8834839 -7.817108 7.7975464 -14.228577 10.128265c-6.411499 2.330719 -13.701141 4.3385315 -24.240356 3.8561096c-10.539246 -0.48242188 -27.13855 -2.3303223 -38.99501 -6.75058c-11.856461 -4.4202576 -24.106949 -11.55835 -32.143753 -19.770935c-8.036789 -8.212555 -13.397491 -19.660461 -16.07698 -29.50447c-2.6795044 -9.843994 -1.3619385 -21.858444 0 -29.559494z" fill-rule="evenodd"/><path fill="#000000" d="m324.95544 455.55902l0 0c0 -8.888733 7.205719 -16.094482 16.094482 -16.094482l0 0c4.268524 0 8.362213 1.6956482 11.380524 4.7139587c3.01828 3.0183105 4.7139587 7.1119995 4.7139587 11.380524l0 0c0 8.888733 -7.2057495 16.094482 -16.094482 16.094482l0 0c-8.888763 0 -16.094482 -7.2057495 -16.094482 -16.094482z" fill-rule="evenodd"/><path stroke="#000000" stroke-width="14.136482939632545" stroke-linejoin="round" stroke-linecap="butt" d="m324.95544 455.55902l0 0c0 -8.888733 7.205719 -16.094482 16.094482 -16.094482l0 0c4.268524 0 8.362213 1.6956482 11.380524 4.7139587c3.01828 3.0183105 4.7139587 7.1119995 4.7139587 11.380524l0 0c0 8.888733 -7.2057495 16.094482 -16.094482 16.094482l0 0c-8.888763 0 -16.094482 -7.2057495 -16.094482 -16.094482z" fill-rule="evenodd"/><path fill="#000000" d="m315.80286 681.9287c-0.09451294 -0.42474365 21.628601 5.9926147 23.29132 -3.5170288c1.6627197 -9.509644 -13.64566 -35.41034 -13.314972 -53.54071c0.330719 -18.13031 13.552063 -33.829834 15.299225 -55.241455c1.7471619 -21.411621 -7.318451 -61.519257 -4.816284 -73.22833c2.5021973 -11.709106 15.486023 -8.640869 19.829407 2.973755c4.343384 11.6145935 2.9733276 47.35608 6.2309875 66.71393c3.2576294 19.357788 13.2677 30.665344 13.314941 49.433044c0.04724121 18.7677 -14.443115 52.07483 -13.031494 63.173218c1.4116516 11.09845 21.548553 2.7091064 21.501312 3.4173584c-0.04724121 0.7081909 -20.373138 12.496887 -21.78476 0.8319702c-1.4116516 -11.664917 15.156158 -52.124634 13.314941 -70.82147c-1.8411865 -18.6969 -16.38321 -42.492615 -24.362213 -41.35962c-7.9789734 1.1329956 -21.57611 29.79132 -23.51181 48.15747c-1.935669 18.36615 13.891083 51.538086 11.897644 62.039368c-1.9934387 10.501343 -23.763763 1.3933105 -23.858246 0.96850586z" fill-rule="evenodd"/><path stroke="#000000" stroke-width="14.136482939632545" stroke-linejoin="round" stroke-linecap="butt" d="m315.80286 681.9287c-0.09451294 -0.42474365 21.628601 5.9926147 23.29132 -3.5170288c1.6627197 -9.509644 -13.64566 -35.41034 -13.314972 -53.54071c0.330719 -18.13031 13.552063 -33.829834 15.299225 -55.241455c1.7471619 -21.411621 -7.318451 -61.519257 -4.816284 -73.22833c2.5021973 -11.709106 15.486023 -8.640869 19.829407 2.973755c4.343384 11.6145935 2.9733276 47.35608 6.2309875 66.71393c3.2576294 19.357788 13.2677 30.665344 13.314941 49.433044c0.04724121 18.7677 -14.443115 52.07483 -13.031494 63.173218c1.4116516 11.09845 21.548553 2.7091064 21.501312 3.4173584c-0.04724121 0.7081909 -20.373138 12.496887 -21.78476 0.8319702c-1.4116516 -11.664917 15.156158 -52.124634 13.314941 -70.82147c-1.8411865 -18.6969 -16.38321 -42.492615 -24.362213 -41.35962c-7.9789734 1.1329956 -21.57611 29.79132 -23.51181 48.15747c-1.935669 18.36615 13.891083 51.538086 11.897644 62.039368c-1.9934387 10.501343 -23.763763 1.3933105 -23.858246 0.96850586z" fill-rule="evenodd"/><path fill="#000000" d="m332.43826 493.14194c0.47244263 -0.75546265 -30.264221 34.77426 -33.14435 31.020966c-2.880127 -3.7532349 11.520111 -44.66446 15.863525 -53.54065c4.343384 -8.876221 9.913818 0.8031616 10.196838 0.28344727c0.28302002 -0.51968384 -6.7991943 0.47027588 -8.498688 -3.4015503c-1.6994629 -3.8718262 -0.942688 -20.821106 -1.6981506 -19.829407c-0.75546265 0.9916992 0.28170776 12.2760315 -2.8346558 25.779541c-3.1163635 13.503479 -19.216095 51.960205 -15.863525 55.241455c3.3526 3.28125 35.50656 -34.79834 35.979004 -35.553802z" fill-rule="evenodd"/><path stroke="#000000" stroke-width="14.136482939632545" stroke-linejoin="round" stroke-linecap="butt" d="m332.43826 493.14194c0.47244263 -0.75546265 -30.264221 34.77426 -33.14435 31.020966c-2.880127 -3.7532349 11.520111 -44.66446 15.863525 -53.54065c4.343384 -8.876221 9.913818 0.8031616 10.196838 0.28344727c0.28302002 -0.51968384 -6.7991943 0.47027588 -8.498688 -3.4015503c-1.6994629 -3.8718262 -0.942688 -20.821106 -1.6981506 -19.829407c-0.75546265 0.9916992 0.28170776 12.2760315 -2.8346558 25.779541c-3.1163635 13.503479 -19.216095 51.960205 -15.863525 55.241455c3.3526 3.28125 35.50656 -34.79834 35.979004 -35.553802z" fill-rule="evenodd"/><path fill="#000000" d="m356.23358 491.15973c0 -0.09448242 24.458008 18.317596 30.879272 34.559082c6.4212646 16.241455 6.89328 54.674072 7.6483154 62.88977c0.7550049 8.215637 -1.0407104 -12.321106 -3.1181335 -13.595825c-2.077423 -1.2747192 -9.299194 6.419922 -9.346436 5.94751c-0.04727173 -0.4724121 8.260254 0.33026123 9.062988 -8.782166c0.80270386 -9.112427 1.607605 -32.389282 -4.2467346 -45.892395c-5.854309 -13.503052 -30.879272 -35.031464 -30.879272 -35.125977z" fill-rule="evenodd"/><path stroke="#000000" stroke-width="14.136482939632545" stroke-linejoin="round" stroke-linecap="butt" d="m356.23358 491.15973c0 -0.09448242 24.458008 18.317596 30.879272 34.559082c6.4212646 16.241455 6.89328 54.674072 7.6483154 62.88977c0.7550049 8.215637 -1.0407104 -12.321106 -3.1181335 -13.595825c-2.077423 -1.2747192 -9.299194 6.419922 -9.346436 5.94751c-0.04727173 -0.4724121 8.260254 0.33026123 9.062988 -8.782166c0.80270386 -9.112427 1.607605 -32.389282 -4.2467346 -45.892395c-5.854309 -13.503052 -30.879272 -35.031464 -30.879272 -35.125977z" fill-rule="evenodd"/><path fill="#000000" d="m258.84888 360.10898l34.17749 -136.71007l113.94873 0l34.17752 136.71007z" fill-rule="evenodd"/><path stroke="#000000" stroke-width="18.04461942257218" stroke-linejoin="round" stroke-linecap="butt" d="m258.84888 360.10898l34.17749 -136.71007l113.94873 0l34.17752 136.71007z" fill-rule="evenodd"/><path fill="#000000" fill-opacity="0.0" d="m324.1584 210.74321l0 0c0 -14.186218 11.500214 -25.686417 25.686432 -25.686417l0 0c6.8124695 0 13.345886 2.7062378 18.163025 7.5233765c4.8171387 4.8171387 7.523407 11.350586 7.523407 18.16304l0 0c0 14.186218 -11.500214 25.686432 -25.686432 25.686432l0 0c-14.186218 0 -25.686432 -11.500214 -25.686432 -25.686432z" fill-rule="evenodd"/><path stroke="#000000" stroke-width="18.04461942257218" stroke-linejoin="round" stroke-linecap="butt" d="m324.1584 210.74321l0 0c0 -14.186218 11.500214 -25.686417 25.686432 -25.686417l0 0c6.8124695 0 13.345886 2.7062378 18.163025 7.5233765c4.8171387 4.8171387 7.523407 11.350586 7.523407 18.16304l0 0c0 14.186218 -11.500214 25.686432 -25.686432 25.686432l0 0c-14.186218 0 -25.686432 -11.500214 -25.686432 -25.686432z" fill-rule="evenodd"/><path fill="#000000" fill-opacity="0.0" d="m349.9322 185.0568l0 -122.015755" fill-rule="evenodd"/><path stroke="#000000" stroke-width="24.0" stroke-linejoin="round" stroke-linecap="butt" d="m349.9322 185.0568l0 -122.015755" fill-rule="evenodd"/><path fill="#ffffff" d="m488.71915 373.53543l0 0c0 -16.78598 20.073181 -30.393707 44.834686 -30.393707l0 0c24.761475 0 44.834595 13.607727 44.834595 30.393707l0 0c0 16.78598 -20.07312 30.393707 -44.834595 30.393707l0 0c-24.761505 0 -44.834686 -13.607727 -44.834686 -30.393707z" fill-rule="evenodd"/><path stroke="#000000" stroke-width="16.0" stroke-linejoin="round" stroke-linecap="butt" d="m488.71915 373.53543l0 0c0 -16.78598 20.073181 -30.393707 44.834686 -30.393707l0 0c24.761475 0 44.834595 13.607727 44.834595 30.393707l0 0c0 16.78598 -20.07312 30.393707 -44.834595 30.393707l0 0c-24.761505 0 -44.834686 -13.607727 -44.834686 -30.393707z" fill-rule="evenodd"/><path fill="#ffffff" d="m400.021 439.90814l0 0c0 -10.7413025 12.853302 -19.448822 28.708649 -19.448822l0 0c15.855377 0 28.70868 8.70752 28.70868 19.448822l0 0c0 10.741272 -12.853302 19.448822 -28.70868 19.448822l0 0c-15.855347 0 -28.708649 -8.70755 -28.708649 -19.448822z" fill-rule="evenodd"/><path stroke="#000000" stroke-width="16.0" stroke-linejoin="round" stroke-linecap="butt" d="m400.021 439.90814l0 0c0 -10.7413025 12.853302 -19.448822 28.708649 -19.448822l0 0c15.855377 0 28.70868 8.70752 28.70868 19.448822l0 0c0 10.741272 -12.853302 19.448822 -28.70868 19.448822l0 0c-15.855347 0 -28.708649 -8.70755 -28.708649 -19.448822z" fill-rule="evenodd"/></g></svg>