<svg version="1.1" viewBox="0.0 0.0 700.0 721.8031496062993" fill="none" stroke="none" stroke-linecap="square" stroke-miterlimit="10" xmlns:xlink="http://www.w3.org/1999/xlink" xmlns="http://www.w3.org/2000/svg"><clipPath id="p.0"><path d="m0 0l700.0 0l0 721.80316l-700.0 0l0 -721.80316z" clip-rule="nonzero"/></clipPath><g clip-path="url(#p.0)"><path fill="#000000" fill-opacity="0.0" d="m0 0l700.0 0l0 721.80316l-700.0 0z" fill-rule="evenodd"/><path fill="#ffffff" d="m133.99681 215.38806c1.72966 -5.445755 12.051178 -7.7799683 10.377945 -11.771652c-1.6732178 -3.9916992 -15.509186 -7.006134 -20.417313 -12.178482c-4.908142 -5.172348 -9.087929 -11.620728 -9.031502 -18.855637c0.05643463 -7.234909 1.1150513 -17.16536 9.370079 -24.553818c8.255035 -7.388443 25.937881 -15.8346405 40.16011 -19.776901c14.222214 -3.942253 31.898071 -3.5358658 45.173233 -3.8766403c13.2751465 -0.3407669 26.611984 3.289154 34.477676 1.8320236c7.8657074 -1.4571304 6.0231934 -7.2777786 12.716537 -10.574799c6.6933594 -3.2970276 15.73053 -6.7637863 27.443573 -9.207352c11.713043 -2.443573 26.994324 -5.5678024 42.834656 -5.454071c15.840332 0.11373901 39.378815 2.9536362 52.207336 6.1364822c12.828522 3.1828537 18.851257 9.948387 24.763794 12.960632c5.912506 3.0122452 5.9142456 5.1128616 10.711273 5.1128616c4.7970276 0 6.356964 -2.424324 18.070862 -5.1128616c11.713928 -2.6885376 32.244537 -12.666229 52.212616 -11.018372c19.968048 1.6478577 52.871826 11.225723 67.595764 20.90551c14.723999 9.679794 19.577454 27.14392 20.748047 37.173233c1.1705933 10.029312 -8.704712 17.091858 -13.724426 23.002625c-5.0196533 5.9107513 -16.282104 8.252396 -16.393677 12.461945c-0.111572266 4.2095337 12.489502 8.475494 15.724426 12.795273c3.2348633 4.319763 5.9711304 5.7073517 3.6849976 13.123352c-2.2860718 7.4160156 -7.3621826 23.870956 -17.40155 31.372711c-10.039368 7.5017395 -27.941406 10.747589 -42.834656 13.637787c-14.8932495 2.8901978 -32.580475 4.4418335 -46.524933 3.7034302c-13.9444275 -0.73843384 -28.16272 -7.403778 -37.141724 -8.133881c-8.979004 -0.730072 -9.526245 -1.0962219 -16.73227 3.753296c-7.2060547 4.849518 -13.18811 21.874023 -26.503937 25.343811c-13.315857 3.469818 -38.986877 0.6784973 -53.391083 -4.524933c-14.404205 -5.2033997 -23.531494 -24.05597 -33.03412 -26.695526c-9.5026245 -2.639557 -15.007446 7.0122375 -23.981628 10.858276c-8.974182 3.8460083 -16.66623 10.63385 -29.863525 12.217834c-13.197281 1.5839844 -34.23709 1.9615173 -49.320206 -2.7138977c-15.083115 -4.675415 -32.515747 -16.832031 -41.178482 -25.338593c-8.66272 -8.506561 -8.998245 -17.933502 -10.797897 -25.70079c-1.7996521 -7.767273 -1.72966 -15.457123 0 -20.902878z" fill-rule="evenodd"/><path stroke="#000000" stroke-width="16.0" stroke-linejoin="round" stroke-linecap="butt" d="m133.99681 215.38806c1.72966 -5.445755 12.051178 -7.7799683 10.377945 -11.771652c-1.6732178 -3.9916992 -15.509186 -7.006134 -20.417313 -12.178482c-4.908142 -5.172348 -9.087929 -11.620728 -9.031502 -18.855637c0.05643463 -7.234909 1.1150513 -17.16536 9.370079 -24.553818c8.255035 -7.388443 25.937881 -15.8346405 40.16011 -19.776901c14.222214 -3.942253 31.898071 -3.5358658 45.173233 -3.8766403c13.2751465 -0.3407669 26.611984 3.289154 34.477676 1.8320236c7.8657074 -1.4571304 6.0231934 -7.2777786 12.716537 -10.574799c6.6933594 -3.2970276 15.73053 -6.7637863 27.443573 -9.207352c11.713043 -2.443573 26.994324 -5.5678024 42.834656 -5.454071c15.840332 0.11373901 39.378815 2.9536362 52.207336 6.1364822c12.828522 3.1828537 18.851257 9.948387 24.763794 12.960632c5.912506 3.0122452 5.9142456 5.1128616 10.711273 5.1128616c4.7970276 0 6.356964 -2.424324 18.070862 -5.1128616c11.713928 -2.6885376 32.244537 -12.666229 52.212616 -11.018372c19.968048 1.6478577 52.871826 11.225723 67.595764 20.90551c14.723999 9.679794 19.577454 27.14392 20.748047 37.173233c1.1705933 10.029312 -8.704712 17.091858 -13.724426 23.002625c-5.0196533 5.9107513 -16.282104 8.252396 -16.393677 12.461945c-0.111572266 4.2095337 12.489502 8.475494 15.724426 12.795273c3.2348633 4.319763 5.9711304 5.7073517 3.6849976 13.123352c-2.2860718 7.4160156 -7.3621826 23.870956 -17.40155 31.372711c-10.039368 7.5017395 -27.941406 10.747589 -42.834656 13.637787c-14.8932495 2.8901978 -32.580475 4.4418335 -46.524933 3.7034302c-13.9444275 -0.73843384 -28.16272 -7.403778 -37.141724 -8.133881c-8.979004 -0.730072 -9.526245 -1.0962219 -16.73227 3.753296c-7.2060547 4.849518 -13.18811 21.874023 -26.503937 25.343811c-13.315857 3.469818 -38.986877 0.6784973 -53.391083 -4.524933c-14.404205 -5.2033997 -23.531494 -24.05597 -33.03412 -26.695526c-9.5026245 -2.639557 -15.007446 7.0122375 -23.981628 10.858276c-8.974182 3.8460083 -16.66623 10.63385 -29.863525 12.217834c-13.197281 1.5839844 -34.23709 1.9615173 -49.320206 -2.7138977c-15.083115 -4.675415 -32.515747 -16.832031 -41.178482 -25.338593c-8.66272 -8.506561 -8.998245 -17.933502 -10.797897 -25.70079c-1.7996521 -7.767273 -1.72966 -15.457123 0 -20.902878z" fill-rule="evenodd"/><path fill="#000000" d="m322.9122 400.8018l0 0c0 -12.9296875 10.481598 -23.411285 23.411285 -23.411285l0 0c6.2090454 0 12.163788 2.4665527 16.55426 6.857025c4.3904724 4.390442 6.857025 10.345215 6.857025 16.55426l0 0c0 12.9296875 -10.481598 23.411285 -23.411285 23.411285l0 0c-12.9296875 0 -23.411285 -10.481598 -23.411285 -23.411285z" fill-rule="evenodd"/><path stroke="#000000" stroke-width="28.88976377952756" stroke-linejoin="round" stroke-linecap="butt" d="m322.9122 400.8018l0 0c0 -12.9296875 10.481598 -23.411285 23.411285 -23.411285l0 0c6.2090454 0 12.163788 2.4665527 16.55426 6.857025c4.3904724 4.390442 6.857025 10.345215 6.857025 16.55426l0 0c0 12.9296875 -10.481598 23.411285 -23.411285 23.411285l0 0c-12.9296875 0 -23.411285 -10.481598 -23.411285 -23.411285z" fill-rule="evenodd"/><path fill="#000000" d="m318.21997 468.1127c-10.504486 12.297638 -19.985168 54.91324 -30.233826 80.4476c-10.248657 25.534363 -31.68509 49.017334 -31.258087 72.758545c0.42703247 23.74121 31.785492 57.281616 33.82013 69.68872c2.034607 12.4071045 -21.868713 4.0706787 -21.612396 4.7539673c0.25628662 0.6833496 25.01361 12.265564 23.150177 -0.65411377c-1.8634338 -12.919739 -34.757782 -56.367798 -34.33078 -76.864136c0.42700195 -20.496399 22.033173 -48.675964 36.892822 -46.113953c14.85968 2.5620728 36.551453 41.246155 52.265106 61.486206c15.713684 20.23999 38.857178 49.022583 42.016937 59.95404c3.1597595 10.931519 -23.05838 4.951477 -23.05838 5.6348267c0 0.6832886 26.474426 9.396545 23.05838 -1.5349731c-3.4160461 -10.9314575 -31.256653 -43.30127 -43.554718 -64.053894c-12.298096 -20.752686 -31.173431 -33.988464 -30.233826 -60.461914c0.9396057 -26.47351 35.358368 -80.87222 35.87146 -98.37903c0.5130615 -17.506805 -22.288544 -18.959503 -32.793 -6.6618958z" fill-rule="evenodd"/><path stroke="#000000" stroke-width="28.88976377952756" stroke-linejoin="round" stroke-linecap="butt" d="m318.21997 468.1127c-10.504486 12.297638 -19.985168 54.91324 -30.233826 80.4476c-10.248657 25.534363 -31.68509 49.017334 -31.258087 72.758545c0.42703247 23.74121 31.785492 57.281616 33.82013 69.68872c2.034607 12.4071045 -21.868713 4.0706787 -21.612396 4.7539673c0.25628662 0.6833496 25.01361 12.265564 23.150177 -0.65411377c-1.8634338 -12.919739 -34.757782 -56.367798 -34.33078 -76.864136c0.42700195 -20.496399 22.033173 -48.675964 36.892822 -46.113953c14.85968 2.5620728 36.551453 41.246155 52.265106 61.486206c15.713684 20.23999 38.857178 49.022583 42.016937 59.95404c3.1597595 10.931519 -23.05838 4.951477 -23.05838 5.6348267c0 0.6832886 26.474426 9.396545 23.05838 -1.5349731c-3.4160461 -10.9314575 -31.256653 -43.30127 -43.554718 -64.053894c-12.298096 -20.752686 -31.173431 -33.988464 -30.233826 -60.461914c0.9396057 -26.47351 35.358368 -80.87222 35.87146 -98.37903c0.5130615 -17.506805 -22.288544 -18.959503 -32.793 -6.6618958z" fill-rule="evenodd"/><path fill="#000000" d="m312.2396 458.54654c-0.27487183 0.27490234 -44.489594 59.86978 -52.728424 60.419037c-8.238815 0.5492554 -0.18325806 -44.6734 3.2955322 -57.123505c3.4787903 -12.450134 18.126465 -16.29544 17.57721 -17.57721c-0.5492554 -1.2817688 -16.478699 8.696442 -20.872742 9.886597c-4.3940277 1.1901245 -5.3082275 -3.7526245 -5.4914856 -2.745758c-0.18325806 1.006897 3.2017822 -2.198059 4.3919373 8.787018c1.1901245 10.985107 -6.2224426 57.39792 2.7489014 57.123505c8.971313 -0.27435303 51.353973 -59.044586 51.07907 -58.769684z" fill-rule="evenodd"/><path stroke="#000000" stroke-width="28.88976377952756" stroke-linejoin="round" stroke-linecap="butt" d="m312.2396 458.54654c-0.27487183 0.27490234 -44.489594 59.86978 -52.728424 60.419037c-8.238815 0.5492554 -0.18325806 -44.6734 3.2955322 -57.123505c3.4787903 -12.450134 18.126465 -16.29544 17.57721 -17.57721c-0.5492554 -1.2817688 -16.478699 8.696442 -20.872742 9.886597c-4.3940277 1.1901245 -5.3082275 -3.7526245 -5.4914856 -2.745758c-0.18325806 1.006897 3.2017822 -2.198059 4.3919373 8.787018c1.1901245 10.985107 -6.2224426 57.39792 2.7489014 57.123505c8.971313 -0.27435303 51.353973 -59.044586 51.07907 -58.769684z" fill-rule="evenodd"/><path fill="#000000" d="m359.44284 463.8385c-0.27435303 -0.27487183 15.837799 35.333984 17.577179 54.374634c1.7394104 19.04065 -5.9506836 45.67975 -7.140808 59.869263c-1.190155 14.189514 1.2817688 24.99292 0 25.267822c-1.2817688 0.27490234 -5.2187195 -20.688965 -7.6906433 -23.61847c-2.4718933 -2.9295654 -8.147705 7.5062866 -7.140808 6.04126c1.0068665 -1.4650269 9.245697 -3.8463745 13.182098 -14.831421c3.9364014 -10.985107 11.900848 -33.228638 10.436371 -51.0791c-1.464508 -17.850525 -18.949036 -55.749084 -19.223389 -56.023987z" fill-rule="evenodd"/><path stroke="#000000" stroke-width="28.88976377952756" stroke-linejoin="round" stroke-linecap="butt" d="m359.44284 463.8385c-0.27435303 -0.27487183 15.837799 35.333984 17.577179 54.374634c1.7394104 19.04065 -5.9506836 45.67975 -7.140808 59.869263c-1.190155 14.189514 1.2817688 24.99292 0 25.267822c-1.2817688 0.27490234 -5.2187195 -20.688965 -7.6906433 -23.61847c-2.4718933 -2.9295654 -8.147705 7.5062866 -7.140808 6.04126c1.0068665 -1.4650269 9.245697 -3.8463745 13.182098 -14.831421c3.9364014 -10.985107 11.900848 -33.228638 10.436371 -51.0791c-1.464508 -17.850525 -18.949036 -55.749084 -19.223389 -56.023987z" fill-rule="evenodd"/><path fill="#000000" d="m276.34717 243.71982c-16.953094 -8.816528 -31.120346 -21.858658 -48.652985 -10.193665c-17.532639 11.664993 -50.204178 49.68347 -56.542816 80.183624c-6.3386536 30.500183 17.651688 82.136475 18.510971 102.81738c0.8592682 20.680908 -13.602539 21.268127 -13.355331 21.268127c0.24720764 0 15.881027 -0.58721924 14.838623 -21.268127c-1.0424194 -20.680908 -25.132217 -69.08765 -21.09311 -102.81738c4.0391235 -33.729736 40.324677 -65.97571 45.32779 -99.561035c5.003113 -33.585327 -17.96347 -81.26286 -15.309143 -101.95094c2.6543427 -20.688095 22.069061 -29.055138 31.235123 -22.177597c9.166077 6.8775406 18.81749 41.472763 23.761292 63.44284c4.9438324 21.970062 -0.7994995 51.803665 5.901596 68.37756c6.701111 16.573898 22.897736 20.301727 34.304993 31.065842c11.407257 10.764114 37.29306 35.049973 34.13855 33.518875c-3.15448 -1.5311279 -36.112457 -33.888977 -53.06555 -42.705505z" fill-rule="evenodd"/><path stroke="#000000" stroke-width="28.88976377952756" stroke-linejoin="round" stroke-linecap="butt" d="m276.34717 243.71982c-16.953094 -8.816528 -31.120346 -21.858658 -48.652985 -10.193665c-17.532639 11.664993 -50.204178 49.68347 -56.542816 80.183624c-6.3386536 30.500183 17.651688 82.136475 18.510971 102.81738c0.8592682 20.680908 -13.602539 21.268127 -13.355331 21.268127c0.24720764 0 15.881027 -0.58721924 14.838623 -21.268127c-1.0424194 -20.680908 -25.132217 -69.08765 -21.09311 -102.81738c4.0391235 -33.729736 40.324677 -65.97571 45.32779 -99.561035c5.003113 -33.585327 -17.96347 -81.26286 -15.309143 -101.95094c2.6543427 -20.688095 22.069061 -29.055138 31.235123 -22.177597c9.166077 6.8775406 18.81749 41.472763 23.761292 63.44284c4.9438324 21.970062 -0.7994995 51.803665 5.901596 68.37756c6.701111 16.573898 22.897736 20.301727 34.304993 31.065842c11.407257 10.764114 37.29306 35.049973 34.13855 33.518875c-3.15448 -1.5311279 -36.112457 -33.888977 -53.06555 -42.705505z" fill-rule="evenodd"/><path fill="#000000" d="m192.13544 97.49964c-0.53315735 -0.021514893 -42.593597 -7.381531 -55.917374 9.212456c-13.323769 16.593987 -21.557404 70.27829 -24.025246 90.351456c-2.4678497 20.073166 7.4551697 29.562958 9.218185 30.08751c1.7630157 0.5245514 -1.1629105 -22.996704 1.3599243 -26.940186c2.5228271 -3.9434814 14.359489 5.3416595 13.777077 3.2792969c-0.5824127 -2.0623474 -17.749733 0.45474243 -17.27156 -15.653412c0.4781723 -16.10817 7.9974213 -65.93938 20.14058 -80.99556c12.143173 -15.056183 53.25157 -9.320038 52.718414 -9.34156z" fill-rule="evenodd"/><path stroke="#000000" stroke-width="28.88976377952756" stroke-linejoin="round" stroke-linecap="butt" d="m192.13544 97.49964c-0.53315735 -0.021514893 -42.593597 -7.381531 -55.917374 9.212456c-13.323769 16.593987 -21.557404 70.27829 -24.025246 90.351456c-2.4678497 20.073166 7.4551697 29.562958 9.218185 30.08751c1.7630157 0.5245514 -1.1629105 -22.996704 1.3599243 -26.940186c2.5228271 -3.9434814 14.359489 5.3416595 13.777077 3.2792969c-0.5824127 -2.0623474 -17.749733 0.45474243 -17.27156 -15.653412c0.4781723 -16.10817 7.9974213 -65.93938 20.14058 -80.99556c12.143173 -15.056183 53.25157 -9.320038 52.718414 -9.34156z" fill-rule="evenodd"/><path fill="#000000" d="m246.54366 83.155945c0.32756042 -0.44135284 43.428024 -19.144073 67.8181 -15.386604c24.390106 3.7574768 64.283936 28.705116 78.52246 37.931435c14.238525 9.226318 8.483734 17.454216 6.9086304 17.426483c-1.5751038 -0.027740479 -12.58548 -17.303116 -16.359222 -17.592888c-3.7737122 -0.28977203 -5.379425 17.094154 -6.2831726 15.854256c-0.90371704 -1.2398987 11.653046 -14.798454 0.8607178 -23.293648c-10.792328 -8.4951935 -43.70343 -25.187683 -65.614685 -27.67752c-21.911255 -2.4898376 -66.180374 13.17984 -65.85283 12.738487z" fill-rule="evenodd"/><path stroke="#000000" stroke-width="28.88976377952756" stroke-linejoin="round" stroke-linecap="butt" d="m246.54366 83.155945c0.32756042 -0.44135284 43.428024 -19.144073 67.8181 -15.386604c24.390106 3.7574768 64.283936 28.705116 78.52246 37.931435c14.238525 9.226318 8.483734 17.454216 6.9086304 17.426483c-1.5751038 -0.027740479 -12.58548 -17.303116 -16.359222 -17.592888c-3.7737122 -0.28977203 -5.379425 17.094154 -6.2831726 15.854256c-0.90371704 -1.2398987 11.653046 -14.798454 0.8607178 -23.293648c-10.792328 -8.4951935 -43.70343 -25.187683 -65.614685 -27.67752c-21.911255 -2.4898376 -66.180374 13.17984 -65.85283 12.738487z" fill-rule="evenodd"/><path fill="#000000" d="m154.21785 56.499035l0 0c0 -24.556906 19.907303 -44.46421 44.464203 -44.46421l0 0c11.792648 0 23.102295 4.6846094 31.440948 13.023265c8.338654 8.338657 13.02327 19.648304 13.02327 31.440945l0 0c0 24.556904 -19.907303 44.464207 -44.46422 44.464207l0 0c-24.5569 0 -44.464203 -19.907303 -44.464203 -44.464207z" fill-rule="evenodd"/><path stroke="#ffffff" stroke-width="8.745406824146981" stroke-linejoin="round" stroke-linecap="butt" d="m154.21785 56.499035l0 0c0 -24.556906 19.907303 -44.46421 44.464203 -44.46421l0 0c11.792648 0 23.102295 4.6846094 31.440948 13.023265c8.338654 8.338657 13.02327 19.648304 13.02327 31.440945l0 0c0 24.556904 -19.907303 44.464207 -44.46422 44.464207l0 0c-24.5569 0 -44.464203 -19.907303 -44.464203 -44.464207z" fill-rule="evenodd"/><path fill="#000000" d="m493.93234 253.01639c0.48440552 0.22329712 59.856537 12.388458 83.16452 -0.0028686523c23.308044 -12.391342 46.74225 -56.73314 56.68341 -74.34515c9.941223 -17.612015 4.3930054 -30.169266 2.963745 -31.32692c-1.4292603 -1.1576538 -7.7023926 21.698944 -11.539246 24.380997c-3.836853 2.6820679 -11.233215 -10.416962 -11.481873 -8.28862c-0.24865723 2.1283417 16.578674 6.3520355 9.98999 21.05867c-6.588745 14.70665 -27.892212 55.760544 -49.52234 67.18118c-21.630066 11.420654 -80.742584 1.1194 -80.25821 1.3427124z" fill-rule="evenodd"/><path stroke="#000000" stroke-width="28.88976377952756" stroke-linejoin="round" stroke-linecap="butt" d="m493.93234 253.01639c0.48440552 0.22329712 59.856537 12.388458 83.16452 -0.0028686523c23.308044 -12.391342 46.74225 -56.73314 56.68341 -74.34515c9.941223 -17.612015 4.3930054 -30.169266 2.963745 -31.32692c-1.4292603 -1.1576538 -7.7023926 21.698944 -11.539246 24.380997c-3.836853 2.6820679 -11.233215 -10.416962 -11.481873 -8.28862c-0.24865723 2.1283417 16.578674 6.3520355 9.98999 21.05867c-6.588745 14.70665 -27.892212 55.760544 -49.52234 67.18118c-21.630066 11.420654 -80.742584 1.1194 -80.25821 1.3427124z" fill-rule="evenodd"/><path fill="#000000" d="m421.54974 190.72594l0 0c0 -24.55275 19.90393 -44.456696 44.456696 -44.456696l0 0c11.790649 0 23.098389 4.6838226 31.435638 13.021057c8.33725 8.33725 13.021057 19.644989 13.021057 31.435638l0 0c0 24.55275 -19.90393 44.456696 -44.456696 44.456696l0 0c-24.552765 0 -44.456696 -19.903946 -44.456696 -44.456696z" fill-rule="evenodd"/><path stroke="#ffffff" stroke-width="8.745406824146981" stroke-linejoin="round" stroke-linecap="butt" d="m421.54974 190.72594l0 0c0 -24.55275 19.90393 -44.456696 44.456696 -44.456696l0 0c11.790649 0 23.098389 4.6838226 31.435638 13.021057c8.33725 8.33725 13.021057 19.644989 13.021057 31.435638l0 0c0 24.55275 -19.90393 44.456696 -44.456696 44.456696l0 0c-24.552765 0 -44.456696 -19.903946 -44.456696 -44.456696z" fill-rule="evenodd"/><path fill="#ffffff" d="m399.18903 379.3463l0 0c0 -12.9296875 15.475739 -23.411285 34.56607 -23.411285l0 0c19.090302 0 34.56604 10.481598 34.56604 23.411285l0 0c0 12.9296875 -15.475739 23.411255 -34.56604 23.411255l0 0c-19.090332 0 -34.56607 -10.481567 -34.56607 -23.411255z" fill-rule="evenodd"/><path stroke="#000000" stroke-width="14.446194225721785" stroke-linejoin="round" stroke-linecap="butt" d="m399.18903 379.3463l0 0c0 -12.9296875 15.475739 -23.411285 34.56607 -23.411285l0 0c19.090302 0 34.56604 10.481598 34.56604 23.411285l0 0c0 12.9296875 -15.475739 23.411255 -34.56604 23.411255l0 0c-19.090332 0 -34.56607 -10.481567 -34.56607 -23.411255z" fill-rule="evenodd"/><path fill="#ffffff" d="m468.32108 331.24973l0 0c0 -20.202637 24.16159 -36.58011 53.96646 -36.58011l0 0c29.80481 0 53.96643 16.377472 53.96643 36.58011l0 0c0 20.202637 -24.161621 36.58011 -53.96643 36.58011l0 0c-29.80487 0 -53.96646 -16.377472 -53.96646 -36.58011z" fill-rule="evenodd"/><path stroke="#000000" stroke-width="14.446194225721785" stroke-linejoin="round" stroke-linecap="butt" d="m468.32108 331.24973l0 0c0 -20.202637 24.16159 -36.58011 53.96646 -36.58011l0 0c29.80481 0 53.96643 16.377472 53.96643 36.58011l0 0c0 20.202637 -24.161621 36.58011 -53.96643 36.58011l0 0c-29.80487 0 -53.96646 -16.377472 -53.96646 -36.58011z" fill-rule="evenodd"/><path fill="#000000" d="m492.23285 340.6391l0 0c0 -13.965973 11.321655 -25.287628 25.287598 -25.287628l0 0c6.706726 0 13.138733 2.6642456 17.881042 7.4065857c4.7423706 4.74234 7.406616 11.174347 7.406616 17.881042l0 0c0 13.965973 -11.321655 25.287628 -25.287659 25.287628l0 0c-13.965942 0 -25.287598 -11.321655 -25.287598 -25.287628z" fill-rule="evenodd"/><path stroke="#000000" stroke-width="8.745406824146981" stroke-linejoin="round" stroke-linecap="butt" d="m492.23285 340.6391l0 0c0 -13.965973 11.321655 -25.287628 25.287598 -25.287628l0 0c6.706726 0 13.138733 2.6642456 17.881042 7.4065857c4.7423706 4.74234 7.406616 11.174347 7.406616 17.881042l0 0c0 13.965973 -11.321655 25.287628 -25.287659 25.287628l0 0c-13.965942 0 -25.287598 -11.321655 -25.287598 -25.287628z" fill-rule="evenodd"/><path fill="#000000" d="m412.34937 263.9812c0 0 28.374695 -14.508682 28.374695 -14.508682c0 0 -28.374695 14.508682 -28.374695 14.508682z" fill-rule="evenodd"/><path stroke="#000000" stroke-width="26.236220472440944" stroke-linejoin="round" stroke-linecap="butt" d="m412.34937 263.9812c0 0 28.374695 -14.508682 28.374695 -14.508682c0 0 -28.374695 14.508682 -28.374695 14.508682z" fill-rule="evenodd"/><path fill="#000000" d="m451.15616 266.75537c-4.5238953 -1.7590637 0.9152527 -10.300079 5.4928284 -12.696854c4.5775757 -2.3967743 17.448761 -3.44281 21.972687 -1.6837463c4.523926 1.7590637 9.748383 9.841385 5.170807 12.238144c-4.5775757 2.396759 -28.112396 3.9015198 -32.636322 2.142456z" fill-rule="evenodd"/><path stroke="#000000" stroke-width="26.236220472440944" stroke-linejoin="round" stroke-linecap="butt" d="m451.15616 266.75537c-4.5238953 -1.7590637 0.9152527 -10.300079 5.4928284 -12.696854c4.5775757 -2.3967743 17.448761 -3.44281 21.972687 -1.6837463c4.523926 1.7590637 9.748383 9.841385 5.170807 12.238144c-4.5775757 2.396759 -28.112396 3.9015198 -32.636322 2.142456z" fill-rule="evenodd"/><path fill="#000000" d="m325.93283 266.41483c8.688965 3.346466 31.40857 23.045074 31.742767 27.729675c0.33422852 4.684601 -21.048553 3.7243958 -29.737518 0.3779297c-8.688995 -3.3464355 -22.062134 -15.772095 -22.396332 -20.456696c-0.334198 -4.684601 11.702087 -10.9973755 20.391083 -7.6509094z" fill-rule="evenodd"/><path stroke="#000000" stroke-width="2.0" stroke-linejoin="round" stroke-linecap="butt" d="m325.93283 266.41483c8.688965 3.346466 31.40857 23.045074 31.742767 27.729675c0.33422852 4.684601 -21.048553 3.7243958 -29.737518 0.3779297c-8.688995 -3.3464355 -22.062134 -15.772095 -22.396332 -20.456696c-0.334198 -4.684601 11.702087 -10.9973755 20.391083 -7.6509094z" fill-rule="evenodd"/></g></svg>