<svg version="1.1" viewBox="0.0 0.0 883.5170603674541 720.8792650918635" fill="none" stroke="none" stroke-linecap="square" stroke-miterlimit="10" xmlns:xlink="http://www.w3.org/1999/xlink" xmlns="http://www.w3.org/2000/svg"><clipPath id="p.0"><path d="m0 0l883.5171 0l0 720.8793l-883.5171 0l0 -720.8793z" clip-rule="nonzero"/></clipPath><g clip-path="url(#p.0)"><path fill="#000000" fill-opacity="0.0" d="m0 0l883.5171 0l0 720.8793l-883.5171 0z" fill-rule="evenodd"/><path fill="#000000" d="m437.8558 154.7954l0 0c0 -16.055405 13.015472 -29.07087 29.070892 -29.07087l0 0c7.7100525 0 15.10434 3.0628128 20.556183 8.514656c5.4518433 5.4518433 8.514679 12.846146 8.514679 20.556213l0 0c0 16.05539 -13.015472 29.070862 -29.070862 29.070862l0 0c-16.05542 0 -29.070892 -13.015472 -29.070892 -29.070862z" fill-rule="evenodd"/><path stroke="#000000" stroke-width="25.53805774278215" stroke-linejoin="round" stroke-linecap="butt" d="m437.8558 154.7954l0 0c0 -16.055405 13.015472 -29.07087 29.070892 -29.07087l0 0c7.7100525 0 15.10434 3.0628128 20.556183 8.514656c5.4518433 5.4518433 8.514679 12.846146 8.514679 20.556213l0 0c0 16.05539 -13.015472 29.070862 -29.070862 29.070862l0 0c-16.05542 0 -29.070892 -13.015472 -29.070892 -29.070862z" fill-rule="evenodd"/><path fill="#000000" d="m409.3014 560.3099c-0.17059326 -0.7677002 21.012238 8.93396 20.404205 -8.62207c-0.60806274 -17.55597 -24.649597 -63.963226 -24.05249 -96.7139c0.59710693 -32.75064 24.479004 -61.11197 27.635162 -99.79001c3.1561584 -38.67807 -13.218292 -111.127304 -8.698151 -132.27823c4.520111 -21.150925 27.973297 -15.6080475 35.81888 5.372696c7.845581 20.980759 5.3700867 85.544174 11.254608 120.511826c5.8845215 34.96762 23.967194 55.391937 24.05249 89.293945c0.08529663 33.902008 -23.402008 93.35959 -23.54068 114.11813c-0.13867188 20.758545 22.793945 9.153992 22.708649 10.433044c-0.08529663 1.2791138 -23.35913 19.023193 -23.220459 -2.758545c0.13867188 -21.781677 27.378387 -94.1579 24.05249 -127.93173c-3.3258972 -33.773834 -29.594482 -76.75809 -44.007874 -74.71127c-14.413391 2.0467834 -38.975952 53.8154 -42.472443 86.99213c-3.4964905 33.176727 21.482513 92.72089 21.493439 112.06824c0.010925293 19.347351 -21.257233 4.7834473 -21.427826 4.015747z" fill-rule="evenodd"/><path stroke="#000000" stroke-width="25.53805774278215" stroke-linejoin="round" stroke-linecap="butt" d="m409.3014 560.3099c-0.17059326 -0.7677002 21.012238 8.93396 20.404205 -8.62207c-0.60806274 -17.55597 -24.649597 -63.963226 -24.05249 -96.7139c0.59710693 -32.75064 24.479004 -61.11197 27.635162 -99.79001c3.1561584 -38.67807 -13.218292 -111.127304 -8.698151 -132.27823c4.520111 -21.150925 27.973297 -15.6080475 35.81888 5.372696c7.845581 20.980759 5.3700867 85.544174 11.254608 120.511826c5.8845215 34.96762 23.967194 55.391937 24.05249 89.293945c0.08529663 33.902008 -23.402008 93.35959 -23.54068 114.11813c-0.13867188 20.758545 22.793945 9.153992 22.708649 10.433044c-0.08529663 1.2791138 -23.35913 19.023193 -23.220459 -2.758545c0.13867188 -21.781677 27.378387 -94.1579 24.05249 -127.93173c-3.3258972 -33.773834 -29.594482 -76.75809 -44.007874 -74.71127c-14.413391 2.0467834 -38.975952 53.8154 -42.472443 86.99213c-3.4964905 33.176727 21.482513 92.72089 21.493439 112.06824c0.010925293 19.347351 -21.257233 4.7834473 -21.427826 4.015747z" fill-rule="evenodd"/><path fill="#000000" d="m417.59174 201.39896c0 0 -57.35739 66.741455 -47.04724 78.136475c10.31015 11.39502 88.27603 -4.185486 108.90814 -9.766388c20.63211 -5.5809326 15.117218 -23.486893 14.8845215 -23.719177c-0.23272705 -0.23228455 4.3512573 16.744537 -16.280853 22.32547c-20.63211 5.5809326 -97.43439 22.322815 -107.51181 11.160095c-10.077423 -11.16272 47.04724 -78.136475 47.04724 -78.136475z" fill-rule="evenodd"/><path stroke="#000000" stroke-width="25.53805774278215" stroke-linejoin="round" stroke-linecap="butt" d="m417.59174 201.39896c0 0 -57.35739 66.741455 -47.04724 78.136475c10.31015 11.39502 88.27603 -4.185486 108.90814 -9.766388c20.63211 -5.5809326 15.117218 -23.486893 14.8845215 -23.719177c-0.23272705 -0.23228455 4.3512573 16.744537 -16.280853 22.32547c-20.63211 5.5809326 -97.43439 22.322815 -107.51181 11.160095c-10.077423 -11.16272 47.04724 -78.136475 47.04724 -78.136475z" fill-rule="evenodd"/><path fill="#000000" d="m471.02277 218.79567c0.23272705 0.4650116 41.457153 74.46062 31.146973 85.85564c-10.31015 11.39502 -75.02579 -10.618103 -93.00787 -17.485565c-17.982056 -6.867462 -15.117218 -23.486877 -14.884491 -23.719147c0.23269653 -0.2322998 -1.4685059 15.923004 16.280823 22.32544c17.74936 6.402466 80.13779 27.251984 90.21524 16.089264c10.077423 -11.16275 -29.983398 -83.53064 -29.750671 -83.06563z" fill-rule="evenodd"/><path stroke="#000000" stroke-width="25.53805774278215" stroke-linejoin="round" stroke-linecap="butt" d="m471.02277 218.79567c0.23272705 0.4650116 41.457153 74.46062 31.146973 85.85564c-10.31015 11.39502 -75.02579 -10.618103 -93.00787 -17.485565c-17.982056 -6.867462 -15.117218 -23.486877 -14.884491 -23.719147c0.23269653 -0.2322998 -1.4685059 15.923004 16.280823 22.32544c17.74936 6.402466 80.13779 27.251984 90.21524 16.089264c10.077423 -11.16275 -29.983398 -83.53064 -29.750671 -83.06563z" fill-rule="evenodd"/><path fill="#000000" fill-opacity="0.0" d="m452.85718 -12.380577c-1.5476685 14.881015 -0.11941528 64.1671 -9.286072 89.28609c-9.166687 25.118988 -33.68985 42.975502 -45.71393 61.42782c-12.024048 18.452316 -15.597107 22.61943 -26.43045 49.286087c-10.833313 26.666672 -41.42694 88.21393 -38.56955 110.71393c2.8573914 22.5 48.333344 10.000427 55.71393 24.286072c7.3805847 14.285645 -7.6207275 31.546814 -11.43045 61.427826c-3.809723 29.881012 -12.618561 82.02493 -11.427826 117.85828c1.1907349 35.833313 7.8578186 76.18939 18.572174 97.14172c10.714355 20.952332 33.332916 9.524475 45.71393 28.572205c12.381012 19.047668 23.81015 64.1662 28.572174 85.71387c4.762024 21.54773 0 36.31018 0 43.572205" fill-rule="evenodd"/><path stroke="#000000" stroke-width="16.0" stroke-linejoin="round" stroke-linecap="butt" d="m452.85718 -12.380577c-1.5476685 14.881015 -0.11941528 64.1671 -9.286072 89.28609c-9.166687 25.118988 -33.68985 42.975502 -45.71393 61.42782c-12.024048 18.452316 -15.597107 22.61943 -26.43045 49.286087c-10.833313 26.666672 -41.42694 88.21393 -38.56955 110.71393c2.8573914 22.5 48.333344 10.000427 55.71393 24.286072c7.3805847 14.285645 -7.6207275 31.546814 -11.43045 61.427826c-3.809723 29.881012 -12.618561 82.02493 -11.427826 117.85828c1.1907349 35.833313 7.8578186 76.18939 18.572174 97.14172c10.714355 20.952332 33.332916 9.524475 45.71393 28.572205c12.381012 19.047668 23.81015 64.1662 28.572174 85.71387c4.762024 21.54773 0 36.31018 0 43.572205" fill-rule="evenodd"/><path fill="#000000" fill-opacity="0.0" d="m405.71466 774.04724c0.5953369 -15.237976 13.095795 -66.427795 3.572174 -91.427795c-9.523621 -25.0 -44.880585 -25.953247 -60.71393 -58.572205c-15.833313 -32.618958 -30.714325 -98.33246 -34.28607 -137.14172c-3.5717468 -38.809265 15.713043 -66.18985 12.855621 -95.71393c-2.8573914 -29.524048 -25.952728 -52.620728 -30.0 -81.43042c-4.047241 -28.809723 -4.4028625 -58.332916 5.7165527 -91.42784c10.119415 -33.094925 41.071747 -80.1181 55.0 -107.14172c13.928253 -27.023628 22.49826 -31.90464 28.56955 -55.000004c6.0713196 -23.095364 6.5485535 -69.64348 7.8582764 -83.572174" fill-rule="evenodd"/><path stroke="#000000" stroke-width="16.0" stroke-linejoin="round" stroke-linecap="butt" d="m405.71466 774.04724c0.5953369 -15.237976 13.095795 -66.427795 3.572174 -91.427795c-9.523621 -25.0 -44.880585 -25.953247 -60.71393 -58.572205c-15.833313 -32.618958 -30.714325 -98.33246 -34.28607 -137.14172c-3.5717468 -38.809265 15.713043 -66.18985 12.855621 -95.71393c-2.8573914 -29.524048 -25.952728 -52.620728 -30.0 -81.43042c-4.047241 -28.809723 -4.4028625 -58.332916 5.7165527 -91.42784c10.119415 -33.094925 41.071747 -80.1181 55.0 -107.14172c13.928253 -27.023628 22.49826 -31.90464 28.56955 -55.000004c6.0713196 -23.095364 6.5485535 -69.64348 7.8582764 -83.572174" fill-rule="evenodd"/><path fill="#000000" fill-opacity="0.0" d="m338.5734 -43.09449c-0.23843384 12.381018 6.426941 50.119423 -1.4304504 74.28609c-7.8573914 24.166668 -32.975952 43.09493 -45.71393 70.71391c-12.737976 27.61898 -24.642609 63.57174 -30.713898 95.00001c-6.0713043 31.428253 -5.1185455 64.04593 -5.713913 93.56955c-0.59536743 29.52362 -0.35827637 54.405518 2.141739 83.572174c2.5 29.166656 11.310577 53.927826 12.858246 91.427826c1.547699 37.5 -11.905487 99.2861 -3.572174 133.57217c8.3333435 34.28607 42.500458 45.834656 53.572174 72.14435c11.071747 26.309753 10.7152405 71.42828 12.858276 85.71393" fill-rule="evenodd"/><path stroke="#000000" stroke-width="16.0" stroke-linejoin="round" stroke-linecap="butt" d="m338.5734 -43.09449c-0.23843384 12.381018 6.426941 50.119423 -1.4304504 74.28609c-7.8573914 24.166668 -32.975952 43.09493 -45.71393 70.71391c-12.737976 27.61898 -24.642609 63.57174 -30.713898 95.00001c-6.0713043 31.428253 -5.1185455 64.04593 -5.713913 93.56955c-0.59536743 29.52362 -0.35827637 54.405518 2.141739 83.572174c2.5 29.166656 11.310577 53.927826 12.858246 91.427826c1.547699 37.5 -11.905487 99.2861 -3.572174 133.57217c8.3333435 34.28607 42.500458 45.834656 53.572174 72.14435c11.071747 26.309753 10.7152405 71.42828 12.858276 85.71393" fill-rule="evenodd"/><path fill="#000000" fill-opacity="0.0" d="m270.00034 770.47504c0 -13.690247 7.618988 -55.83246 0 -82.14172c-7.618988 -26.309265 -37.856964 -49.99951 -45.713913 -75.71387c-7.856964 -25.714355 0.7152252 -48.095825 -1.4278259 -78.572205c-2.1430511 -30.47638 -9.168411 -64.28607 -11.43045 -104.28607c-2.262024 -40.0 -3.09404 -91.90466 -2.1417236 -135.71393c0.9523163 -43.809265 1.1889648 -91.308395 7.8556366 -127.14172c6.6666718 -35.833344 22.6203 -65.00088 32.144363 -87.85828c9.524063 -22.857391 18.928696 -27.38145 24.999985 -49.286087c6.0713196 -21.904636 9.523193 -68.45145 11.427826 -82.14173" fill-rule="evenodd"/><path stroke="#000000" stroke-width="16.0" stroke-linejoin="round" stroke-linecap="butt" d="m270.00034 770.47504c0 -13.690247 7.618988 -55.83246 0 -82.14172c-7.618988 -26.309265 -37.856964 -49.99951 -45.713913 -75.71387c-7.856964 -25.714355 0.7152252 -48.095825 -1.4278259 -78.572205c-2.1430511 -30.47638 -9.168411 -64.28607 -11.43045 -104.28607c-2.262024 -40.0 -3.09404 -91.90466 -2.1417236 -135.71393c0.9523163 -43.809265 1.1889648 -91.308395 7.8556366 -127.14172c6.6666718 -35.833344 22.6203 -65.00088 32.144363 -87.85828c9.524063 -22.857391 18.928696 -27.38145 24.999985 -49.286087c6.0713196 -21.904636 9.523193 -68.45145 11.427826 -82.14173" fill-rule="evenodd"/><path fill="#000000" fill-opacity="0.0" d="m249.2855 -92.38058c-2.262024 4.7620316 -9.405502 14.881889 -13.572174 28.572178c-4.1666718 13.690289 -5.1185455 32.97463 -11.427826 53.569553c-6.309265 20.594925 -16.665787 40.47594 -26.427826 70.0c-9.762024 29.524063 -25.120285 73.81102 -32.14435 107.14436c-7.024063 33.33333 -7.143051 61.188965 -10.0 92.85565c-2.856964 31.666656 -6.5463715 68.5726 -7.141739 97.14435c-0.5953522 28.571747 1.4269562 51.42914 3.5695648 74.28607c2.1426086 22.856964 7.024048 39.998688 9.286087 62.85565c2.262024 22.856934 1.667099 52.619446 4.286087 74.28607c2.618988 21.666687 5.7134705 35.356995 11.427826 55.71393c5.71434 20.356934 18.096237 40.7135 22.858261 66.427795c4.762024 25.714355 4.7615967 73.21527 5.713913 87.85828" fill-rule="evenodd"/><path stroke="#000000" stroke-width="16.0" stroke-linejoin="round" stroke-linecap="butt" d="m249.2855 -92.38058c-2.262024 4.7620316 -9.405502 14.881889 -13.572174 28.572178c-4.1666718 13.690289 -5.1185455 32.97463 -11.427826 53.569553c-6.309265 20.594925 -16.665787 40.47594 -26.427826 70.0c-9.762024 29.524063 -25.120285 73.81102 -32.14435 107.14436c-7.024063 33.33333 -7.143051 61.188965 -10.0 92.85565c-2.856964 31.666656 -6.5463715 68.5726 -7.141739 97.14435c-0.5953522 28.571747 1.4269562 51.42914 3.5695648 74.28607c2.1426086 22.856964 7.024048 39.998688 9.286087 62.85565c2.262024 22.856934 1.667099 52.619446 4.286087 74.28607c2.618988 21.666687 5.7134705 35.356995 11.427826 55.71393c5.71434 20.356934 18.096237 40.7135 22.858261 66.427795c4.762024 25.714355 4.7615967 73.21527 5.713913 87.85828" fill-rule="evenodd"/><path fill="#000000" fill-opacity="0.0" d="m140.71353 768.3333c0.35739136 -12.023621 4.4063873 -41.070435 2.1443481 -72.14172c-2.262024 -31.07129 -10.597107 -80.35736 -15.71653 -114.28607c-5.119423 -33.92871 -9.286087 -55.35742 -15.0 -89.2861c-5.713913 -33.92868 -16.426506 -80.95276 -19.283463 -114.28607c-2.8569565 -33.333344 -2.6198654 -53.332916 2.1417313 -85.71393c4.761589 -32.381012 19.404198 -72.61986 26.427818 -108.572174c7.023628 -35.952316 11.904198 -79.76071 15.713905 -107.14173c3.809723 -27.381012 3.0966797 -36.90595 7.1443634 -57.144356c4.0476837 -20.238407 14.284775 -53.57174 17.141739 -64.28609" fill-rule="evenodd"/><path stroke="#000000" stroke-width="16.0" stroke-linejoin="round" stroke-linecap="butt" d="m140.71353 768.3333c0.35739136 -12.023621 4.4063873 -41.070435 2.1443481 -72.14172c-2.262024 -31.07129 -10.597107 -80.35736 -15.71653 -114.28607c-5.119423 -33.92871 -9.286087 -55.35742 -15.0 -89.2861c-5.713913 -33.92868 -16.426506 -80.95276 -19.283463 -114.28607c-2.8569565 -33.333344 -2.6198654 -53.332916 2.1417313 -85.71393c4.761589 -32.381012 19.404198 -72.61986 26.427818 -108.572174c7.023628 -35.952316 11.904198 -79.76071 15.713905 -107.14173c3.809723 -27.381012 3.0966797 -36.90595 7.1443634 -57.144356c4.0476837 -20.238407 14.284775 -53.57174 17.141739 -64.28609" fill-rule="evenodd"/><path fill="#000000" fill-opacity="0.0" d="m109.99905 -65.95276c-3.0953674 15.000004 -12.857834 56.66667 -18.572182 90.0c-5.714348 33.333332 -10.952316 78.928696 -15.713905 110.0c-4.7615967 31.071304 -7.855644 48.451447 -12.855644 76.427826c-5.0 27.97638 -13.930012 65.3587 -17.14436 91.43045c-3.2143478 26.071747 -1.1894112 36.42868 -2.1417313 65.0c-0.9523201 28.57129 -6.072178 73.09448 -3.572178 106.427826c2.5 33.333313 13.810146 64.64346 18.572178 93.572174c4.7620316 28.92871 7.1430473 52.38098 9.999996 80.0c2.8569565 27.618958 5.9514465 61.6662 7.141739 85.71393c1.1902847 24.047668 0 48.81012 0 58.572144" fill-rule="evenodd"/><path stroke="#000000" stroke-width="16.0" stroke-linejoin="round" stroke-linecap="butt" d="m109.99905 -65.95276c-3.0953674 15.000004 -12.857834 56.66667 -18.572182 90.0c-5.714348 33.333332 -10.952316 78.928696 -15.713905 110.0c-4.7615967 31.071304 -7.855644 48.451447 -12.855644 76.427826c-5.0 27.97638 -13.930012 65.3587 -17.14436 91.43045c-3.2143478 26.071747 -1.1894112 36.42868 -2.1417313 65.0c-0.9523201 28.57129 -6.072178 73.09448 -3.572178 106.427826c2.5 33.333313 13.810146 64.64346 18.572178 93.572174c4.7620316 28.92871 7.1430473 52.38098 9.999996 80.0c2.8569565 27.618958 5.9514465 61.6662 7.141739 85.71393c1.1902847 24.047668 0 48.81012 0 58.572144" fill-rule="evenodd"/><path fill="#000000" fill-opacity="0.0" d="m698.72296 -93.094864c2.262024 4.7620316 9.405518 14.881889 13.572144 28.572182c4.166687 13.690285 5.1185913 32.974625 11.427856 53.56955c6.309265 20.594925 16.665771 40.47594 26.427795 70.0c9.762024 29.524063 25.1203 73.81103 32.14435 107.144356c7.024109 33.333344 7.1430664 61.18898 10.0 92.85565c2.8569946 31.666656 6.5463867 68.5726 7.1417847 97.14435c0.5953369 28.571747 -1.427002 51.42914 -3.56958 74.2861c-2.1425781 22.856934 -7.024048 39.998688 -9.286072 62.85562c-2.262024 22.856995 -1.6671143 52.619446 -4.286133 74.28607c-2.6189575 21.666687 -5.71344 35.356995 -11.427795 55.71393c-5.7143555 20.356995 -18.096252 40.7135 -22.858276 66.42786c-4.762024 25.714294 -4.7615967 73.21521 -5.713928 87.858215" fill-rule="evenodd"/><path stroke="#000000" stroke-width="16.0" stroke-linejoin="round" stroke-linecap="butt" d="m698.72296 -93.094864c2.262024 4.7620316 9.405518 14.881889 13.572144 28.572182c4.166687 13.690285 5.1185913 32.974625 11.427856 53.56955c6.309265 20.594925 16.665771 40.47594 26.427795 70.0c9.762024 29.524063 25.1203 73.81103 32.14435 107.144356c7.024109 33.333344 7.1430664 61.18898 10.0 92.85565c2.8569946 31.666656 6.5463867 68.5726 7.1417847 97.14435c0.5953369 28.571747 -1.427002 51.42914 -3.56958 74.2861c-2.1425781 22.856934 -7.024048 39.998688 -9.286072 62.85562c-2.262024 22.856995 -1.6671143 52.619446 -4.286133 74.28607c-2.6189575 21.666687 -5.71344 35.356995 -11.427795 55.71393c-5.7143555 20.356995 -18.096252 40.7135 -22.858276 66.42786c-4.762024 25.714294 -4.7615967 73.21521 -5.713928 87.858215" fill-rule="evenodd"/><path fill="#000000" fill-opacity="0.0" d="m807.2949 767.619c-0.35736084 -12.023621 -4.406372 -41.070374 -2.1443481 -72.14172c2.262024 -31.07129 10.597107 -80.35736 15.716553 -114.28607c5.119385 -33.92871 9.286072 -55.35736 15.0 -89.28607c5.713928 -33.92871 16.426514 -80.95276 19.283447 -114.2861c2.8569336 -33.333344 2.619873 -53.332886 -2.1417236 -85.7139c-4.7615967 -32.381042 -19.404175 -72.61987 -26.427795 -108.57219c-7.0236816 -35.952316 -11.904236 -79.76072 -15.713928 -107.14174c-3.8097534 -27.381012 -3.0966797 -36.905945 -7.144348 -57.144356c-4.0477295 -20.238407 -14.28479 -53.57174 -17.141724 -64.28609" fill-rule="evenodd"/><path stroke="#000000" stroke-width="16.0" stroke-linejoin="round" stroke-linecap="butt" d="m807.2949 767.619c-0.35736084 -12.023621 -4.406372 -41.070374 -2.1443481 -72.14172c2.262024 -31.07129 10.597107 -80.35736 15.716553 -114.28607c5.119385 -33.92871 9.286072 -55.35736 15.0 -89.28607c5.713928 -33.92871 16.426514 -80.95276 19.283447 -114.2861c2.8569336 -33.333344 2.619873 -53.332886 -2.1417236 -85.7139c-4.7615967 -32.381042 -19.404175 -72.61987 -26.427795 -108.57219c-7.0236816 -35.952316 -11.904236 -79.76072 -15.713928 -107.14174c-3.8097534 -27.381012 -3.0966797 -36.905945 -7.144348 -57.144356c-4.0477295 -20.238407 -14.28479 -53.57174 -17.141724 -64.28609" fill-rule="evenodd"/><path fill="#000000" fill-opacity="0.0" d="m487.14078 -15.952756c-1.5472412 14.524059 -14.997833 63.096676 -9.283478 87.14436c5.7143555 24.047676 34.641296 31.427818 43.56958 57.141724c8.928223 25.713913 5.833313 69.76073 10.0 97.14174c4.166626 27.381012 16.666626 46.429993 15.0 67.14435c-1.666687 20.714355 -23.095398 34.999146 -25.0 57.141754c-1.9046631 22.142578 13.81012 51.66623 13.572144 75.7139c-0.23797607 24.047668 -15.0 46.31015 -15.0 68.572174c0 22.262024 17.262024 45.95233 15.0 65.0c-2.262024 19.047668 -22.857788 16.309692 -28.572174 49.28607c-5.714325 32.97638 -4.761566 123.81018 -5.7138977 148.5722" fill-rule="evenodd"/><path stroke="#000000" stroke-width="16.0" stroke-linejoin="round" stroke-linecap="butt" d="m487.14078 -15.952756c-1.5472412 14.524059 -14.997833 63.096676 -9.283478 87.14436c5.7143555 24.047676 34.641296 31.427818 43.56958 57.141724c8.928223 25.713913 5.833313 69.76073 10.0 97.14174c4.166626 27.381012 16.666626 46.429993 15.0 67.14435c-1.666687 20.714355 -23.095398 34.999146 -25.0 57.141754c-1.9046631 22.142578 13.81012 51.66623 13.572144 75.7139c-0.23797607 24.047668 -15.0 46.31015 -15.0 68.572174c0 22.262024 17.262024 45.95233 15.0 65.0c-2.262024 19.047668 -22.857788 16.309692 -28.572174 49.28607c-5.714325 32.97638 -4.761566 123.81018 -5.7138977 148.5722" fill-rule="evenodd"/><path fill="#000000" fill-opacity="0.0" d="m529.28485 -31.666666c-0.9522705 13.333332 -12.380554 53.571304 -5.713867 80.0c6.666626 26.4287 34.880554 50.23885 45.713867 78.572174c10.833374 28.333336 15.833801 59.046806 19.286133 91.42782c3.4522705 32.381027 3.5914307 76.30708 1.4277954 102.85826c-2.1635742 26.551178 -12.861755 35.49652 -14.409424 56.448822c-1.5477295 20.952332 5.123352 46.136932 5.123352 69.26511c0 23.128174 -5.123352 43.551605 -5.123352 69.50391c0 25.952332 6.76947 64.22266 5.123352 86.21002c-1.6461182 21.987305 -10.833374 19.285217 -15.0 45.713867c-4.166687 26.42871 -7.3810425 84.28699 -10.0 112.85828c-2.6190186 28.57129 -4.7615967 48.807983 -5.713928 58.56958" fill-rule="evenodd"/><path stroke="#000000" stroke-width="16.0" stroke-linejoin="round" stroke-linecap="butt" d="m529.28485 -31.666666c-0.9522705 13.333332 -12.380554 53.571304 -5.713867 80.0c6.666626 26.4287 34.880554 50.23885 45.713867 78.572174c10.833374 28.333336 15.833801 59.046806 19.286133 91.42782c3.4522705 32.381027 3.5914307 76.30708 1.4277954 102.85826c-2.1635742 26.551178 -12.861755 35.49652 -14.409424 56.448822c-1.5477295 20.952332 5.123352 46.136932 5.123352 69.26511c0 23.128174 -5.123352 43.551605 -5.123352 69.50391c0 25.952332 6.76947 64.22266 5.123352 86.21002c-1.6461182 21.987305 -10.833374 19.285217 -15.0 45.713867c-4.166687 26.42871 -7.3810425 84.28699 -10.0 112.85828c-2.6190186 28.57129 -4.7615967 48.807983 -5.713928 58.56958" fill-rule="evenodd"/><path fill="#000000" fill-opacity="0.0" d="m590.0 787.61945c3.8096924 -16.785645 14.286987 -67.02319 22.858276 -100.71393c8.571289 -33.690735 24.528015 -61.5271 28.569519 -101.43048c4.041565 -39.90332 -5.272522 -91.322815 -4.3201904 -137.98947c0.95233154 -46.666656 9.908997 -101.19946 10.034119 -142.0105c0.12512207 -40.811035 -4.2834473 -64.76071 -9.283447 -102.85565c-5.0 -38.094925 -11.787842 -80.713905 -20.716553 -125.713905c-8.928711 -45.0 -27.3797 -120.2384 -32.85565 -144.28609" fill-rule="evenodd"/><path stroke="#000000" stroke-width="16.0" stroke-linejoin="round" stroke-linecap="butt" d="m590.0 787.61945c3.8096924 -16.785645 14.286987 -67.02319 22.858276 -100.71393c8.571289 -33.690735 24.528015 -61.5271 28.569519 -101.43048c4.041565 -39.90332 -5.272522 -91.322815 -4.3201904 -137.98947c0.95233154 -46.666656 9.908997 -101.19946 10.034119 -142.0105c0.12512207 -40.811035 -4.2834473 -64.76071 -9.283447 -102.85565c-5.0 -38.094925 -11.787842 -80.713905 -20.716553 -125.713905c-8.928711 -45.0 -27.3797 -120.2384 -32.85565 -144.28609" fill-rule="evenodd"/><path fill="#000000" fill-opacity="0.0" d="m657.1417 -67.38058c5.357422 22.856956 21.072632 89.8797 32.14435 137.14172c11.071777 47.26203 28.571777 105.239716 34.286133 146.43045c5.7142944 41.19072 2.237915 63.678024 0 100.71391c-2.237976 37.03586 -11.1658325 85.311005 -13.427856 121.50131c-2.262024 36.190277 1.4273682 66.367004 -0.14434814 95.64041c-1.5717163 29.273376 -2.3814697 42.856934 -9.286072 80.0c-6.904663 37.143066 -26.78479 119.048584 -32.141724 142.85828" fill-rule="evenodd"/><path stroke="#000000" stroke-width="16.0" stroke-linejoin="round" stroke-linecap="butt" d="m657.1417 -67.38058c5.357422 22.856956 21.072632 89.8797 32.14435 137.14172c11.071777 47.26203 28.571777 105.239716 34.286133 146.43045c5.7142944 41.19072 2.237915 63.678024 0 100.71391c-2.237976 37.03586 -11.1658325 85.311005 -13.427856 121.50131c-2.262024 36.190277 1.4273682 66.367004 -0.14434814 95.64041c-1.5717163 29.273376 -2.3814697 42.856934 -9.286072 80.0c-6.904663 37.143066 -26.78479 119.048584 -32.141724 142.85828" fill-rule="evenodd"/></g></svg>