<svg version="1.1" viewBox="0.0 0.0 700.0 721.8031496062993" fill="none" stroke="none" stroke-linecap="square" stroke-miterlimit="10" xmlns:xlink="http://www.w3.org/1999/xlink" xmlns="http://www.w3.org/2000/svg"><clipPath id="p.0"><path d="m0 0l700.0 0l0 721.80316l-700.0 0l0 -721.80316z" clip-rule="nonzero"/></clipPath><g clip-path="url(#p.0)"><path fill="#000000" fill-opacity="0.0" d="m0 0l700.0 0l0 721.80316l-700.0 0z" fill-rule="evenodd"/><path fill="#000000" fill-opacity="0.0" d="m484.4042 678.09186l-330.6457 -197.35434" fill-rule="evenodd"/><path stroke="#000000" stroke-width="25.53805774278215" stroke-linejoin="round" stroke-linecap="butt" d="m484.4042 678.09186l-330.6457 -197.35434" fill-rule="evenodd"/><path fill="#000000" fill-opacity="0.0" d="m416.4777 674.66144l-265.7953 -193.0394" fill-rule="evenodd"/><path stroke="#000000" stroke-width="25.53805774278215" stroke-linejoin="round" stroke-linecap="butt" d="m416.4777 674.66144l-265.7953 -193.0394" fill-rule="evenodd"/><path fill="#000000" d="m397.70358 259.12347l0 0c0 -16.05539 13.015472 -29.070862 29.070862 -29.070862l0 0c7.710083 0 15.10437 3.0628204 20.556213 8.514664c5.4518433 5.4518433 8.514648 12.84613 8.514648 20.556198l0 0c0 16.05539 -13.015442 29.070862 -29.070862 29.070862l0 0c-16.05539 0 -29.070862 -13.015472 -29.070862 -29.070862z" fill-rule="evenodd"/><path stroke="#000000" stroke-width="25.53805774278215" stroke-linejoin="round" stroke-linecap="butt" d="m397.70358 259.12347l0 0c0 -16.05539 13.015472 -29.070862 29.070862 -29.070862l0 0c7.710083 0 15.10437 3.0628204 20.556213 8.514664c5.4518433 5.4518433 8.514648 12.84613 8.514648 20.556198l0 0c0 16.05539 -13.015442 29.070862 -29.070862 29.070862l0 0c-16.05539 0 -29.070862 -13.015472 -29.070862 -29.070862z" fill-rule="evenodd"/><path fill="#000000" d="m381.16986 668.0422c-0.17068481 -0.76727295 39.069916 10.824951 42.073456 -6.3532104c3.0035706 -17.178162 -24.649536 -63.96521 -24.052124 -96.71588c0.5973816 -32.75067 24.480438 -61.11023 27.636475 -99.78821c3.156067 -38.67798 -13.220062 -111.12836 -8.700104 -132.27966c4.5199585 -21.151337 27.973907 -15.608856 35.819824 5.371765c7.8459167 20.980652 5.371002 85.54404 11.255615 120.512024c5.8846436 34.967987 23.966827 55.39392 24.052155 89.2959c0.08532715 33.901978 -26.090088 94.06793 -23.5401 114.11609c2.5499878 20.048218 38.925323 4.893738 38.839966 6.1730957c-0.08532715 1.2792969 -36.802032 22.574463 -39.35202 1.5029297c-2.5499573 -21.071472 27.378113 -94.15802 24.052155 -127.93201c-3.3259583 -33.773956 -29.594604 -76.758545 -44.007874 -74.711914c-14.413269 2.0466003 -38.975098 53.815063 -42.47174 86.99164c-3.496643 33.176636 25.092834 93.09839 21.491882 112.06793c-3.6009521 18.969604 -42.92688 2.5167847 -43.097565 1.7495117z" fill-rule="evenodd"/><path stroke="#000000" stroke-width="25.53805774278215" stroke-linejoin="round" stroke-linecap="butt" d="m381.16986 668.0422c-0.17068481 -0.76727295 39.069916 10.824951 42.073456 -6.3532104c3.0035706 -17.178162 -24.649536 -63.96521 -24.052124 -96.71588c0.5973816 -32.75067 24.480438 -61.11023 27.636475 -99.78821c3.156067 -38.67798 -13.220062 -111.12836 -8.700104 -132.27966c4.5199585 -21.151337 27.973907 -15.608856 35.819824 5.371765c7.8459167 20.980652 5.371002 85.54404 11.255615 120.512024c5.8846436 34.967987 23.966827 55.39392 24.052155 89.2959c0.08532715 33.901978 -26.090088 94.06793 -23.5401 114.11609c2.5499878 20.048218 38.925323 4.893738 38.839966 6.1730957c-0.08532715 1.2792969 -36.802032 22.574463 -39.35202 1.5029297c-2.5499573 -21.071472 27.378113 -94.15802 24.052155 -127.93201c-3.3259583 -33.773956 -29.594604 -76.758545 -44.007874 -74.711914c-14.413269 2.0466003 -38.975098 53.815063 -42.47174 86.99164c-3.496643 33.176636 25.092834 93.09839 21.491882 112.06793c-3.6009521 18.969604 -42.92688 2.5167847 -43.097565 1.7495117z" fill-rule="evenodd"/><path fill="#000000" d="m461.74042 324.80704c0 -0.17068481 44.18094 33.088898 55.780273 62.42749c11.599365 29.338593 12.452026 98.763275 13.815918 113.604065c1.3638916 14.84079 -1.8798828 -22.256805 -5.6325684 -24.559448c-3.7526855 -2.3026733 -16.798096 11.596985 -16.883453 10.743561c-0.08532715 -0.8534241 14.921356 0.59661865 16.37143 -15.864075c1.4500122 -16.460693 2.9039917 -58.508087 -7.6713257 -82.900024c-10.575226 -24.391907 -55.780273 -63.280884 -55.780273 -63.45157z" fill-rule="evenodd"/><path stroke="#000000" stroke-width="25.53805774278215" stroke-linejoin="round" stroke-linecap="butt" d="m461.74042 324.80704c0 -0.17068481 44.18094 33.088898 55.780273 62.42749c11.599365 29.338593 12.452026 98.763275 13.815918 113.604065c1.3638916 14.84079 -1.8798828 -22.256805 -5.6325684 -24.559448c-3.7526855 -2.3026733 -16.798096 11.596985 -16.883453 10.743561c-0.08532715 -0.8534241 14.921356 0.59661865 16.37143 -15.864075c1.4500122 -16.460693 2.9039917 -58.508087 -7.6713257 -82.900024c-10.575226 -24.391907 -55.780273 -63.280884 -55.780273 -63.45157z" fill-rule="evenodd"/><path fill="#000000" d="m406.99207 324.80707c-0.039123535 -0.1661377 -35.41736 42.338318 -39.98065 73.55536c-4.563263 31.217072 10.525604 98.98868 12.600952 113.74701c2.075348 14.758301 -3.2735596 -22.095215 -0.14880371 -25.197021c3.1247559 -3.1018066 19.009949 7.4364624 18.897339 6.586212c-0.11260986 -0.85028076 -14.387268 4.0021057 -19.573029 -11.687775c-5.185791 -15.68988 -16.24234 -56.28427 -11.541626 -82.45157c4.700714 -26.167297 39.784973 -74.38608 39.74582 -74.552216z" fill-rule="evenodd"/><path stroke="#000000" stroke-width="25.53805774278215" stroke-linejoin="round" stroke-linecap="butt" d="m406.99207 324.80707c-0.039123535 -0.1661377 -35.41736 42.338318 -39.98065 73.55536c-4.563263 31.217072 10.525604 98.98868 12.600952 113.74701c2.075348 14.758301 -3.2735596 -22.095215 -0.14880371 -25.197021c3.1247559 -3.1018066 19.009949 7.4364624 18.897339 6.586212c-0.11260986 -0.85028076 -14.387268 4.0021057 -19.573029 -11.687775c-5.185791 -15.68988 -16.24234 -56.28427 -11.541626 -82.45157c4.700714 -26.167297 39.784973 -74.38608 39.74582 -74.552216z" fill-rule="evenodd"/><path fill="#000000" d="m165.17154 493.96475c-7.788269 -2.7817383 -50.604546 -30.226593 -60.05773 -54.695557c-9.453194 -24.468933 -1.7795334 -63.30313 3.3385773 -92.1181c5.1181107 -28.814972 16.810585 -68.36395 27.370079 -80.77164c10.559494 -12.407715 32.64917 -1.3512878 35.986877 6.3254395c3.3377075 7.6767273 -9.8517 18.983398 -15.960632 39.734924c-6.108917 20.751526 -20.025375 60.85431 -20.692917 84.77426c-0.6675415 23.919952 11.685043 42.6203 16.687668 58.745422c5.0026245 16.125092 21.116364 40.786957 13.328079 38.00525z" fill-rule="evenodd"/><path stroke="#000000" stroke-width="23.349081364829395" stroke-linejoin="round" stroke-linecap="butt" d="m165.17154 493.96475c-7.788269 -2.7817383 -50.604546 -30.226593 -60.05773 -54.695557c-9.453194 -24.468933 -1.7795334 -63.30313 3.3385773 -92.1181c5.1181107 -28.814972 16.810585 -68.36395 27.370079 -80.77164c10.559494 -12.407715 32.64917 -1.3512878 35.986877 6.3254395c3.3377075 7.6767273 -9.8517 18.983398 -15.960632 39.734924c-6.108917 20.751526 -20.025375 60.85431 -20.692917 84.77426c-0.6675415 23.919952 11.685043 42.6203 16.687668 58.745422c5.0026245 16.125092 21.116364 40.786957 13.328079 38.00525z" fill-rule="evenodd"/><path fill="#cfe2f3" d="m174.45145 274.90897c0 0 53.699036 9.825897 67.509186 4.1548767c13.81015 -5.671051 11.235336 -22.160553 15.351715 -38.181107c4.1163635 -16.020569 10.021423 -46.6483 9.346436 -57.94226c-0.6749573 -11.293961 -12.728775 -14.383209 -13.396317 -9.821518c-0.6675415 4.561676 11.274704 19.534119 9.3910675 37.19159c-1.8836365 17.657486 -5.9925537 57.986877 -20.692902 68.753296c-14.700348 10.766388 -67.509186 -4.1548767 -67.509186 -4.1548767z" fill-rule="evenodd"/><path stroke="#000000" stroke-width="23.349081364829395" stroke-linejoin="round" stroke-linecap="butt" d="m174.45145 274.90897c0 0 53.699036 9.825897 67.509186 4.1548767c13.81015 -5.671051 11.235336 -22.160553 15.351715 -38.181107c4.1163635 -16.020569 10.021423 -46.6483 9.346436 -57.94226c-0.6749573 -11.293961 -12.728775 -14.383209 -13.396317 -9.821518c-0.6675415 4.561676 11.274704 19.534119 9.3910675 37.19159c-1.8836365 17.657486 -5.9925537 57.986877 -20.692902 68.753296c-14.700348 10.766388 -67.509186 -4.1548767 -67.509186 -4.1548767z" fill-rule="evenodd"/><path fill="#000000" d="m119.83196 207.62727l0 0c0 -14.046295 11.386772 -25.43306 25.433067 -25.43306l0 0c6.74527 0 13.214279 2.6795502 17.983902 7.449173c4.769623 4.769623 7.449173 11.238617 7.449173 17.983887l0 0c0 14.04631 -11.38678 25.433075 -25.433075 25.433075l0 0c-14.046295 0 -25.433067 -11.386765 -25.433067 -25.433075z" fill-rule="evenodd"/><path stroke="#000000" stroke-width="24.84514435695538" stroke-linejoin="round" stroke-linecap="butt" d="m119.83196 207.62727l0 0c0 -14.046295 11.386772 -25.43306 25.433067 -25.43306l0 0c6.74527 0 13.214279 2.6795502 17.983902 7.449173c4.769623 4.769623 7.449173 11.238617 7.449173 17.983887l0 0c0 14.04631 -11.38678 25.433075 -25.433075 25.433075l0 0c-14.046295 0 -25.433067 -11.386765 -25.433067 -25.433075z" fill-rule="evenodd"/><path fill="#ffffff" d="m287.53625 185.98514c9.00293 6.477066 37.067657 31.099182 41.61508 38.86238c4.547455 7.763199 -5.6488647 9.140839 -14.330475 7.716812c-8.68161 -1.4240265 -30.22586 -11.850998 -37.759247 -16.260971c-7.533386 -4.409958 -7.11969 -5.145813 -7.44104 -10.198853c-0.32131958 -5.0530243 2.5271606 -16.766129 5.5131226 -20.11937c2.9859314 -3.3532257 3.3995972 -6.477051 12.402557 0z" fill-rule="evenodd"/><path stroke="#000000" stroke-width="15.566929133858267" stroke-linejoin="round" stroke-linecap="butt" d="m287.53625 185.98514c9.00293 6.477066 37.067657 31.099182 41.61508 38.86238c4.547455 7.763199 -5.6488647 9.140839 -14.330475 7.716812c-8.68161 -1.4240265 -30.22586 -11.850998 -37.759247 -16.260971c-7.533386 -4.409958 -7.11969 -5.145813 -7.44104 -10.198853c-0.32131958 -5.0530243 2.5271606 -16.766129 5.5131226 -20.11937c2.9859314 -3.3532257 3.3995972 -6.477051 12.402557 0z" fill-rule="evenodd"/><path fill="#ffffff" d="m269.5958 182.20998c0 0 -27.606293 -16.94226 -27.606293 -16.94226c0 0 27.606293 16.94226 27.606293 16.94226z" fill-rule="evenodd"/><path stroke="#000000" stroke-width="23.349081364829395" stroke-linejoin="round" stroke-linecap="butt" d="m269.5958 182.20998c0 0 -27.606293 -16.94226 -27.606293 -16.94226c0 0 27.606293 16.94226 27.606293 16.94226z" fill-rule="evenodd"/></g></svg>