<svg version="1.1" viewBox="0.0 0.0 636.3648293963255 722.0787401574803" fill="none" stroke="none" stroke-linecap="square" stroke-miterlimit="10" xmlns:xlink="http://www.w3.org/1999/xlink" xmlns="http://www.w3.org/2000/svg"><clipPath id="p.0"><path d="m0 0l636.3648 0l0 722.07874l-636.3648 0l0 -722.07874z" clip-rule="nonzero"/></clipPath><g clip-path="url(#p.0)"><path fill="#000000" fill-opacity="0.0" d="m0 0l636.3648 0l0 722.07874l-636.3648 0z" fill-rule="evenodd"/><path fill="#000000" d="m160.39081 668.3242c1.1014862 8.110718 -3.1745453 21.129517 0.9553833 26.14441c4.1299133 5.0148315 -2.7130432 3.2873535 23.824142 3.9448242c26.537186 0.65753174 108.55513 0.88500977 135.39894 0c26.843842 -0.88494873 23.156616 0.14788818 25.664062 -5.3096924c2.5074158 -5.4575806 -6.4405212 -12.843384 -10.619446 -27.435669c-4.178894 -14.592346 -12.64566 -41.587524 -14.454041 -60.118103c-1.8084106 -18.53064 -2.2038574 -29.036743 3.6036682 -51.065613c5.8075256 -22.02893 23.03061 -59.27826 31.241455 -81.107635c8.210846 -21.829407 17.322845 -29.04068 18.02362 -49.868774c0.70080566 -20.828094 -3.705597 -53.67148 -13.818878 -75.09973c-10.113312 -21.428253 -30.238861 -39.951874 -46.8609 -53.46982c-16.62204 -13.517944 -30.842072 -22.831573 -52.8714 -27.637787c-22.029297 -4.8062134 -54.071304 -6.6067505 -79.30446 -1.1994934c-25.233154 5.407257 -53.870514 18.623383 -72.09448 33.643066c-18.223976 15.019684 -29.438759 39.251953 -37.249344 56.475067c-7.8105927 17.223083 -9.313213 33.34558 -9.614178 46.863495c-0.30096054 13.517944 11.213039 21.727478 7.808399 34.24411c-3.4046402 12.516602 -22.027996 31.843384 -28.236221 40.85562c-6.2082214 9.012268 -10.815834 9.112427 -9.013123 13.217865c1.8027115 4.1054077 17.025372 5.206482 19.829395 11.414703c2.8040276 6.2082214 -4.3066483 20.32721 -3.005249 25.834656c1.3013992 5.5074463 9.912514 4.8066406 10.813648 7.209961c0.9011383 2.4033203 -6.4081345 3.9059448 -5.406822 7.209961c1.0013123 3.304016 10.513557 6.305786 11.414696 12.614197c0.9011383 6.3084106 -7.3097076 17.625977 -6.0078735 25.236206c1.3018379 7.6102295 4.8070908 16.32019 13.818901 20.42517c9.01181 4.1049805 29.237534 2.2021484 40.25197 4.204773c11.014435 2.0026245 19.125542 1.1019287 25.834648 7.810974c6.709091 6.7091064 11.074356 23.283081 14.419937 32.443604c3.345581 9.160522 4.552063 14.408997 5.653549 22.519653z" fill-rule="evenodd"/><path stroke="#000000" stroke-width="15.669291338582678" stroke-linejoin="round" stroke-linecap="butt" d="m160.39081 668.3242c1.1014862 8.110718 -3.1745453 21.129517 0.9553833 26.14441c4.1299133 5.0148315 -2.7130432 3.2873535 23.824142 3.9448242c26.537186 0.65753174 108.55513 0.88500977 135.39894 0c26.843842 -0.88494873 23.156616 0.14788818 25.664062 -5.3096924c2.5074158 -5.4575806 -6.4405212 -12.843384 -10.619446 -27.435669c-4.178894 -14.592346 -12.64566 -41.587524 -14.454041 -60.118103c-1.8084106 -18.53064 -2.2038574 -29.036743 3.6036682 -51.065613c5.8075256 -22.02893 23.03061 -59.27826 31.241455 -81.107635c8.210846 -21.829407 17.322845 -29.04068 18.02362 -49.868774c0.70080566 -20.828094 -3.705597 -53.67148 -13.818878 -75.09973c-10.113312 -21.428253 -30.238861 -39.951874 -46.8609 -53.46982c-16.62204 -13.517944 -30.842072 -22.831573 -52.8714 -27.637787c-22.029297 -4.8062134 -54.071304 -6.6067505 -79.30446 -1.1994934c-25.233154 5.407257 -53.870514 18.623383 -72.09448 33.643066c-18.223976 15.019684 -29.438759 39.251953 -37.249344 56.475067c-7.8105927 17.223083 -9.313213 33.34558 -9.614178 46.863495c-0.30096054 13.517944 11.213039 21.727478 7.808399 34.24411c-3.4046402 12.516602 -22.027996 31.843384 -28.236221 40.85562c-6.2082214 9.012268 -10.815834 9.112427 -9.013123 13.217865c1.8027115 4.1054077 17.025372 5.206482 19.829395 11.414703c2.8040276 6.2082214 -4.3066483 20.32721 -3.005249 25.834656c1.3013992 5.5074463 9.912514 4.8066406 10.813648 7.209961c0.9011383 2.4033203 -6.4081345 3.9059448 -5.406822 7.209961c1.0013123 3.304016 10.513557 6.305786 11.414696 12.614197c0.9011383 6.3084106 -7.3097076 17.625977 -6.0078735 25.236206c1.3018379 7.6102295 4.8070908 16.32019 13.818901 20.42517c9.01181 4.1049805 29.237534 2.2021484 40.25197 4.204773c11.014435 2.0026245 19.125542 1.1019287 25.834648 7.810974c6.709091 6.7091064 11.074356 23.283081 14.419937 32.443604c3.345581 9.160522 4.552063 14.408997 5.653549 22.519653z" fill-rule="evenodd"/><path fill="#ffffff" d="m163.46648 246.40495c3.3740082 4.908127 16.25766 17.384506 19.018372 25.769028c2.7607117 8.3845215 1.840332 18.70996 -2.454071 24.538055c-4.294403 5.8280945 -15.234467 5.9313354 -23.312332 10.43045c-8.077866 4.499115 -17.383636 8.895447 -25.154861 16.5643c-7.7712097 7.6688538 -17.280396 19.326324 -21.472435 29.448822c-4.1920395 10.122467 -5.622925 21.776886 -3.6797943 31.286072c1.9431381 9.509186 5.9317627 19.736237 15.338585 25.769043c9.40683 6.0328064 28.219162 6.747162 41.102356 10.427826c12.883209 3.680664 24.74498 6.7480164 36.196854 11.656158c11.451889 4.908142 22.39151 11.453186 32.514435 17.792664c10.122925 6.339447 16.259842 17.68808 28.223099 20.24408c11.963257 2.5559998 30.161865 0.61331177 43.556427 -4.908142c13.394592 -5.5214233 29.448822 -17.688965 36.811035 -28.220459c7.362213 -10.531494 9.100616 -21.062561 7.362213 -34.968506c-1.7384338 -13.905945 -10.43045 -33.94751 -17.792664 -48.467194c-7.362213 -14.519684 -24.33551 -27.199036 -26.380585 -38.65091c-2.045044 -11.451874 8.588806 -24.947937 14.1102295 -30.060364c5.521454 -5.1124268 10.429138 0.2038269 19.018372 -0.6141968c8.589264 -0.8180237 35.788727 -0.20428467 32.51706 -4.2939453c-3.271637 -4.089691 -35.6846 -13.802277 -52.146973 -20.24411c-16.462372 -6.441803 -28.017944 -14.929993 -46.62729 -18.406815c-18.60936 -3.4768066 -47.03325 -2.6587982 -65.02887 -2.454071c-17.995636 0.20472717 -35.9917 2.4553833 -42.944885 3.6824188c-6.953186 1.2270355 -2.1483002 -1.2283478 1.2257233 3.6797943z" fill-rule="evenodd"/><path stroke="#ffffff" stroke-width="15.669291338582678" stroke-linejoin="round" stroke-linecap="butt" d="m163.46648 246.40495c3.3740082 4.908127 16.25766 17.384506 19.018372 25.769028c2.7607117 8.3845215 1.840332 18.70996 -2.454071 24.538055c-4.294403 5.8280945 -15.234467 5.9313354 -23.312332 10.43045c-8.077866 4.499115 -17.383636 8.895447 -25.154861 16.5643c-7.7712097 7.6688538 -17.280396 19.326324 -21.472435 29.448822c-4.1920395 10.122467 -5.622925 21.776886 -3.6797943 31.286072c1.9431381 9.509186 5.9317627 19.736237 15.338585 25.769043c9.40683 6.0328064 28.219162 6.747162 41.102356 10.427826c12.883209 3.680664 24.74498 6.7480164 36.196854 11.656158c11.451889 4.908142 22.39151 11.453186 32.514435 17.792664c10.122925 6.339447 16.259842 17.68808 28.223099 20.24408c11.963257 2.5559998 30.161865 0.61331177 43.556427 -4.908142c13.394592 -5.5214233 29.448822 -17.688965 36.811035 -28.220459c7.362213 -10.531494 9.100616 -21.062561 7.362213 -34.968506c-1.7384338 -13.905945 -10.43045 -33.94751 -17.792664 -48.467194c-7.362213 -14.519684 -24.33551 -27.199036 -26.380585 -38.65091c-2.045044 -11.451874 8.588806 -24.947937 14.1102295 -30.060364c5.521454 -5.1124268 10.429138 0.2038269 19.018372 -0.6141968c8.589264 -0.8180237 35.788727 -0.20428467 32.51706 -4.2939453c-3.271637 -4.089691 -35.6846 -13.802277 -52.146973 -20.24411c-16.462372 -6.441803 -28.017944 -14.929993 -46.62729 -18.406815c-18.60936 -3.4768066 -47.03325 -2.6587982 -65.02887 -2.454071c-17.995636 0.20472717 -35.9917 2.4553833 -42.944885 3.6824188c-6.953186 1.2270355 -2.1483002 -1.2283478 1.2257233 3.6797943z" fill-rule="evenodd"/><path fill="#ffffff" d="m579.8092 280.37024l-78.91852 78.91852l0 0c-12.928101 12.928101 -30.462372 20.19104 -48.745483 20.19104c-18.283081 0 -35.817352 -7.2629395 -48.745453 -20.19104l-143.88446 -143.88446c-7.9345703E-4 -8.087158E-4 -7.9345703E-4 -0.0021209717 0 -0.0029296875l176.40945 -176.40651l0 0c8.239746E-4 -8.087158E-4 0.0021362305 -8.087158E-4 0.0029296875 0l143.88153 143.88446l0 0c26.921387 26.921371 26.921387 70.56955 0 97.49092z" fill-rule="evenodd"/><path stroke="#000000" stroke-width="24.0" stroke-linejoin="round" stroke-linecap="butt" d="m579.8092 280.37024l-78.91852 78.91852l0 0c-12.928101 12.928101 -30.462372 20.19104 -48.745483 20.19104c-18.283081 0 -35.817352 -7.2629395 -48.745453 -20.19104l-143.88446 -143.88446c-7.9345703E-4 -8.087158E-4 -7.9345703E-4 -0.0021209717 0 -0.0029296875l176.40945 -176.40651l0 0c8.239746E-4 -8.087158E-4 0.0021362305 -8.087158E-4 0.0029296875 0l143.88153 143.88446l0 0c26.921387 26.921371 26.921387 70.56955 0 97.49092z" fill-rule="evenodd"/><path fill="#000000" d="m211.93343 382.60208c-5.2147827 0.51135254 -13.804016 -19.324158 -17.178467 -32.514435c-3.374466 -13.190308 -4.295288 -26.688538 -3.0682526 -46.62732c1.2270355 -19.938751 1.4322052 -50.10147 10.43045 -73.00523c8.998245 -22.903763 28.221786 -47.341644 43.55905 -64.41733c15.33728 -17.075668 26.590118 -27.244095 48.46457 -38.036743c21.87445 -10.792648 75.624664 -25.901138 82.782166 -26.719162c7.1574707 -0.8180237 -25.119873 9.8937 -39.83728 21.811028c-14.717407 11.91732 -36.197296 36.195976 -48.467194 49.69291c-12.269897 13.496948 -17.177155 20.347778 -25.152222 31.288712c-7.975067 10.9409485 -16.358719 17.894577 -22.698166 34.356964c-6.3394623 16.462372 -12.8845215 46.31932 -15.338593 64.41731c-2.454071 18.097992 2.8635254 30.878387 0.6141815 44.170624c-2.2493439 13.292206 -8.895462 35.07129 -14.110245 35.582672z" fill-rule="evenodd"/><path stroke="#000000" stroke-width="16.0" stroke-linejoin="round" stroke-linecap="butt" d="m211.93343 382.60208c-5.2147827 0.51135254 -13.804016 -19.324158 -17.178467 -32.514435c-3.374466 -13.190308 -4.295288 -26.688538 -3.0682526 -46.62732c1.2270355 -19.938751 1.4322052 -50.10147 10.43045 -73.00523c8.998245 -22.903763 28.221786 -47.341644 43.55905 -64.41733c15.33728 -17.075668 26.590118 -27.244095 48.46457 -38.036743c21.87445 -10.792648 75.624664 -25.901138 82.782166 -26.719162c7.1574707 -0.8180237 -25.119873 9.8937 -39.83728 21.811028c-14.717407 11.91732 -36.197296 36.195976 -48.467194 49.69291c-12.269897 13.496948 -17.177155 20.347778 -25.152222 31.288712c-7.975067 10.9409485 -16.358719 17.894577 -22.698166 34.356964c-6.3394623 16.462372 -12.8845215 46.31932 -15.338593 64.41731c-2.454071 18.097992 2.8635254 30.878387 0.6141815 44.170624c-2.2493439 13.292206 -8.895462 35.07129 -14.110245 35.582672z" fill-rule="evenodd"/><path fill="#000000" d="m369.68585 177.69856l0 0c0 -17.620926 14.284576 -31.905502 31.905518 -31.905502l0 0c8.461853 0 16.577148 3.3614655 22.560577 9.34491c5.9834595 5.983444 9.34491 14.098724 9.34491 22.560593l0 0c0 17.620926 -14.284576 31.905518 -31.905487 31.905518l0 0c-17.620941 0 -31.905518 -14.284592 -31.905518 -31.905518z" fill-rule="evenodd"/><path stroke="#000000" stroke-width="1.0" stroke-linejoin="round" stroke-linecap="butt" d="m369.68585 177.69856l0 0c0 -17.620926 14.284576 -31.905502 31.905518 -31.905502l0 0c8.461853 0 16.577148 3.3614655 22.560577 9.34491c5.9834595 5.983444 9.34491 14.098724 9.34491 22.560593l0 0c0 17.620926 -14.284576 31.905518 -31.905487 31.905518l0 0c-17.620941 0 -31.905518 -14.284592 -31.905518 -31.905518z" fill-rule="evenodd"/><path fill="#cfe2f3" d="m405.79416 173.53494c3.2720947 -0.6395416 35.89151 -1.004364 56.443573 -3.2887115c20.552032 -2.2843323 49.38449 -4.6614075 66.868774 -10.417313c17.484253 -5.755905 29.243225 -16.352585 38.036743 -24.118118c8.793518 -7.765526 13.292664 -13.704727 14.724365 -22.475067c1.4317627 -8.77034 1.7393188 -21.559486 -6.13385 -30.14698c-7.873108 -8.587486 -27.40332 -16.71872 -41.10498 -21.377953c-13.70166 -4.6592293 -31.87793 -5.9838142 -41.10498 -6.577427c-9.22702 -0.5936127 -9.583984 2.0275574 -14.257202 3.015747c-4.6732483 0.9881897 -11.436127 2.624672 -13.782166 2.9133873c-2.3460083 0.28871155 -3.7130432 -0.2699051 -0.2939453 -1.1811028c3.4190674 -0.91119766 11.689392 -3.9510078 20.80838 -4.286091c9.118988 -0.335083 19.052063 -2.2152214 33.90555 2.2755928c14.853455 4.490814 44.98993 15.441822 55.21521 24.669292c10.225281 9.22747 8.897156 20.828957 6.1364746 30.695534c-2.7607422 9.866585 -10.9418335 19.824585 -22.700806 28.503937c-11.758972 8.679352 -28.528015 18.18155 -47.852997 23.572174c-19.325043 5.3906403 -50.612427 7.4011383 -68.09714 8.7716675c-17.48468 1.3705139 -40.0831 0.09098816 -36.811005 -0.5485687z" fill-rule="evenodd"/><path stroke="#000000" stroke-width="24.0" stroke-linejoin="round" stroke-linecap="butt" d="m405.79416 173.53494c3.2720947 -0.6395416 35.89151 -1.004364 56.443573 -3.2887115c20.552032 -2.2843323 49.38449 -4.6614075 66.868774 -10.417313c17.484253 -5.755905 29.243225 -16.352585 38.036743 -24.118118c8.793518 -7.765526 13.292664 -13.704727 14.724365 -22.475067c1.4317627 -8.77034 1.7393188 -21.559486 -6.13385 -30.14698c-7.873108 -8.587486 -27.40332 -16.71872 -41.10498 -21.377953c-13.70166 -4.6592293 -31.87793 -5.9838142 -41.10498 -6.577427c-9.22702 -0.5936127 -9.583984 2.0275574 -14.257202 3.015747c-4.6732483 0.9881897 -11.436127 2.624672 -13.782166 2.9133873c-2.3460083 0.28871155 -3.7130432 -0.2699051 -0.2939453 -1.1811028c3.4190674 -0.91119766 11.689392 -3.9510078 20.80838 -4.286091c9.118988 -0.335083 19.052063 -2.2152214 33.90555 2.2755928c14.853455 4.490814 44.98993 15.441822 55.21521 24.669292c10.225281 9.22747 8.897156 20.828957 6.1364746 30.695534c-2.7607422 9.866585 -10.9418335 19.824585 -22.700806 28.503937c-11.758972 8.679352 -28.528015 18.18155 -47.852997 23.572174c-19.325043 5.3906403 -50.612427 7.4011383 -68.09714 8.7716675c-17.48468 1.3705139 -40.0831 0.09098816 -36.811005 -0.5485687z" fill-rule="evenodd"/></g></svg>