<svg version="1.1" viewBox="0.0 0.0 960.0 720.0" fill="none" stroke="none" stroke-linecap="square" stroke-miterlimit="10" xmlns:xlink="http://www.w3.org/1999/xlink" xmlns="http://www.w3.org/2000/svg"><clipPath id="p.0"><path d="m0 0l960.0 0l0 720.0l-960.0 0l0 -720.0z" clip-rule="nonzero"/></clipPath><g clip-path="url(#p.0)"><path fill="#000000" fill-opacity="0.0" d="m0 0l960.0 0l0 720.0l-960.0 0z" fill-rule="evenodd"/><path fill="#000000" d="m510.56055 382.66013l0 0c16.877808 -16.877777 16.877808 -44.242065 0 -61.119843q-23.278717 -23.278717 -30.559937 -62.554962q-7.2812195 39.276245 -30.559937 62.554962l0 0c-16.877777 16.877777 -16.877777 44.242065 0 61.119843l0 0c16.877777 16.877808 44.242096 16.877808 61.119873 0z" fill-rule="evenodd"/><path stroke="#000000" stroke-width="24.0" stroke-linejoin="round" stroke-linecap="butt" d="m510.56055 382.66013l0 0c16.877808 -16.877777 16.877808 -44.242065 0 -61.119843q-23.278717 -23.278717 -30.559937 -62.554962q-7.2812195 39.276245 -30.559937 62.554962l0 0c-16.877777 16.877777 -16.877777 44.242065 0 61.119843l0 0c16.877777 16.877808 44.242096 16.877808 61.119873 0z" fill-rule="evenodd"/><path fill="#ffffff" d="m471.6364 298.59558c-0.030181885 0.05291748 -3.786499 9.206024 -5.706024 12.2283325c-1.9194946 3.0223083 -3.2593994 3.5673828 -5.811035 5.9055176c-2.5516052 2.3381348 -6.957123 5.5297546 -9.498688 8.123352c-2.5415344 2.593628 -5.7659607 7.5345764 -5.750641 7.438324c0.015319824 -0.09625244 3.2484741 -5.3385925 5.8425293 -8.015747c2.5940247 -2.6771545 7.1552734 -5.752411 9.721771 -8.047241c2.5664978 -2.2948303 3.8101501 -2.78302 5.6771545 -5.7218018c1.8670349 -2.9387512 5.5551453 -11.963684 5.524933 -11.910736z" fill-rule="evenodd"/><path stroke="#ffffff" stroke-width="12.0" stroke-linejoin="round" stroke-linecap="butt" d="m471.6364 298.59558c-0.030181885 0.05291748 -3.786499 9.206024 -5.706024 12.2283325c-1.9194946 3.0223083 -3.2593994 3.5673828 -5.811035 5.9055176c-2.5516052 2.3381348 -6.957123 5.5297546 -9.498688 8.123352c-2.5415344 2.593628 -5.7659607 7.5345764 -5.750641 7.438324c0.015319824 -0.09625244 3.2484741 -5.3385925 5.8425293 -8.015747c2.5940247 -2.6771545 7.1552734 -5.752411 9.721771 -8.047241c2.5664978 -2.2948303 3.8101501 -2.78302 5.6771545 -5.7218018c1.8670349 -2.9387512 5.5551453 -11.963684 5.524933 -11.910736z" fill-rule="evenodd"/><path fill="#000000" d="m510.55356 174.66713l0 0c16.881622 -16.881638 16.881622 -44.252197 0 -61.13385q-23.284058 -23.284058 -30.566956 -62.569283q-7.2828674 39.285225 -30.566925 62.569283l0 0c-16.881653 16.881653 -16.881653 44.252213 0 61.13385l0 0c16.881653 16.881653 44.252228 16.881653 61.13388 0z" fill-rule="evenodd"/><path stroke="#000000" stroke-width="24.0" stroke-linejoin="round" stroke-linecap="butt" d="m510.55356 174.66713l0 0c16.881622 -16.881638 16.881622 -44.252197 0 -61.13385q-23.284058 -23.284058 -30.566956 -62.569283q-7.2828674 39.285225 -30.566925 62.569283l0 0c-16.881653 16.881653 -16.881653 44.252213 0 61.13385l0 0c16.881653 16.881653 44.252228 16.881653 61.13388 0z" fill-rule="evenodd"/><path fill="#ffffff" d="m471.6364 90.595566c-0.030181885 0.05293274 -3.786499 9.206039 -5.706024 12.228348c-1.9194946 3.0223083 -3.2593994 3.5673676 -5.811035 5.90551c-2.5516052 2.33815 -6.957123 5.529747 -9.498688 8.12336c-2.5415344 2.5936203 -5.7659607 7.534561 -5.750641 7.438324c0.015319824 -0.09623718 3.2484741 -5.338585 5.8425293 -8.015747c2.5940247 -2.6771698 7.1552734 -5.752411 9.721771 -8.047249c2.5664978 -2.294838 3.8101501 -2.78302 5.6771545 -5.721779c1.8670349 -2.9387589 5.5551453 -11.963692 5.524933 -11.910767z" fill-rule="evenodd"/><path stroke="#ffffff" stroke-width="12.0" stroke-linejoin="round" stroke-linecap="butt" d="m471.6364 90.595566c-0.030181885 0.05293274 -3.786499 9.206039 -5.706024 12.228348c-1.9194946 3.0223083 -3.2593994 3.5673676 -5.811035 5.90551c-2.5516052 2.33815 -6.957123 5.529747 -9.498688 8.12336c-2.5415344 2.5936203 -5.7659607 7.534561 -5.750641 7.438324c0.015319824 -0.09623718 3.2484741 -5.338585 5.8425293 -8.015747c2.5940247 -2.6771698 7.1552734 -5.752411 9.721771 -8.047249c2.5664978 -2.294838 3.8101501 -2.78302 5.6771545 -5.721779c1.8670349 -2.9387589 5.5551453 -11.963692 5.524933 -11.910767z" fill-rule="evenodd"/><path fill="#000000" d="m471.27695 671.05084c-0.4899292 0.07525635 12.139984 -18.012268 -2.9396362 -15.160095c-15.07962 2.8521118 -85.53412 40.709106 -87.538055 32.27295c-2.0039368 -8.436157 64.16754 -45.534973 75.514435 -82.88977c11.346893 -37.354736 -14.640411 -115.51224 -7.433075 -141.23883c7.207367 -25.726593 42.03894 -34.890656 50.677185 -13.120728c8.638214 21.769897 -12.120758 103.74542 1.1522217 143.74011c13.272949 39.99475 79.911194 86.39551 78.485535 96.22839c-1.4255981 9.832886 -70.56122 -33.812378 -87.03934 -37.231018c-16.47815 -3.418579 -11.558624 16.670166 -11.829407 16.719177c-0.27078247 0.04901123 -6.1224976 -19.66095 10.204712 -16.42517c16.32721 3.2357788 88.44095 42.03894 87.758514 35.839905c-0.68237305 -6.1990356 -59.134277 -72.56738 -91.853 -73.03412c-32.71872 -0.46679688 -101.93262 63.785645 -104.45932 70.23358c-2.5266724 6.447937 74.416016 -28.890198 89.299225 -31.54596c14.883209 -2.6557007 0.4899292 15.536316 0 15.611572z" fill-rule="evenodd"/><path stroke="#000000" stroke-width="24.0" stroke-linejoin="round" stroke-linecap="butt" d="m471.27695 671.05084c-0.4899292 0.07525635 12.139984 -18.012268 -2.9396362 -15.160095c-15.07962 2.8521118 -85.53412 40.709106 -87.538055 32.27295c-2.0039368 -8.436157 64.16754 -45.534973 75.514435 -82.88977c11.346893 -37.354736 -14.640411 -115.51224 -7.433075 -141.23883c7.207367 -25.726593 42.03894 -34.890656 50.677185 -13.120728c8.638214 21.769897 -12.120758 103.74542 1.1522217 143.74011c13.272949 39.99475 79.911194 86.39551 78.485535 96.22839c-1.4255981 9.832886 -70.56122 -33.812378 -87.03934 -37.231018c-16.47815 -3.418579 -11.558624 16.670166 -11.829407 16.719177c-0.27078247 0.04901123 -6.1224976 -19.66095 10.204712 -16.42517c16.32721 3.2357788 88.44095 42.03894 87.758514 35.839905c-0.68237305 -6.1990356 -59.134277 -72.56738 -91.853 -73.03412c-32.71872 -0.46679688 -101.93262 63.785645 -104.45932 70.23358c-2.5266724 6.447937 74.416016 -28.890198 89.299225 -31.54596c14.883209 -2.6557007 0.4899292 15.536316 0 15.611572z" fill-rule="evenodd"/><path fill="#000000" d="m438.62466 445.17972c0.881897 -2.0898132 -16.755463 68.26517 -28.572174 101.237274c-11.816711 32.972107 -27.513123 77.555115 -42.328094 96.5954c-14.814941 19.040222 -43.563416 16.562622 -46.561676 17.646118c-2.99823 1.0834961 24.51532 -7.584839 28.572174 -11.145142c4.056885 -3.5603638 -6.3473206 -9.597534 -4.230957 -10.216797c2.1163635 -0.61932373 7.0529175 19.891052 16.929138 6.5009766c9.87619 -13.390137 29.629486 -53.405334 42.328094 -86.841675c12.698578 -33.43628 32.981598 -111.68634 33.863495 -113.77615z" fill-rule="evenodd"/><path stroke="#000000" stroke-width="24.0" stroke-linejoin="round" stroke-linecap="butt" d="m438.62466 445.17972c0.881897 -2.0898132 -16.755463 68.26517 -28.572174 101.237274c-11.816711 32.972107 -27.513123 77.555115 -42.328094 96.5954c-14.814941 19.040222 -43.563416 16.562622 -46.561676 17.646118c-2.99823 1.0834961 24.51532 -7.584839 28.572174 -11.145142c4.056885 -3.5603638 -6.3473206 -9.597534 -4.230957 -10.216797c2.1163635 -0.61932373 7.0529175 19.891052 16.929138 6.5009766c9.87619 -13.390137 29.629486 -53.405334 42.328094 -86.841675c12.698578 -33.43628 32.981598 -111.68634 33.863495 -113.77615z" fill-rule="evenodd"/><path fill="#000000" d="m520.105 445.17972c-0.881897 -2.0898132 16.755493 68.26517 28.572205 101.237274c11.816711 32.972107 27.513123 77.555115 42.328064 96.5954c14.814941 19.040222 43.563416 16.562622 46.561707 17.646118c2.99823 1.0834961 -24.51532 -7.584839 -28.572205 -11.145142c-4.056885 -3.5603638 6.347351 -9.597534 4.230957 -10.216797c-2.116333 -0.61932373 -7.0529175 19.891052 -16.929138 6.5009766c-9.87616 -13.390137 -29.629456 -53.405334 -42.328064 -86.841675c-12.698608 -33.43628 -32.98163 -111.68634 -33.863525 -113.77615z" fill-rule="evenodd"/><path stroke="#000000" stroke-width="24.0" stroke-linejoin="round" stroke-linecap="butt" d="m520.105 445.17972c-0.881897 -2.0898132 16.755493 68.26517 28.572205 101.237274c11.816711 32.972107 27.513123 77.555115 42.328064 96.5954c14.814941 19.040222 43.563416 16.562622 46.561707 17.646118c2.99823 1.0834961 -24.51532 -7.584839 -28.572205 -11.145142c-4.056885 -3.5603638 6.347351 -9.597534 4.230957 -10.216797c-2.116333 -0.61932373 -7.0529175 19.891052 -16.929138 6.5009766c-9.87616 -13.390137 -29.629456 -53.405334 -42.328064 -86.841675c-12.698608 -33.43628 -32.98163 -111.68634 -33.863525 -113.77615z" fill-rule="evenodd"/><path fill="#000000" d="m606.11835 269.54364l0 0c23.874023 0 43.227783 -19.35373 43.227783 -43.227768q0 -32.9283 22.628845 -65.85661q-32.928345 22.628876 -65.85663 22.628876l0 0c-23.874023 0 -43.227722 19.353714 -43.227722 43.227737l0 0c0 23.874039 19.353699 43.227768 43.227722 43.227768z" fill-rule="evenodd"/><path stroke="#000000" stroke-width="24.0" stroke-linejoin="round" stroke-linecap="butt" d="m606.11835 269.54364l0 0c23.874023 0 43.227783 -19.35373 43.227783 -43.227768q0 -32.9283 22.628845 -65.85661q-32.928345 22.628876 -65.85663 22.628876l0 0c-23.874023 0 -43.227722 19.353714 -43.227722 43.227737l0 0c0 23.874039 19.353699 43.227768 43.227722 43.227768z" fill-rule="evenodd"/><path fill="#000000" d="m755.5378 129.68327l0 0c23.874023 0 43.227722 -19.35373 43.227722 -43.22776q0 -32.928303 22.628906 -65.85661q-32.928345 22.628862 -65.85663 22.628862l0 0c-23.874023 0 -43.227783 19.353725 -43.227783 43.22775l0 0c0 23.874031 19.35376 43.22776 43.227783 43.22776z" fill-rule="evenodd"/><path stroke="#000000" stroke-width="24.0" stroke-linejoin="round" stroke-linecap="butt" d="m755.5378 129.68327l0 0c23.874023 0 43.227722 -19.35373 43.227722 -43.22776q0 -32.928303 22.628906 -65.85661q-32.928345 22.628862 -65.85663 22.628862l0 0c-23.874023 0 -43.227783 19.353725 -43.227783 43.22775l0 0c0 23.874031 19.35376 43.22776 43.227783 43.22776z" fill-rule="evenodd"/><path fill="#000000" d="m603.2832 404.4729l0 0c16.881653 16.881653 44.252197 16.881653 61.13385 0q23.284058 -23.284058 62.569275 -30.566925q-39.285217 -7.2828674 -62.569275 -30.566925l0 0c-16.881653 -16.881653 -44.252197 -16.881653 -61.13385 0l0 0c-16.881653 16.881653 -16.881653 44.252197 0 61.13385z" fill-rule="evenodd"/><path stroke="#000000" stroke-width="24.0" stroke-linejoin="round" stroke-linecap="butt" d="m603.2832 404.4729l0 0c16.881653 16.881653 44.252197 16.881653 61.13385 0q23.284058 -23.284058 62.569275 -30.566925q-39.285217 -7.2828674 -62.569275 -30.566925l0 0c-16.881653 -16.881653 -44.252197 -16.881653 -61.13385 0l0 0c-16.881653 16.881653 -16.881653 44.252197 0 61.13385z" fill-rule="evenodd"/><path fill="#000000" d="m811.2832 404.4729l0 0c16.881653 16.881653 44.252197 16.881653 61.13385 0q23.284058 -23.284058 62.569275 -30.566925q-39.285217 -7.2828674 -62.569275 -30.566925l0 0c-16.881653 -16.881653 -44.252197 -16.881653 -61.13385 0l0 0c-16.881653 16.881653 -16.881653 44.252197 0 61.13385z" fill-rule="evenodd"/><path stroke="#000000" stroke-width="24.0" stroke-linejoin="round" stroke-linecap="butt" d="m811.2832 404.4729l0 0c16.881653 16.881653 44.252197 16.881653 61.13385 0q23.284058 -23.284058 62.569275 -30.566925q-39.285217 -7.2828674 -62.569275 -30.566925l0 0c-16.881653 -16.881653 -44.252197 -16.881653 -61.13385 0l0 0c-16.881653 16.881653 -16.881653 44.252197 0 61.13385z" fill-rule="evenodd"/><path fill="#000000" d="m352.5285 269.54364l0 0c-23.874054 0 -43.227753 -19.35373 -43.227753 -43.227768q0 -32.9283 -22.628876 -65.85661q32.928314 22.628876 65.85663 22.628876l0 0c23.874023 0 43.227722 19.353714 43.227722 43.227737l0 0c0 23.874039 -19.353699 43.227768 -43.227722 43.227768z" fill-rule="evenodd"/><path stroke="#000000" stroke-width="24.0" stroke-linejoin="round" stroke-linecap="butt" d="m352.5285 269.54364l0 0c-23.874054 0 -43.227753 -19.35373 -43.227753 -43.227768q0 -32.9283 -22.628876 -65.85661q32.928314 22.628876 65.85663 22.628876l0 0c23.874023 0 43.227722 19.353714 43.227722 43.227737l0 0c0 23.874039 -19.353699 43.227768 -43.227722 43.227768z" fill-rule="evenodd"/><path fill="#000000" d="m203.10907 129.68327l0 0c-23.874023 0 -43.227753 -19.35373 -43.227753 -43.22776q0 -32.928303 -22.62886 -65.85661q32.928314 22.628862 65.85661 22.628862l0 0c23.874023 0 43.227753 19.353725 43.227753 43.22775l0 0c0 23.874031 -19.35373 43.22776 -43.227753 43.22776z" fill-rule="evenodd"/><path stroke="#000000" stroke-width="24.0" stroke-linejoin="round" stroke-linecap="butt" d="m203.10907 129.68327l0 0c-23.874023 0 -43.227753 -19.35373 -43.227753 -43.22776q0 -32.928303 -22.62886 -65.85661q32.928314 22.628862 65.85661 22.628862l0 0c23.874023 0 43.227753 19.353725 43.227753 43.22775l0 0c0 23.874031 -19.35373 43.22776 -43.227753 43.22776z" fill-rule="evenodd"/><path fill="#000000" d="m355.36365 404.4729l0 0c-16.881653 16.881653 -44.252228 16.881653 -61.13388 0q-23.284027 -23.284058 -62.56926 -30.566925q39.285233 -7.2828674 62.56926 -30.566925l0 0c16.881653 -16.881653 44.252228 -16.881653 61.13388 0l0 0c16.881653 16.881653 16.881653 44.252197 0 61.13385z" fill-rule="evenodd"/><path stroke="#000000" stroke-width="24.0" stroke-linejoin="round" stroke-linecap="butt" d="m355.36365 404.4729l0 0c-16.881653 16.881653 -44.252228 16.881653 -61.13388 0q-23.284027 -23.284058 -62.56926 -30.566925q39.285233 -7.2828674 62.56926 -30.566925l0 0c16.881653 -16.881653 44.252228 -16.881653 61.13388 0l0 0c16.881653 16.881653 16.881653 44.252197 0 61.13385z" fill-rule="evenodd"/><path fill="#ffffff" d="m271.29208 365.5558c0.05291748 -0.030181885 9.206024 -3.7865295 12.2283325 -5.706024c3.0223083 -1.9195251 3.5673828 -3.2593994 5.9055176 -5.811035c2.3381348 -2.5516052 5.5297546 -6.957123 8.123352 -9.498688c2.593628 -2.541565 7.5345764 -5.7659607 7.438324 -5.750641c-0.09625244 0.015289307 -5.3385925 3.2484741 -8.015747 5.842499c-2.6771545 2.5940552 -5.752411 7.155304 -8.047241 9.721802c-2.2948303 2.5664978 -2.78302 3.8101501 -5.7218018 5.6771545c-2.9387512 1.8670349 -11.963684 5.5551147 -11.910736 5.524933z" fill-rule="evenodd"/><path stroke="#ffffff" stroke-width="12.0" stroke-linejoin="round" stroke-linecap="butt" d="m271.29208 365.5558c0.05291748 -0.030181885 9.206024 -3.7865295 12.2283325 -5.706024c3.0223083 -1.9195251 3.5673828 -3.2593994 5.9055176 -5.811035c2.3381348 -2.5516052 5.5297546 -6.957123 8.123352 -9.498688c2.593628 -2.541565 7.5345764 -5.7659607 7.438324 -5.750641c-0.09625244 0.015289307 -5.3385925 3.2484741 -8.015747 5.842499c-2.6771545 2.5940552 -5.752411 7.155304 -8.047241 9.721802c-2.2948303 2.5664978 -2.78302 3.8101501 -5.7218018 5.6771545c-2.9387512 1.8670349 -11.963684 5.5551147 -11.910736 5.524933z" fill-rule="evenodd"/><path fill="#000000" d="m147.36363 404.4729l0 0c-16.881638 16.881653 -44.252205 16.881653 -61.13385 0q-23.284054 -23.284058 -62.569283 -30.566925q39.28523 -7.2828674 62.569283 -30.566925l0 0c16.881645 -16.881653 44.252213 -16.881653 61.13385 0l0 0c16.881653 16.881653 16.881653 44.252197 0 61.13385z" fill-rule="evenodd"/><path stroke="#000000" stroke-width="24.0" stroke-linejoin="round" stroke-linecap="butt" d="m147.36363 404.4729l0 0c-16.881638 16.881653 -44.252205 16.881653 -61.13385 0q-23.284054 -23.284058 -62.569283 -30.566925q39.28523 -7.2828674 62.569283 -30.566925l0 0c16.881645 -16.881653 44.252213 -16.881653 61.13385 0l0 0c16.881653 16.881653 16.881653 44.252197 0 61.13385z" fill-rule="evenodd"/><path fill="#ffffff" d="m63.292072 365.5558c0.052928925 -0.030181885 9.206036 -3.7865295 12.228344 -5.706024c3.0223083 -1.9195251 3.5673676 -3.2593994 5.90551 -5.811035c2.33815 -2.5516052 5.529747 -6.957123 8.12336 -9.498688c2.5936203 -2.541565 7.534561 -5.7659607 7.438324 -5.750641c-0.09623718 0.015289307 -5.338585 3.2484741 -8.015747 5.842499c-2.6771698 2.5940552 -5.7524033 7.155304 -8.047249 9.721802c-2.294838 2.5664978 -2.78302 3.8101501 -5.721779 5.6771545c-2.9387589 1.8670349 -11.963696 5.5551147 -11.910763 5.524933z" fill-rule="evenodd"/><path stroke="#ffffff" stroke-width="12.0" stroke-linejoin="round" stroke-linecap="butt" d="m63.292072 365.5558c0.052928925 -0.030181885 9.206036 -3.7865295 12.228344 -5.706024c3.0223083 -1.9195251 3.5673676 -3.2593994 5.90551 -5.811035c2.33815 -2.5516052 5.529747 -6.957123 8.12336 -9.498688c2.5936203 -2.541565 7.534561 -5.7659607 7.438324 -5.750641c-0.09623718 0.015289307 -5.338585 3.2484741 -8.015747 5.842499c-2.6771698 2.5940552 -5.7524033 7.155304 -8.047249 9.721802c-2.294838 2.5664978 -2.78302 3.8101501 -5.721779 5.6771545c-2.9387589 1.8670349 -11.963696 5.5551147 -11.910763 5.524933z" fill-rule="evenodd"/><path fill="#ffffff" d="m595.8808 364.0315c0.11242676 -0.22485352 3.0722046 -9.737091 6.0682373 -13.931763c2.9960938 -4.1946716 7.0393677 -8.764221 11.908142 -11.236206c4.8687744 -2.4720154 17.192017 -3.5957947 17.304443 -3.5957947c0.11242676 0 -11.648743 0.8989258 -16.629883 3.5957947c-4.981201 2.6968384 -10.148743 8.390625 -13.257263 12.585297c-3.1084595 4.1946716 -5.5061035 12.807526 -5.3936768 12.582672z" fill-rule="evenodd"/><path stroke="#ffffff" stroke-width="12.0" stroke-linejoin="round" stroke-linecap="butt" d="m595.8808 364.0315c0.11242676 -0.22485352 3.0722046 -9.737091 6.0682373 -13.931763c2.9960938 -4.1946716 7.0393677 -8.764221 11.908142 -11.236206c4.8687744 -2.4720154 17.192017 -3.5957947 17.304443 -3.5957947c0.11242676 0 -11.648743 0.8989258 -16.629883 3.5957947c-4.981201 2.6968384 -10.148743 8.390625 -13.257263 12.585297c-3.1084595 4.1946716 -5.5061035 12.807526 -5.3936768 12.582672z" fill-rule="evenodd"/><path fill="#ffffff" d="m804.9858 366.42783c0.11242676 -0.22485352 3.0722046 -9.737091 6.0682373 -13.931763c2.9960938 -4.1946716 7.0393677 -8.764221 11.908142 -11.236206c4.8687744 -2.4720154 17.192017 -3.5958252 17.304443 -3.5958252c0.11242676 0 -11.648682 0.8989563 -16.629883 3.5958252c-4.981201 2.6968384 -10.148743 8.390625 -13.257263 12.585297c-3.1084595 4.194641 -5.5061035 12.807526 -5.3936768 12.582672z" fill-rule="evenodd"/><path stroke="#ffffff" stroke-width="12.0" stroke-linejoin="round" stroke-linecap="butt" d="m804.9858 366.42783c0.11242676 -0.22485352 3.0722046 -9.737091 6.0682373 -13.931763c2.9960938 -4.1946716 7.0393677 -8.764221 11.908142 -11.236206c4.8687744 -2.4720154 17.192017 -3.5958252 17.304443 -3.5958252c0.11242676 0 -11.648682 0.8989563 -16.629883 3.5958252c-4.981201 2.6968384 -10.148743 8.390625 -13.257263 12.585297c-3.1084595 4.194641 -5.5061035 12.807526 -5.3936768 12.582672z" fill-rule="evenodd"/><path fill="#ffffff" d="m570.1134 207.97948c-0.3619995 0.30708313 2.9870605 -4.618561 6.5117188 -7.4897614c3.5246582 -2.8712158 8.510315 -8.13414 14.63623 -9.737488c6.1258545 -1.6033325 21.786133 0.22459412 22.11908 0.11743164c0.3330078 -0.107177734 -14.357361 -2.0566711 -20.121277 -0.7604065c-5.763916 1.2962646 -10.604614 5.5596313 -14.462219 8.537994c-3.857666 2.9783783 -8.321594 9.025162 -8.683533 9.33223z" fill-rule="evenodd"/><path stroke="#ffffff" stroke-width="12.0" stroke-linejoin="round" stroke-linecap="butt" d="m570.1134 207.97948c-0.3619995 0.30708313 2.9870605 -4.618561 6.5117188 -7.4897614c3.5246582 -2.8712158 8.510315 -8.13414 14.63623 -9.737488c6.1258545 -1.6033325 21.786133 0.22459412 22.11908 0.11743164c0.3330078 -0.107177734 -14.357361 -2.0566711 -20.121277 -0.7604065c-5.763916 1.2962646 -10.604614 5.5596313 -14.462219 8.537994c-3.857666 2.9783783 -8.321594 9.025162 -8.683533 9.33223z" fill-rule="evenodd"/><path fill="#ffffff" d="m723.15533 68.64265c-0.33721924 0.33411407 2.6218262 -4.835579 5.9144897 -7.9704285c3.2927246 -3.1348495 7.857483 -8.767178 13.841614 -10.838669c5.984192 -2.0714912 21.739563 -1.457737 22.063293 -1.5902863c0.32373047 -0.13254929 -14.473999 -0.94239044 -20.12091 0.7949829c-5.6469727 1.7373772 -10.144409 6.3618774 -13.760803 9.629276c-3.616394 3.2673988 -7.600464 9.641003 -7.937683 9.975124z" fill-rule="evenodd"/><path stroke="#ffffff" stroke-width="12.0" stroke-linejoin="round" stroke-linecap="butt" d="m723.15533 68.64265c-0.33721924 0.33411407 2.6218262 -4.835579 5.9144897 -7.9704285c3.2927246 -3.1348495 7.857483 -8.767178 13.841614 -10.838669c5.984192 -2.0714912 21.739563 -1.457737 22.063293 -1.5902863c0.32373047 -0.13254929 -14.473999 -0.94239044 -20.12091 0.7949829c-5.6469727 1.7373772 -10.144409 6.3618774 -13.760803 9.629276c-3.616394 3.2673988 -7.600464 9.641003 -7.937683 9.975124z" fill-rule="evenodd"/><path fill="#ffffff" d="m300.52756 171.98924c0.18722534 -0.122406006 9.66098 6.8901825 14.829407 9.051315c5.168396 2.1611176 16.368317 3.793045 16.181091 3.9154663c-0.18722534 0.122406006 -12.136047 -1.0198364 -17.304474 -3.1809692c-5.168396 -2.1611176 -13.8932495 -9.663391 -13.706024 -9.785812z" fill-rule="evenodd"/><path stroke="#ffffff" stroke-width="12.0" stroke-linejoin="round" stroke-linecap="butt" d="m300.52756 171.98924c0.18722534 -0.122406006 9.66098 6.8901825 14.829407 9.051315c5.168396 2.1611176 16.368317 3.793045 16.181091 3.9154663c-0.18722534 0.122406006 -12.136047 -1.0198364 -17.304474 -3.1809692c-5.168396 -2.1611176 -13.8932495 -9.663391 -13.706024 -9.785812z" fill-rule="evenodd"/><path fill="#ffffff" d="m149.28609 30.201847c0.18722534 -0.12241745 9.66098 6.890175 14.8293915 9.051304c5.1684265 2.161129 16.368332 3.7930489 16.181107 3.9154663c-0.18722534 0.12241745 -12.136047 -1.0198326 -17.304459 -3.1809578c-5.1684113 -2.161129 -13.893265 -9.663393 -13.706039 -9.785812z" fill-rule="evenodd"/><path stroke="#ffffff" stroke-width="12.0" stroke-linejoin="round" stroke-linecap="butt" d="m149.28609 30.201847c0.18722534 -0.12241745 9.66098 6.890175 14.8293915 9.051304c5.1684265 2.161129 16.368332 3.7930489 16.181107 3.9154663c-0.18722534 0.12241745 -12.136047 -1.0198326 -17.304459 -3.1809578c-5.1684113 -2.161129 -13.893265 -9.663393 -13.706039 -9.785812z" fill-rule="evenodd"/></g></svg>