<svg version="1.1" viewBox="0.0 0.0 647.9448818897638 620.5485564304462" fill="none" stroke="none" stroke-linecap="square" stroke-miterlimit="10" xmlns:xlink="http://www.w3.org/1999/xlink" xmlns="http://www.w3.org/2000/svg"><clipPath id="p.0"><path d="m0 0l647.9449 0l0 620.5486l-647.9449 0l0 -620.5486z" clip-rule="nonzero"/></clipPath><g clip-path="url(#p.0)"><path fill="#000000" fill-opacity="0.0" d="m0 0l647.9449 0l0 620.5486l-647.9449 0z" fill-rule="evenodd"/><path fill="#000000" fill-opacity="0.0" d="m26.19685 272.0l336.0315 0l0 336.0315l-336.0315 0z" fill-rule="evenodd"/><path stroke="#000000" stroke-width="16.0" stroke-linejoin="round" stroke-linecap="butt" d="m26.19685 272.0l336.0315 0l0 336.0315l-336.0315 0z" fill-rule="evenodd"/><path fill="#000000" fill-opacity="0.0" d="m362.22833 431.36746l176.66144 0l0 176.6614l-176.66144 0z" fill-rule="evenodd"/><path stroke="#000000" stroke-width="16.0" stroke-linejoin="round" stroke-linecap="butt" d="m362.22833 431.36746l176.66144 0l0 176.6614l-176.66144 0z" fill-rule="evenodd"/><path fill="#000000" fill-opacity="0.0" d="m362.22833 343.5958l87.77954 0l0 87.77954l-87.77954 0z" fill-rule="evenodd"/><path stroke="#000000" stroke-width="16.0" stroke-linejoin="round" stroke-linecap="butt" d="m362.22833 343.5958l87.77954 0l0 87.77954l-87.77954 0z" fill-rule="evenodd"/><path fill="#000000" fill-opacity="0.0" d="m538.8898 520.25195l87.77954 0l0 87.77954l-87.77954 0z" fill-rule="evenodd"/><path stroke="#000000" stroke-width="16.0" stroke-linejoin="round" stroke-linecap="butt" d="m538.8898 520.25195l87.77954 0l0 87.77954l-87.77954 0z" fill-rule="evenodd"/><path fill="#000000" d="m337.97357 366.7288c0.5933838 -9.755188 -46.46115 -27.504242 -65.152405 -25.607391c-18.691269 1.8968201 -46.401825 27.233246 -46.995193 36.988464c-0.59336853 9.755188 24.743683 23.439575 43.43495 21.542725c18.691254 -1.8968506 68.11929 -23.16861 68.71265 -32.923798z" fill-rule="evenodd"/><path stroke="#000000" stroke-width="19.509186351706038" stroke-linejoin="round" stroke-linecap="butt" d="m337.97357 366.7288c0.5933838 -9.755188 -46.46115 -27.504242 -65.152405 -25.607391c-18.691269 1.8968201 -46.401825 27.233246 -46.995193 36.988464c-0.59336853 9.755188 24.743683 23.439575 43.43495 21.542725c18.691254 -1.8968506 68.11929 -23.16861 68.71265 -32.923798z" fill-rule="evenodd"/><path fill="#cfe2f3" d="m197.3761 360.42734c0.3643341 -0.23684692 42.8145 86.24133 57.3118 109.34274c14.497314 23.10138 27.775238 15.784454 29.672058 29.265594c1.8968506 13.48111 -6.5029297 43.289215 -18.290985 51.621246c-11.788071 8.332031 -52.233627 -1.5612793 -52.437393 -1.6290283c-0.20378113 -0.06774902 39.22403 9.148682 51.214798 1.2225952c11.990753 -7.9261475 22.7872 -35.60266 20.729797 -48.779205c-2.0574036 -13.176575 -18.374207 -6.7728577 -33.074234 -30.280182c-14.700012 -23.507324 -55.490158 -110.52692 -55.12584 -110.76376z" fill-rule="evenodd"/><path stroke="#000000" stroke-width="19.509186351706038" stroke-linejoin="round" stroke-linecap="butt" d="m197.3761 360.42734c0.3643341 -0.23684692 42.8145 86.24133 57.3118 109.34274c14.497314 23.10138 27.775238 15.784454 29.672058 29.265594c1.8968506 13.48111 -6.5029297 43.289215 -18.290985 51.621246c-11.788071 8.332031 -52.233627 -1.5612793 -52.437393 -1.6290283c-0.20378113 -0.06774902 39.22403 9.148682 51.214798 1.2225952c11.990753 -7.9261475 22.7872 -35.60266 20.729797 -48.779205c-2.0574036 -13.176575 -18.374207 -6.7728577 -33.074234 -30.280182c-14.700012 -23.507324 -55.490158 -110.52692 -55.12584 -110.76376z" fill-rule="evenodd"/><path fill="#000000" d="m50.232372 366.7288c-0.59337234 -9.755188 46.461155 -27.504242 65.15242 -25.607391c18.691269 1.8968201 46.40181 27.233246 46.99518 36.988464c0.5933838 9.755188 -24.743668 23.439575 -43.434937 21.542725c-18.691269 -1.8968506 -68.11929 -23.16861 -68.71266 -32.923798z" fill-rule="evenodd"/><path stroke="#000000" stroke-width="19.509186351706038" stroke-linejoin="round" stroke-linecap="butt" d="m50.232372 366.7288c-0.59337234 -9.755188 46.461155 -27.504242 65.15242 -25.607391c18.691269 1.8968201 46.40181 27.233246 46.99518 36.988464c0.5933838 9.755188 -24.743668 23.439575 -43.434937 21.542725c-18.691269 -1.8968506 -68.11929 -23.16861 -68.71266 -32.923798z" fill-rule="evenodd"/><path fill="#ffffff" d="m95.84511 373.76035l0 0c0 -14.434235 11.701256 -26.135498 26.13549 -26.135498l0 0c6.9315567 0 13.579216 2.7535706 18.480583 7.654907c4.901352 4.901367 7.654907 11.549011 7.654907 18.48059l0 0c0 14.434235 -11.701263 26.135498 -26.13549 26.135498l0 0c-14.434235 0 -26.13549 -11.701263 -26.13549 -26.135498z" fill-rule="evenodd"/><path fill="#ffffff" d="m241.76665 373.76035l0 0c0 -14.434235 11.701248 -26.135498 26.135483 -26.135498l0 0c6.931549 0 13.579224 2.7535706 18.48059 7.654907c4.9013367 4.901367 7.654907 11.549011 7.654907 18.48059l0 0c0 14.434235 -11.701263 26.135498 -26.135498 26.135498l0 0c-14.434235 0 -26.135483 -11.701263 -26.135483 -26.135498z" fill-rule="evenodd"/><path fill="#cfe2f3" d="m407.8908 373.09973c0.04812622 0 -3.3613281 9.544189 -5.979004 13.758545c-2.6176758 4.214325 -7.4816284 7.3005066 -9.72702 11.527557c-2.2454224 4.2270203 -4.61026 11.817139 -3.7454224 13.834625c0.86483765 2.017517 5.680237 -1.3932495 8.934387 -1.7296448c3.2541504 -0.33639526 10.78302 -0.3486328 10.590546 -0.2887268c-0.19247437 0.059936523 -8.562988 0.2760315 -11.745392 0.6483154c-3.182434 0.37225342 -6.7489014 3.9147034 -7.3490906 1.5852966c-0.6001892 -2.3294067 1.6224976 -11.298767 3.7480164 -15.561676c2.1255493 -4.262909 6.459778 -6.0533752 9.00528 -10.015747c2.5454712 -3.9624023 6.219574 -13.758545 6.2677 -13.758545z" fill-rule="evenodd"/><path stroke="#000000" stroke-width="8.0" stroke-linejoin="round" stroke-linecap="butt" d="m407.8908 373.09973c0.04812622 0 -3.3613281 9.544189 -5.979004 13.758545c-2.6176758 4.214325 -7.4816284 7.3005066 -9.72702 11.527557c-2.2454224 4.2270203 -4.61026 11.817139 -3.7454224 13.834625c0.86483765 2.017517 5.680237 -1.3932495 8.934387 -1.7296448c3.2541504 -0.33639526 10.78302 -0.3486328 10.590546 -0.2887268c-0.19247437 0.059936523 -8.562988 0.2760315 -11.745392 0.6483154c-3.182434 0.37225342 -6.7489014 3.9147034 -7.3490906 1.5852966c-0.6001892 -2.3294067 1.6224976 -11.298767 3.7480164 -15.561676c2.1255493 -4.262909 6.459778 -6.0533752 9.00528 -10.015747c2.5454712 -3.9624023 6.219574 -13.758545 6.2677 -13.758545z" fill-rule="evenodd"/><path fill="#000000" d="m380.38412 373.9069c-0.11395264 -1.8736267 8.9218445 -5.2825317 12.511108 -4.918213c3.5892334 0.36431885 8.910431 5.2304688 9.024384 7.104065c0.11395264 1.8735962 -4.751465 4.5018616 -8.340729 4.1375427c-3.589264 -0.36431885 -13.080811 -4.4497986 -13.194763 -6.323395z" fill-rule="evenodd"/><path stroke="#000000" stroke-width="4.0" stroke-linejoin="round" stroke-linecap="butt" d="m380.38412 373.9069c-0.11395264 -1.8736267 8.9218445 -5.2825317 12.511108 -4.918213c3.5892334 0.36431885 8.910431 5.2304688 9.024384 7.104065c0.11395264 1.8735962 -4.751465 4.5018616 -8.340729 4.1375427c-3.589264 -0.36431885 -13.080811 -4.4497986 -13.194763 -6.323395z" fill-rule="evenodd"/><path fill="#000000" d="m435.6482 373.9069c0.11392212 -1.8736267 -8.921875 -5.2825317 -12.511108 -4.918213c-3.589264 0.36431885 -8.910461 5.2304688 -9.024414 7.104065c-0.11392212 1.8735962 4.7514954 4.5018616 8.340729 4.1375427c3.589264 -0.36431885 13.080841 -4.4497986 13.194794 -6.323395z" fill-rule="evenodd"/><path stroke="#000000" stroke-width="4.0" stroke-linejoin="round" stroke-linecap="butt" d="m435.6482 373.9069c0.11392212 -1.8736267 -8.921875 -5.2825317 -12.511108 -4.918213c-3.589264 0.36431885 -8.910461 5.2304688 -9.024414 7.104065c-0.11392212 1.8735962 4.7514954 4.5018616 8.340729 4.1375427c3.589264 -0.36431885 13.080841 -4.4497986 13.194794 -6.323395z" fill-rule="evenodd"/><path fill="#ffffff" d="m426.88773 375.26135l0 0c0 -2.7744446 -2.2491455 -5.0236206 -5.0236206 -5.0236206l0 0c-1.332367 0 -2.610138 0.5292969 -3.552246 1.471405c-0.94210815 0.94210815 -1.4713745 2.2198792 -1.4713745 3.5522156l0 0c0 2.774475 2.2491455 5.023651 5.0236206 5.023651l0 0c2.774475 0 5.0236206 -2.249176 5.0236206 -5.023651z" fill-rule="evenodd"/><path fill="#ffffff" d="m398.8618 375.26135l0 0c0 -2.7744446 -2.2491455 -5.0236206 -5.0236206 -5.0236206l0 0c-1.3323364 0 -2.610138 0.5292969 -3.552246 1.471405c-0.94210815 0.94210815 -1.4713745 2.2198792 -1.4713745 3.5522156l0 0c0 2.774475 2.2491455 5.023651 5.0236206 5.023651l0 0c2.774475 0 5.0236206 -2.249176 5.0236206 -5.023651z" fill-rule="evenodd"/><path fill="#cfe2f3" d="m450.25742 477.56955c0.116363525 0 -8.024933 24.045929 -14.467194 33.286102c-6.4422607 9.240173 -18.221771 14.462341 -24.18634 22.154846c-5.964569 7.692505 -13.267731 17.30011 -11.601044 24.0c1.6666565 6.69989 14.467621 13.899841 21.601044 16.199463c7.133423 2.2996826 21.266388 -2.6015015 21.199463 -2.4015503c-0.06692505 0.19989014 -14.5008545 5.7677 -21.601044 3.6010132c-7.100189 -2.166626 -19.683716 -10.047241 -21.0 -16.601013c-1.3162842 -6.553833 7.2874146 -14.896362 13.102356 -22.721802c5.814972 -7.8254395 15.628601 -14.644775 21.787415 -24.230957c6.158783 -9.586182 15.048981 -33.286102 15.165344 -33.286102z" fill-rule="evenodd"/><path stroke="#000000" stroke-width="12.0" stroke-linejoin="round" stroke-linecap="butt" d="m450.25742 477.56955c0.116363525 0 -8.024933 24.045929 -14.467194 33.286102c-6.4422607 9.240173 -18.221771 14.462341 -24.18634 22.154846c-5.964569 7.692505 -13.267731 17.30011 -11.601044 24.0c1.6666565 6.69989 14.467621 13.899841 21.601044 16.199463c7.133423 2.2996826 21.266388 -2.6015015 21.199463 -2.4015503c-0.06692505 0.19989014 -14.5008545 5.7677 -21.601044 3.6010132c-7.100189 -2.166626 -19.683716 -10.047241 -21.0 -16.601013c-1.3162842 -6.553833 7.2874146 -14.896362 13.102356 -22.721802c5.814972 -7.8254395 15.628601 -14.644775 21.787415 -24.230957c6.158783 -9.586182 15.048981 -33.286102 15.165344 -33.286102z" fill-rule="evenodd"/><path fill="#cfe2f3" d="m459.63272 537.78345c3.165985 0.23498535 13.951355 -0.7861328 18.055878 3.9818115c4.1045227 4.7678833 8.211884 17.940857 6.571228 24.62555c-1.640686 6.6847534 -16.37677 15.442993 -16.415222 15.482849c-0.03845215 0.039916992 14.425629 -8.3637085 16.18451 -15.243591c1.7588501 -6.879822 -1.4085388 -21.656311 -5.631256 -26.035461c-4.2227173 -4.3790894 -16.577576 0.22930908 -19.705109 -0.23925781c-3.127533 -0.46850586 -2.2260132 -2.8068848 0.9399719 -2.5718994z" fill-rule="evenodd"/><path stroke="#000000" stroke-width="12.0" stroke-linejoin="round" stroke-linecap="butt" d="m459.63272 537.78345c3.165985 0.23498535 13.951355 -0.7861328 18.055878 3.9818115c4.1045227 4.7678833 8.211884 17.940857 6.571228 24.62555c-1.640686 6.6847534 -16.37677 15.442993 -16.415222 15.482849c-0.03845215 0.039916992 14.425629 -8.3637085 16.18451 -15.243591c1.7588501 -6.879822 -1.4085388 -21.656311 -5.631256 -26.035461c-4.2227173 -4.3790894 -16.577576 0.22930908 -19.705109 -0.23925781c-3.127533 -0.46850586 -2.2260132 -2.8068848 0.9399719 -2.5718994z" fill-rule="evenodd"/><path fill="#000000" d="m383.70676 479.523c-0.27566528 -4.5328064 21.584717 -12.779968 30.268188 -11.89859c8.683502 0.8813782 21.55716 12.654053 21.832825 17.18686c0.27566528 4.5328064 -11.4953 10.891327 -20.178802 10.009949c-8.683502 -0.8813782 -31.646545 -10.765411 -31.92221 -15.298218z" fill-rule="evenodd"/><path stroke="#000000" stroke-width="16.0" stroke-linejoin="round" stroke-linecap="butt" d="m383.70676 479.523c-0.27566528 -4.5328064 21.584717 -12.779968 30.268188 -11.89859c8.683502 0.8813782 21.55716 12.654053 21.832825 17.18686c0.27566528 4.5328064 -11.4953 10.891327 -20.178802 10.009949c-8.683502 -0.8813782 -31.646545 -10.765411 -31.92221 -15.298218z" fill-rule="evenodd"/><path fill="#000000" d="m517.41046 479.523c0.27563477 -4.5328064 -21.584717 -12.779968 -30.268219 -11.89859c-8.683502 0.8813782 -21.55716 12.654053 -21.832825 17.18686c-0.27566528 4.5328064 11.4953 10.891327 20.178802 10.009949c8.683502 -0.8813782 31.646545 -10.765411 31.922241 -15.298218z" fill-rule="evenodd"/><path stroke="#000000" stroke-width="16.0" stroke-linejoin="round" stroke-linecap="butt" d="m517.41046 479.523c0.27563477 -4.5328064 -21.584717 -12.779968 -30.268219 -11.89859c-8.683502 0.8813782 -21.55716 12.654053 -21.832825 17.18686c-0.27566528 4.5328064 11.4953 10.891327 20.178802 10.009949c8.683502 -0.8813782 31.646545 -10.765411 31.922241 -15.298218z" fill-rule="evenodd"/><path fill="#ffffff" d="m496.21573 482.80383l0 0c0 -6.714386 -5.4430847 -12.157501 -12.157471 -12.157501l0 0c-3.2243652 0 -6.316681 1.2808838 -8.596649 3.560852c-2.2799683 2.2799683 -3.560852 5.372284 -3.560852 8.596649l0 0c0 6.714386 5.4430847 12.157471 12.157501 12.157471l0 0c6.714386 0 12.157471 -5.4430847 12.157471 -12.157471z" fill-rule="evenodd"/><path fill="#ffffff" d="m428.4109 482.80383l0 0c0 -6.714386 -5.4430847 -12.157501 -12.157471 -12.157501l0 0c-3.2243652 0 -6.316681 1.2808838 -8.596649 3.560852c-2.2799683 2.2799683 -3.5608215 5.372284 -3.5608215 8.596649l0 0c0 6.714386 5.4430847 12.157471 12.157471 12.157471l0 0c6.714386 0 12.157471 -5.4430847 12.157471 -12.157471z" fill-rule="evenodd"/><path fill="#000000" d="m614.6456 549.52124c0.1303711 -2.1431885 -10.207397 -6.0426025 -14.313843 -5.6259155c-4.1064453 0.41674805 -10.194397 5.9830933 -10.324768 8.126343c-0.1303711 2.1431885 5.436157 5.149597 9.542603 4.732849c4.1064453 -0.416687 14.965637 -5.090088 15.096008 -7.2332764z" fill-rule="evenodd"/><path stroke="#000000" stroke-width="8.0" stroke-linejoin="round" stroke-linecap="butt" d="m614.6456 549.52124c0.1303711 -2.1431885 -10.207397 -6.0426025 -14.313843 -5.6259155c-4.1064453 0.41674805 -10.194397 5.9830933 -10.324768 8.126343c-0.1303711 2.1431885 5.436157 5.149597 9.542603 4.732849c4.1064453 -0.416687 14.965637 -5.090088 15.096008 -7.2332764z" fill-rule="evenodd"/><path fill="#000000" d="m551.42944 549.52124c-0.1303711 -2.1431885 10.207397 -6.0426025 14.313843 -5.6259155c4.1064453 0.41674805 10.194397 5.9830933 10.324768 8.126343c0.1303711 2.1431885 -5.436157 5.149597 -9.542603 4.732849c-4.1064453 -0.416687 -14.965698 -5.090088 -15.096008 -7.2332764z" fill-rule="evenodd"/><path stroke="#000000" stroke-width="8.0" stroke-linejoin="round" stroke-linecap="butt" d="m551.42944 549.52124c-0.1303711 -2.1431885 10.207397 -6.0426025 14.313843 -5.6259155c4.1064453 0.41674805 10.194397 5.9830933 10.324768 8.126343c0.1303711 2.1431885 -5.436157 5.149597 -9.542603 4.732849c-4.1064453 -0.416687 -14.965698 -5.090088 -15.096008 -7.2332764z" fill-rule="evenodd"/><path fill="#ffffff" d="m561.45044 551.06604l0 0c0 -3.1711426 2.5707397 -5.7418823 5.7419434 -5.7418823l0 0c1.5228271 0 2.9833374 0.60491943 4.0601196 1.6817627c1.0768433 1.0768433 1.6817627 2.5372925 1.6817627 4.0601196l0 0c0 3.1712036 -2.5707397 5.7419434 -5.7418823 5.7419434l0 0c-3.1712036 0 -5.7419434 -2.5707397 -5.7419434 -5.7419434z" fill-rule="evenodd"/><path fill="#ffffff" d="m593.50916 551.06604l0 0c0 -3.1711426 2.5707397 -5.7418823 5.7419434 -5.7418823l0 0c1.5228271 0 2.9833374 0.60491943 4.0601196 1.6817627c1.0768433 1.0768433 1.6817627 2.5372925 1.6817627 4.0601196l0 0c0 3.1712036 -2.5707397 5.7419434 -5.7418823 5.7419434l0 0c-3.1712036 0 -5.7419434 -2.5707397 -5.7419434 -5.7419434z" fill-rule="evenodd"/><path fill="#000000" d="m583.8276 545.93774c0.9365845 2.3412476 2.8464355 8.788757 5.404175 13.183777c2.5578003 4.3950195 7.4448853 9.2838745 9.942261 13.18634c2.4973755 3.9024658 5.2821655 6.6622925 5.041992 10.2283325c-0.2401123 3.56604 -2.9527588 9.703003 -6.48291 11.167969c-3.5302124 1.4650269 -11.888428 -1.2252808 -14.698181 -2.3779297c-2.8096924 -1.1526489 -1.93219 -4.4299927 -2.1600952 -4.538086c-0.22790527 -0.10803223 -1.6929321 2.6290894 0.7926636 3.8897705c2.4855347 1.2607422 10.698608 3.914734 14.120728 3.6745605c3.4221191 -0.24017334 4.9833984 -2.6657715 6.4120483 -5.1154785c1.4287109 -2.449707 2.8687744 -6.508789 2.1601562 -9.582703c-0.7086792 -3.0739136 -3.85437 -5.378845 -6.4121094 -8.860901c-2.5577393 -3.4820557 -6.7611694 -8.429138 -8.934387 -12.031494c-2.1732178 -3.602356 -3.204712 -7.3013916 -4.1049805 -9.582642c-0.90026855 -2.281311 -1.116333 -3.5647583 -1.2965698 -4.1049805c-0.18023682 -0.5402832 -0.7213745 -1.4777222 0.21520996 0.86346436z" fill-rule="evenodd"/><path stroke="#000000" stroke-width="8.0" stroke-linejoin="round" stroke-linecap="butt" d="m583.8276 545.93774c0.9365845 2.3412476 2.8464355 8.788757 5.404175 13.183777c2.5578003 4.3950195 7.4448853 9.2838745 9.942261 13.18634c2.4973755 3.9024658 5.2821655 6.6622925 5.041992 10.2283325c-0.2401123 3.56604 -2.9527588 9.703003 -6.48291 11.167969c-3.5302124 1.4650269 -11.888428 -1.2252808 -14.698181 -2.3779297c-2.8096924 -1.1526489 -1.93219 -4.4299927 -2.1600952 -4.538086c-0.22790527 -0.10803223 -1.6929321 2.6290894 0.7926636 3.8897705c2.4855347 1.2607422 10.698608 3.914734 14.120728 3.6745605c3.4221191 -0.24017334 4.9833984 -2.6657715 6.4120483 -5.1154785c1.4287109 -2.449707 2.8687744 -6.508789 2.1601562 -9.582703c-0.7086792 -3.0739136 -3.85437 -5.378845 -6.4121094 -8.860901c-2.5577393 -3.4820557 -6.7611694 -8.429138 -8.934387 -12.031494c-2.1732178 -3.602356 -3.204712 -7.3013916 -4.1049805 -9.582642c-0.90026855 -2.281311 -1.116333 -3.5647583 -1.2965698 -4.1049805c-0.18023682 -0.5402832 -0.7213745 -1.4777222 0.21520996 0.86346436z" fill-rule="evenodd"/><path fill="#ffffff" d="m388.81366 49.24147l87.77951 0l0 87.779526l-87.77951 0z" fill-rule="evenodd"/><path stroke="#000000" stroke-width="16.0" stroke-linejoin="round" stroke-linecap="butt" d="m388.81366 49.24147l87.77951 0l0 87.779526l-87.77951 0z" fill-rule="evenodd"/><path fill="#000000" d="m403.35083 77.37785c-0.12548828 -2.0624008 9.824554 -5.814827 13.776947 -5.413803c3.952423 0.40101624 9.812012 5.757538 9.9375 7.8199387c0.12545776 2.0624008 -5.232239 4.95549 -9.184662 4.5544662c-3.9523926 -0.40102386 -14.404327 -4.898201 -14.529785 -6.960602z" fill-rule="evenodd"/><path stroke="#000000" stroke-width="7.698162729658793" stroke-linejoin="round" stroke-linecap="butt" d="m403.35083 77.37785c-0.12548828 -2.0624008 9.824554 -5.814827 13.776947 -5.413803c3.952423 0.40101624 9.812012 5.757538 9.9375 7.8199387c0.12545776 2.0624008 -5.232239 4.95549 -9.184662 4.5544662c-3.9523926 -0.40102386 -14.404327 -4.898201 -14.529785 -6.960602z" fill-rule="evenodd"/><path fill="#000000" d="m464.1838 77.37785c0.12545776 -2.0624008 -9.824554 -5.814827 -13.776978 -5.413803c-3.9523926 0.40101624 -9.811981 5.757538 -9.9374695 7.8199387c-0.12545776 2.0624008 5.232239 4.95549 9.184631 4.5544662c3.952423 -0.40102386 14.404327 -4.898201 14.529816 -6.960602z" fill-rule="evenodd"/><path stroke="#000000" stroke-width="7.698162729658793" stroke-linejoin="round" stroke-linecap="butt" d="m464.1838 77.37785c0.12545776 -2.0624008 -9.824554 -5.814827 -13.776978 -5.413803c-3.9523926 0.40101624 -9.811981 5.757538 -9.9374695 7.8199387c-0.12545776 2.0624008 5.232239 4.95549 9.184631 4.5544662c3.952423 -0.40102386 14.404327 -4.898201 14.529816 -6.960602z" fill-rule="evenodd"/><path fill="#ffffff" d="m454.54056 78.870316l0 0c0 -3.0548706 -2.476471 -5.531334 -5.5313416 -5.531334l0 0c-1.46698 0 -2.8739014 0.5827637 -3.9112244 1.6200867c-1.037323 1.0373306 -1.6200867 2.4442444 -1.6200867 3.9112473l0 0c0 3.054863 2.4764404 5.5313263 5.531311 5.5313263l0 0c3.0548706 0 5.5313416 -2.4764633 5.5313416 -5.5313263z" fill-rule="evenodd"/><path fill="#ffffff" d="m423.69046 78.870316l0 0c0 -3.0548706 -2.4764404 -5.531334 -5.531311 -5.531334l0 0c-1.4670105 0 -2.873932 0.5827637 -3.911255 1.6200867c-1.037323 1.0373306 -1.6200867 2.4442444 -1.6200867 3.9112473l0 0c0 3.054863 2.476471 5.5313263 5.5313416 5.5313263l0 0c3.0548706 0 5.531311 -2.4764633 5.531311 -5.5313263z" fill-rule="evenodd"/><path fill="#000000" d="m433.0082 73.92961c-0.90127563 2.252945 -2.7391663 8.457375 -5.20047 12.686699c-2.4613037 4.2293243 -7.164215 8.933899 -9.567444 12.689224c-2.4032288 3.755333 -5.1268005 6.739052 -4.851898 9.842743c0.27487183 3.103691 3.1040955 7.369629 6.50119 8.779404c3.3970947 1.4097748 11.2213745 0.4605255 13.881378 -0.32076263c2.6600037 -0.7812958 1.8593445 -4.2630005 2.0786743 -4.366974c0.21929932 -0.10397339 1.8778687 2.9041595 -0.76278687 3.7431183c-2.640625 0.83895874 -11.787964 1.5217514 -15.081085 1.2906418c-3.2931213 -0.23110199 -3.5515747 -0.69415283 -4.6776123 -2.6772614c-1.1260681 -1.9831161 -2.76062 -6.2633743 -2.0786743 -9.221413c0.6819458 -2.9580383 3.709015 -5.1760483 6.1703186 -8.526833c2.4613342 -3.350792 6.5062866 -8.111359 8.597565 -11.577911c2.0913086 -3.4665527 3.0839233 -7.0261383 3.9502258 -9.221413c0.866333 -2.1952744 1.0742798 -3.4303513 1.2477112 -3.9502258c0.1734314 -0.5198822 0.69415283 -1.4219818 -0.20709229 0.83096313z" fill-rule="evenodd"/><path stroke="#000000" stroke-width="7.698162729658793" stroke-linejoin="round" stroke-linecap="butt" d="m433.0082 73.92961c-0.90127563 2.252945 -2.7391663 8.457375 -5.20047 12.686699c-2.4613037 4.2293243 -7.164215 8.933899 -9.567444 12.689224c-2.4032288 3.755333 -5.1268005 6.739052 -4.851898 9.842743c0.27487183 3.103691 3.1040955 7.369629 6.50119 8.779404c3.3970947 1.4097748 11.2213745 0.4605255 13.881378 -0.32076263c2.6600037 -0.7812958 1.8593445 -4.2630005 2.0786743 -4.366974c0.21929932 -0.10397339 1.8778687 2.9041595 -0.76278687 3.7431183c-2.640625 0.83895874 -11.787964 1.5217514 -15.081085 1.2906418c-3.2931213 -0.23110199 -3.5515747 -0.69415283 -4.6776123 -2.6772614c-1.1260681 -1.9831161 -2.76062 -6.2633743 -2.0786743 -9.221413c0.6819458 -2.9580383 3.709015 -5.1760483 6.1703186 -8.526833c2.4613342 -3.350792 6.5062866 -8.111359 8.597565 -11.577911c2.0913086 -3.4665527 3.0839233 -7.0261383 3.9502258 -9.221413c0.866333 -2.1952744 1.0742798 -3.4303513 1.2477112 -3.9502258c0.1734314 -0.5198822 0.69415283 -1.4219818 -0.20709229 0.83096313z" fill-rule="evenodd"/><path fill="#000000" d="m480.96356 421.79022c0 -0.33728027 22.757202 -4.7204895 20.228333 -21.241486c-2.5288696 -16.520996 -32.53586 -55.800507 -35.40158 -77.88452c-2.8656921 -22.083984 27.985138 -42.3132 18.207367 -54.619415c-9.777771 -12.306213 -69.45627 -28.82721 -76.87402 -19.21785c-7.417755 9.60936 31.018799 62.038925 32.367462 76.87401c1.3486328 14.835083 -24.275604 11.462402 -24.275604 12.136505c0 0.6741028 26.29834 6.405945 24.275604 -8.091858c-2.022766 -14.497833 -39.95233 -66.0827 -36.41208 -78.895035c3.5402527 -12.812332 48.887573 9.607193 57.653534 2.0210114c8.765991 -7.5861816 -1.1806641 -34.726166 -5.0577393 -47.53807c-3.8770752 -12.81189 -19.722229 -22.083984 -18.204712 -29.333328c1.5174866 -7.249344 18.038055 -17.196854 27.309692 -14.162735c9.2716675 3.034134 24.274292 13.991699 28.32022 32.367462c4.045929 18.375763 0.5069885 56.308395 -4.0446167 77.88713c-4.551605 21.578735 -25.287842 29.838593 -23.265106 51.585297c2.022766 21.746735 32.87271 62.542877 35.40158 78.89502c2.5288696 16.352142 -20.228333 19.555115 -20.228333 19.217865z" fill-rule="evenodd"/><path stroke="#000000" stroke-width="24.0" stroke-linejoin="round" stroke-linecap="butt" d="m480.96356 421.79022c0 -0.33728027 22.757202 -4.7204895 20.228333 -21.241486c-2.5288696 -16.520996 -32.53586 -55.800507 -35.40158 -77.88452c-2.8656921 -22.083984 27.985138 -42.3132 18.207367 -54.619415c-9.777771 -12.306213 -69.45627 -28.82721 -76.87402 -19.21785c-7.417755 9.60936 31.018799 62.038925 32.367462 76.87401c1.3486328 14.835083 -24.275604 11.462402 -24.275604 12.136505c0 0.6741028 26.29834 6.405945 24.275604 -8.091858c-2.022766 -14.497833 -39.95233 -66.0827 -36.41208 -78.895035c3.5402527 -12.812332 48.887573 9.607193 57.653534 2.0210114c8.765991 -7.5861816 -1.1806641 -34.726166 -5.0577393 -47.53807c-3.8770752 -12.81189 -19.722229 -22.083984 -18.204712 -29.333328c1.5174866 -7.249344 18.038055 -17.196854 27.309692 -14.162735c9.2716675 3.034134 24.274292 13.991699 28.32022 32.367462c4.045929 18.375763 0.5069885 56.308395 -4.0446167 77.88713c-4.551605 21.578735 -25.287842 29.838593 -23.265106 51.585297c2.022766 21.746735 32.87271 62.542877 35.40158 78.89502c2.5288696 16.352142 -20.228333 19.555115 -20.228333 19.217865z" fill-rule="evenodd"/><path fill="#000000" d="m428.14008 172.49606c-1.0905762 0 -19.815521 31.186783 -35.994293 38.4357c-16.178741 7.2489014 -54.170654 3.203415 -61.078186 5.0577393c-6.9075317 1.8543243 15.270264 4.382324 19.632996 6.0682373c4.362732 1.6859131 4.5438538 4.384079 6.5433655 4.047241c1.9995422 -0.3368225 -1.4537659 -3.5393677 5.453766 -6.0682373c6.9075317 -2.5288696 25.084412 -1.1815338 35.991455 -9.10498c10.907043 -7.9234467 30.541443 -38.4357 29.450897 -38.4357z" fill-rule="evenodd"/><path stroke="#000000" stroke-width="24.0" stroke-linejoin="round" stroke-linecap="butt" d="m428.14008 172.49606c-1.0905762 0 -19.815521 31.186783 -35.994293 38.4357c-16.178741 7.2489014 -54.170654 3.203415 -61.078186 5.0577393c-6.9075317 1.8543243 15.270264 4.382324 19.632996 6.0682373c4.362732 1.6859131 4.5438538 4.384079 6.5433655 4.047241c1.9995422 -0.3368225 -1.4537659 -3.5393677 5.453766 -6.0682373c6.9075317 -2.5288696 25.084412 -1.1815338 35.991455 -9.10498c10.907043 -7.9234467 30.541443 -38.4357 29.450897 -38.4357z" fill-rule="evenodd"/><path fill="#000000" d="m485.70078 165.41635c0 0.15310669 38.209137 13.449692 47.685028 33.013123c9.475952 19.56343 8.864868 74.27997 9.170654 84.36746c0.3057251 10.087494 -5.371399 -19.811035 -7.3359985 -23.84253c-1.9645386 -4.031494 -4.757202 1.0293274 -4.451416 -0.34646606c0.30578613 -1.3757629 5.8499146 2.2747192 6.286072 -7.908127c0.43615723 -10.182846 4.8897705 -38.975067 -3.6693115 -53.188965c-8.559021 -14.213913 -47.685028 -32.247604 -47.685028 -32.094498z" fill-rule="evenodd"/><path stroke="#000000" stroke-width="24.0" stroke-linejoin="round" stroke-linecap="butt" d="m485.70078 165.41635c0 0.15310669 38.209137 13.449692 47.685028 33.013123c9.475952 19.56343 8.864868 74.27997 9.170654 84.36746c0.3057251 10.087494 -5.371399 -19.811035 -7.3359985 -23.84253c-1.9645386 -4.031494 -4.757202 1.0293274 -4.451416 -0.34646606c0.30578613 -1.3757629 5.8499146 2.2747192 6.286072 -7.908127c0.43615723 -10.182846 4.8897705 -38.975067 -3.6693115 -53.188965c-8.559021 -14.213913 -47.685028 -32.247604 -47.685028 -32.094498z" fill-rule="evenodd"/></g></svg>