<svg version="1.1" viewBox="0.0 0.0 646.3044619422573 718.0918635170603" fill="none" stroke="none" stroke-linecap="square" stroke-miterlimit="10" xmlns:xlink="http://www.w3.org/1999/xlink" xmlns="http://www.w3.org/2000/svg"><clipPath id="p.0"><path d="m0 0l646.30444 0l0 718.09186l-646.30444 0l0 -718.09186z" clip-rule="nonzero"/></clipPath><g clip-path="url(#p.0)"><path fill="#000000" fill-opacity="0.0" d="m0 0l646.30444 0l0 718.09186l-646.30444 0z" fill-rule="evenodd"/><path fill="#000000" fill-opacity="0.0" d="m26.19685 360.0l336.0315 0l0 336.0315l-336.0315 0z" fill-rule="evenodd"/><path stroke="#000000" stroke-width="16.0" stroke-linejoin="round" stroke-linecap="butt" d="m26.19685 360.0l336.0315 0l0 336.0315l-336.0315 0z" fill-rule="evenodd"/><path fill="#000000" fill-opacity="0.0" d="m362.22833 519.36743l176.66144 0l0 176.66144l-176.66144 0z" fill-rule="evenodd"/><path stroke="#000000" stroke-width="16.0" stroke-linejoin="round" stroke-linecap="butt" d="m362.22833 519.36743l176.66144 0l0 176.66144l-176.66144 0z" fill-rule="evenodd"/><path fill="#000000" fill-opacity="0.0" d="m362.22833 431.5958l87.77954 0l0 87.77951l-87.77954 0z" fill-rule="evenodd"/><path stroke="#000000" stroke-width="16.0" stroke-linejoin="round" stroke-linecap="butt" d="m362.22833 431.5958l87.77954 0l0 87.77951l-87.77954 0z" fill-rule="evenodd"/><path fill="#000000" fill-opacity="0.0" d="m538.8898 608.25195l87.77954 0l0 87.77954l-87.77954 0z" fill-rule="evenodd"/><path stroke="#000000" stroke-width="16.0" stroke-linejoin="round" stroke-linecap="butt" d="m538.8898 608.25195l87.77954 0l0 87.77954l-87.77954 0z" fill-rule="evenodd"/><path fill="#000000" d="m337.97357 454.7288c0.5933838 -9.755188 -46.46115 -27.504242 -65.152405 -25.607391c-18.691269 1.8968201 -46.401825 27.233246 -46.995193 36.988464c-0.59336853 9.755188 24.743683 23.439575 43.43495 21.542725c18.691254 -1.8968506 68.11929 -23.16861 68.71265 -32.923798z" fill-rule="evenodd"/><path stroke="#000000" stroke-width="19.509186351706038" stroke-linejoin="round" stroke-linecap="butt" d="m337.97357 454.7288c0.5933838 -9.755188 -46.46115 -27.504242 -65.152405 -25.607391c-18.691269 1.8968201 -46.401825 27.233246 -46.995193 36.988464c-0.59336853 9.755188 24.743683 23.439575 43.43495 21.542725c18.691254 -1.8968506 68.11929 -23.16861 68.71265 -32.923798z" fill-rule="evenodd"/><path fill="#cfe2f3" d="m197.3761 448.42734c0.3643341 -0.23684692 42.8145 86.24136 57.3118 109.34274c14.497314 23.10138 27.775238 15.784424 29.672058 29.265564c1.8968506 13.48114 -6.5029297 43.289246 -18.290985 51.621277c-11.788071 8.332031 -52.233627 -1.5612793 -52.437393 -1.6290283c-0.20378113 -0.06774902 39.22403 9.148682 51.214798 1.2225952c11.990753 -7.9261475 22.7872 -35.60266 20.729797 -48.779236c-2.0574036 -13.176575 -18.374207 -6.772827 -33.074234 -30.280151c-14.700012 -23.507324 -55.490158 -110.52692 -55.12584 -110.76376z" fill-rule="evenodd"/><path stroke="#000000" stroke-width="19.509186351706038" stroke-linejoin="round" stroke-linecap="butt" d="m197.3761 448.42734c0.3643341 -0.23684692 42.8145 86.24136 57.3118 109.34274c14.497314 23.10138 27.775238 15.784424 29.672058 29.265564c1.8968506 13.48114 -6.5029297 43.289246 -18.290985 51.621277c-11.788071 8.332031 -52.233627 -1.5612793 -52.437393 -1.6290283c-0.20378113 -0.06774902 39.22403 9.148682 51.214798 1.2225952c11.990753 -7.9261475 22.7872 -35.60266 20.729797 -48.779236c-2.0574036 -13.176575 -18.374207 -6.772827 -33.074234 -30.280151c-14.700012 -23.507324 -55.490158 -110.52692 -55.12584 -110.76376z" fill-rule="evenodd"/><path fill="#000000" d="m50.232372 454.7288c-0.59337234 -9.755188 46.461155 -27.504242 65.15242 -25.607391c18.691269 1.8968201 46.40181 27.233246 46.99518 36.988464c0.5933838 9.755188 -24.743668 23.439575 -43.434937 21.542725c-18.691269 -1.8968506 -68.11929 -23.16861 -68.71266 -32.923798z" fill-rule="evenodd"/><path stroke="#000000" stroke-width="19.509186351706038" stroke-linejoin="round" stroke-linecap="butt" d="m50.232372 454.7288c-0.59337234 -9.755188 46.461155 -27.504242 65.15242 -25.607391c18.691269 1.8968201 46.40181 27.233246 46.99518 36.988464c0.5933838 9.755188 -24.743668 23.439575 -43.434937 21.542725c-18.691269 -1.8968506 -68.11929 -23.16861 -68.71266 -32.923798z" fill-rule="evenodd"/><path fill="#ffffff" d="m95.84511 461.76035l0 0c0 -14.434235 11.701256 -26.135498 26.13549 -26.135498l0 0c6.9315567 0 13.579216 2.7535706 18.480583 7.654907c4.901352 4.901367 7.654907 11.549011 7.654907 18.48059l0 0c0 14.434235 -11.701263 26.135498 -26.13549 26.135498l0 0c-14.434235 0 -26.13549 -11.701263 -26.13549 -26.135498z" fill-rule="evenodd"/><path fill="#ffffff" d="m241.76665 461.76035l0 0c0 -14.434235 11.701248 -26.135498 26.135483 -26.135498l0 0c6.931549 0 13.579224 2.7535706 18.48059 7.654907c4.9013367 4.901367 7.654907 11.549011 7.654907 18.48059l0 0c0 14.434235 -11.701263 26.135498 -26.135498 26.135498l0 0c-14.434235 0 -26.135483 -11.701263 -26.135483 -26.135498z" fill-rule="evenodd"/><path fill="#cfe2f3" d="m407.8908 461.09973c0.04812622 0 -3.3613281 9.544189 -5.979004 13.758545c-2.6176758 4.214325 -7.4816284 7.3005066 -9.72702 11.527557c-2.2454224 4.2270203 -4.61026 11.817139 -3.7454224 13.834625c0.86483765 2.017517 5.680237 -1.3932495 8.934387 -1.7296448c3.2541504 -0.33639526 10.78302 -0.3486328 10.590546 -0.2887268c-0.19247437 0.059936523 -8.562988 0.2760315 -11.745392 0.6483154c-3.182434 0.37225342 -6.7489014 3.9147034 -7.3490906 1.5852966c-0.6001892 -2.3294067 1.6224976 -11.298767 3.7480164 -15.561676c2.1255493 -4.262909 6.459778 -6.0533752 9.00528 -10.015747c2.5454712 -3.9624023 6.219574 -13.758545 6.2677 -13.758545z" fill-rule="evenodd"/><path stroke="#000000" stroke-width="8.0" stroke-linejoin="round" stroke-linecap="butt" d="m407.8908 461.09973c0.04812622 0 -3.3613281 9.544189 -5.979004 13.758545c-2.6176758 4.214325 -7.4816284 7.3005066 -9.72702 11.527557c-2.2454224 4.2270203 -4.61026 11.817139 -3.7454224 13.834625c0.86483765 2.017517 5.680237 -1.3932495 8.934387 -1.7296448c3.2541504 -0.33639526 10.78302 -0.3486328 10.590546 -0.2887268c-0.19247437 0.059936523 -8.562988 0.2760315 -11.745392 0.6483154c-3.182434 0.37225342 -6.7489014 3.9147034 -7.3490906 1.5852966c-0.6001892 -2.3294067 1.6224976 -11.298767 3.7480164 -15.561676c2.1255493 -4.262909 6.459778 -6.0533752 9.00528 -10.015747c2.5454712 -3.9624023 6.219574 -13.758545 6.2677 -13.758545z" fill-rule="evenodd"/><path fill="#000000" d="m435.10284 258.03378c-4.522949 2.6417542 -5.57901 10.422089 -9.918518 15.992493c-4.339508 5.5703735 -9.543823 12.400116 -16.11853 17.42984c-6.5747375 5.0296936 -16.352966 10.916595 -23.329803 12.748352c-6.976837 1.8317871 -17.592865 -2.2697144 -18.53125 -1.757782c-0.938385 0.5119629 12.380859 2.7825623 12.90094 4.829468c0.52008057 2.0469055 -6.127075 5.4931946 -9.780487 7.451996c-3.6534119 1.9588318 -12.402863 4.001648 -12.140045 4.3009033c0.26281738 0.29925537 11.106628 -3.0142822 13.716919 -2.505371c2.610321 0.50894165 3.8934937 3.9824219 1.9449463 5.5589294c-1.9485474 1.5765076 -13.835876 4.0759583 -13.6362 3.900055c0.19970703 -0.17590332 11.588867 -4.947418 14.83432 -4.955414c3.245453 -0.007965088 5.991333 3.1330261 4.638397 4.907501c-1.3529358 1.7744751 -12.969452 5.6822205 -12.755951 5.739441c0.2135315 0.05718994 9.084503 -3.2893677 14.037048 -5.3962097c4.952545 -2.106842 8.2144165 -3.5976562 15.678223 -7.244934c7.463806 -3.6472778 19.420563 -5.9777527 29.104584 -14.638763c9.6840515 -8.661011 24.570557 -29.624176 28.999634 -37.3273c4.4290466 -7.7030945 0.84884644 -7.3858337 -2.425171 -8.891388c-3.2740479 -1.5055237 -12.696136 -2.7835999 -17.219055 -0.14181519z" fill-rule="evenodd"/><path stroke="#000000" stroke-width="9.695538057742782" stroke-linejoin="round" stroke-linecap="butt" d="m435.10284 258.03378c-4.522949 2.6417542 -5.57901 10.422089 -9.918518 15.992493c-4.339508 5.5703735 -9.543823 12.400116 -16.11853 17.42984c-6.5747375 5.0296936 -16.352966 10.916595 -23.329803 12.748352c-6.976837 1.8317871 -17.592865 -2.2697144 -18.53125 -1.757782c-0.938385 0.5119629 12.380859 2.7825623 12.90094 4.829468c0.52008057 2.0469055 -6.127075 5.4931946 -9.780487 7.451996c-3.6534119 1.9588318 -12.402863 4.001648 -12.140045 4.3009033c0.26281738 0.29925537 11.106628 -3.0142822 13.716919 -2.505371c2.610321 0.50894165 3.8934937 3.9824219 1.9449463 5.5589294c-1.9485474 1.5765076 -13.835876 4.0759583 -13.6362 3.900055c0.19970703 -0.17590332 11.588867 -4.947418 14.83432 -4.955414c3.245453 -0.007965088 5.991333 3.1330261 4.638397 4.907501c-1.3529358 1.7744751 -12.969452 5.6822205 -12.755951 5.739441c0.2135315 0.05718994 9.084503 -3.2893677 14.037048 -5.3962097c4.952545 -2.106842 8.2144165 -3.5976562 15.678223 -7.244934c7.463806 -3.6472778 19.420563 -5.9777527 29.104584 -14.638763c9.6840515 -8.661011 24.570557 -29.624176 28.999634 -37.3273c4.4290466 -7.7030945 0.84884644 -7.3858337 -2.425171 -8.891388c-3.2740479 -1.5055237 -12.696136 -2.7835999 -17.219055 -0.14181519z" fill-rule="evenodd"/><path fill="#000000" d="m477.31396 258.707c4.533386 -0.036590576 29.557098 20.78772 38.033325 34.27707c8.476257 13.48938 9.691223 33.170258 12.824097 46.65909c3.1328735 13.488831 5.8257446 30.588654 5.9731445 34.273895c0.14733887 3.6852112 -4.7199707 -12.789093 -5.088928 -12.162537c-0.36895752 0.6265869 3.4276123 16.032227 2.8752441 15.921967c-0.55236816 -0.11026001 -5.4154663 -16.878265 -6.189392 -16.583527c-0.7739258 0.29473877 2.0249634 18.09378 1.5457764 18.351929c-0.47924805 0.2581787 -2.725769 -13.006958 -4.4210205 -16.802979c-1.6952515 -3.7960205 -3.944458 -7.041809 -5.7504883 -5.973114c-1.8060303 1.0686646 -4.7539062 12.82724 -5.0857544 12.385162c-0.33184814 -0.44210815 4.015991 -6.5238953 3.0947266 -15.037781c-0.9213257 -8.5138855 -4.1262817 -25.910034 -8.622559 -36.04547c-4.496277 -10.135437 -13.4904175 -14.889893 -18.355133 -24.767181c-4.864685 -9.877258 -15.366425 -34.45996 -10.833038 -34.49652z" fill-rule="evenodd"/><path stroke="#000000" stroke-width="9.695538057742782" stroke-linejoin="round" stroke-linecap="butt" d="m477.31396 258.707c4.533386 -0.036590576 29.557098 20.78772 38.033325 34.27707c8.476257 13.48938 9.691223 33.170258 12.824097 46.65909c3.1328735 13.488831 5.8257446 30.588654 5.9731445 34.273895c0.14733887 3.6852112 -4.7199707 -12.789093 -5.088928 -12.162537c-0.36895752 0.6265869 3.4276123 16.032227 2.8752441 15.921967c-0.55236816 -0.11026001 -5.4154663 -16.878265 -6.189392 -16.583527c-0.7739258 0.29473877 2.0249634 18.09378 1.5457764 18.351929c-0.47924805 0.2581787 -2.725769 -13.006958 -4.4210205 -16.802979c-1.6952515 -3.7960205 -3.944458 -7.041809 -5.7504883 -5.973114c-1.8060303 1.0686646 -4.7539062 12.82724 -5.0857544 12.385162c-0.33184814 -0.44210815 4.015991 -6.5238953 3.0947266 -15.037781c-0.9213257 -8.5138855 -4.1262817 -25.910034 -8.622559 -36.04547c-4.496277 -10.135437 -13.4904175 -14.889893 -18.355133 -24.767181c-4.864685 -9.877258 -15.366425 -34.45996 -10.833038 -34.49652z" fill-rule="evenodd"/><path fill="#000000" d="m380.38412 461.9069c-0.11395264 -1.8736267 8.923401 -5.2825317 12.513275 -4.918213c3.5898743 0.36431885 8.912018 5.2304688 9.02597 7.104065c0.113983154 1.8735962 -4.752289 4.5018616 -8.342194 4.1375427c-3.5898743 -0.36431885 -13.083099 -4.4497986 -13.197052 -6.323395z" fill-rule="evenodd"/><path stroke="#000000" stroke-width="4.0" stroke-linejoin="round" stroke-linecap="butt" d="m380.38412 461.9069c-0.11395264 -1.8736267 8.923401 -5.2825317 12.513275 -4.918213c3.5898743 0.36431885 8.912018 5.2304688 9.02597 7.104065c0.113983154 1.8735962 -4.752289 4.5018616 -8.342194 4.1375427c-3.5898743 -0.36431885 -13.083099 -4.4497986 -13.197052 -6.323395z" fill-rule="evenodd"/><path fill="#000000" d="m435.6482 461.9069c0.11395264 -1.8736267 -8.923431 -5.2825317 -12.513306 -4.918213c-3.5898743 0.36431885 -8.911987 5.2304688 -9.02597 7.104065c-0.11395264 1.8735962 4.7523193 4.5018616 8.342194 4.1375427c3.5898743 -0.36431885 13.083099 -4.4497986 13.1970825 -6.323395z" fill-rule="evenodd"/><path stroke="#000000" stroke-width="4.0" stroke-linejoin="round" stroke-linecap="butt" d="m435.6482 461.9069c0.11395264 -1.8736267 -8.923431 -5.2825317 -12.513306 -4.918213c-3.5898743 0.36431885 -8.911987 5.2304688 -9.02597 7.104065c-0.11395264 1.8735962 4.7523193 4.5018616 8.342194 4.1375427c3.5898743 -0.36431885 13.083099 -4.4497986 13.1970825 -6.323395z" fill-rule="evenodd"/><path fill="#ffffff" d="m426.88773 463.2574l0 0c0 -2.7722778 -2.2473755 -5.0196533 -5.019623 -5.0196533l0 0c-1.3312988 0 -2.6080627 0.5288696 -3.549408 1.4702148c-0.94137573 0.94137573 -1.4702148 2.2181396 -1.4702148 3.5494385l0 0c0 2.7722473 2.247345 5.019623 5.019623 5.019623l0 0c2.7722473 0 5.019623 -2.2473755 5.019623 -5.019623z" fill-rule="evenodd"/><path fill="#ffffff" d="m398.8618 463.2574l0 0c0 -2.7722778 -2.247345 -5.0196533 -5.019623 -5.0196533l0 0c-1.3312988 0 -2.6080627 0.5288696 -3.549408 1.4702148c-0.94137573 0.94137573 -1.4702148 2.2181396 -1.4702148 3.5494385l0 0c0 2.7722473 2.2473755 5.019623 5.019623 5.019623l0 0c2.7722778 0 5.019623 -2.2473755 5.019623 -5.019623z" fill-rule="evenodd"/><path fill="#cfe2f3" d="m450.25742 565.5696c0.116363525 0 -8.024933 24.045898 -14.467194 33.28607c-6.4422607 9.240173 -18.221771 14.462341 -24.18634 22.154846c-5.964569 7.692505 -13.267731 17.30011 -11.601044 24.0c1.6666565 6.69989 14.467621 13.899841 21.601044 16.199463c7.133423 2.2996826 21.266388 -2.6015015 21.199463 -2.4015503c-0.06692505 0.19989014 -14.5008545 5.7677 -21.601044 3.6010132c-7.100189 -2.166626 -19.683716 -10.047241 -21.0 -16.601013c-1.3162842 -6.553833 7.2874146 -14.896362 13.102356 -22.721802c5.814972 -7.8254395 15.628601 -14.644775 21.787415 -24.230957c6.158783 -9.586182 15.048981 -33.28607 15.165344 -33.28607z" fill-rule="evenodd"/><path stroke="#000000" stroke-width="12.0" stroke-linejoin="round" stroke-linecap="butt" d="m450.25742 565.5696c0.116363525 0 -8.024933 24.045898 -14.467194 33.28607c-6.4422607 9.240173 -18.221771 14.462341 -24.18634 22.154846c-5.964569 7.692505 -13.267731 17.30011 -11.601044 24.0c1.6666565 6.69989 14.467621 13.899841 21.601044 16.199463c7.133423 2.2996826 21.266388 -2.6015015 21.199463 -2.4015503c-0.06692505 0.19989014 -14.5008545 5.7677 -21.601044 3.6010132c-7.100189 -2.166626 -19.683716 -10.047241 -21.0 -16.601013c-1.3162842 -6.553833 7.2874146 -14.896362 13.102356 -22.721802c5.814972 -7.8254395 15.628601 -14.644775 21.787415 -24.230957c6.158783 -9.586182 15.048981 -33.28607 15.165344 -33.28607z" fill-rule="evenodd"/><path fill="#cfe2f3" d="m459.63272 625.78345c3.165985 0.23498535 13.951355 -0.7861328 18.055878 3.9818115c4.1045227 4.7678833 8.211884 17.940857 6.571228 24.62555c-1.640686 6.6847534 -16.37677 15.442993 -16.415222 15.482849c-0.03845215 0.039916992 14.425629 -8.3637085 16.18451 -15.243591c1.7588501 -6.879822 -1.4085388 -21.656311 -5.631256 -26.035461c-4.2227173 -4.3790894 -16.577576 0.22930908 -19.705109 -0.23925781c-3.127533 -0.46850586 -2.2260132 -2.8068848 0.9399719 -2.5718994z" fill-rule="evenodd"/><path stroke="#000000" stroke-width="12.0" stroke-linejoin="round" stroke-linecap="butt" d="m459.63272 625.78345c3.165985 0.23498535 13.951355 -0.7861328 18.055878 3.9818115c4.1045227 4.7678833 8.211884 17.940857 6.571228 24.62555c-1.640686 6.6847534 -16.37677 15.442993 -16.415222 15.482849c-0.03845215 0.039916992 14.425629 -8.3637085 16.18451 -15.243591c1.7588501 -6.879822 -1.4085388 -21.656311 -5.631256 -26.035461c-4.2227173 -4.3790894 -16.577576 0.22930908 -19.705109 -0.23925781c-3.127533 -0.46850586 -2.2260132 -2.8068848 0.9399719 -2.5718994z" fill-rule="evenodd"/><path fill="#000000" d="m383.70676 567.523c-0.27566528 -4.532776 21.584717 -12.779968 30.268188 -11.898621c8.683502 0.8814087 21.55716 12.654114 21.832825 17.18689c0.27566528 4.532776 -11.4953 10.891296 -20.178802 10.009949c-8.683502 -0.8814087 -31.646545 -10.765381 -31.92221 -15.298218z" fill-rule="evenodd"/><path stroke="#000000" stroke-width="16.0" stroke-linejoin="round" stroke-linecap="butt" d="m383.70676 567.523c-0.27566528 -4.532776 21.584717 -12.779968 30.268188 -11.898621c8.683502 0.8814087 21.55716 12.654114 21.832825 17.18689c0.27566528 4.532776 -11.4953 10.891296 -20.178802 10.009949c-8.683502 -0.8814087 -31.646545 -10.765381 -31.92221 -15.298218z" fill-rule="evenodd"/><path fill="#000000" d="m517.41046 567.523c0.27563477 -4.532776 -21.584717 -12.779968 -30.268219 -11.898621c-8.683502 0.8814087 -21.55716 12.654114 -21.832825 17.18689c-0.27566528 4.532776 11.4953 10.891296 20.178802 10.009949c8.683502 -0.8814087 31.646545 -10.765381 31.922241 -15.298218z" fill-rule="evenodd"/><path stroke="#000000" stroke-width="16.0" stroke-linejoin="round" stroke-linecap="butt" d="m517.41046 567.523c0.27563477 -4.532776 -21.584717 -12.779968 -30.268219 -11.898621c-8.683502 0.8814087 -21.55716 12.654114 -21.832825 17.18689c-0.27566528 4.532776 11.4953 10.891296 20.178802 10.009949c8.683502 -0.8814087 31.646545 -10.765381 31.922241 -15.298218z" fill-rule="evenodd"/><path fill="#ffffff" d="m496.21573 570.80383l0 0c0 -6.7144165 -5.4430847 -12.157471 -12.157471 -12.157471l0 0c-3.2243652 0 -6.316681 1.2808838 -8.596649 3.560852c-2.2799683 2.2799683 -3.560852 5.3722534 -3.560852 8.596619l0 0c0 6.7143555 5.4430847 12.157471 12.157501 12.157471l0 0c6.714386 0 12.157471 -5.443115 12.157471 -12.157471z" fill-rule="evenodd"/><path fill="#ffffff" d="m428.4109 570.80383l0 0c0 -6.7144165 -5.4430847 -12.157471 -12.157471 -12.157471l0 0c-3.2243652 0 -6.316681 1.2808838 -8.596649 3.560852c-2.2799683 2.2799683 -3.5608215 5.3722534 -3.5608215 8.596619l0 0c0 6.7143555 5.4430847 12.157471 12.157471 12.157471l0 0c6.714386 0 12.157471 -5.443115 12.157471 -12.157471z" fill-rule="evenodd"/><path fill="#000000" d="m614.6456 637.52124c0.1303711 -2.1431885 -10.207397 -6.0426025 -14.313843 -5.6259155c-4.1064453 0.41674805 -10.194397 5.9830933 -10.324768 8.126343c-0.1303711 2.1431885 5.436157 5.149597 9.542603 4.732849c4.1064453 -0.416687 14.965637 -5.090088 15.096008 -7.2332764z" fill-rule="evenodd"/><path stroke="#000000" stroke-width="8.0" stroke-linejoin="round" stroke-linecap="butt" d="m614.6456 637.52124c0.1303711 -2.1431885 -10.207397 -6.0426025 -14.313843 -5.6259155c-4.1064453 0.41674805 -10.194397 5.9830933 -10.324768 8.126343c-0.1303711 2.1431885 5.436157 5.149597 9.542603 4.732849c4.1064453 -0.416687 14.965637 -5.090088 15.096008 -7.2332764z" fill-rule="evenodd"/><path fill="#000000" d="m551.42944 637.52124c-0.1303711 -2.1431885 10.207397 -6.0426025 14.313843 -5.6259155c4.1064453 0.41674805 10.194397 5.9830933 10.324768 8.126343c0.1303711 2.1431885 -5.436157 5.149597 -9.542603 4.732849c-4.1064453 -0.416687 -14.965698 -5.090088 -15.096008 -7.2332764z" fill-rule="evenodd"/><path stroke="#000000" stroke-width="8.0" stroke-linejoin="round" stroke-linecap="butt" d="m551.42944 637.52124c-0.1303711 -2.1431885 10.207397 -6.0426025 14.313843 -5.6259155c4.1064453 0.41674805 10.194397 5.9830933 10.324768 8.126343c0.1303711 2.1431885 -5.436157 5.149597 -9.542603 4.732849c-4.1064453 -0.416687 -14.965698 -5.090088 -15.096008 -7.2332764z" fill-rule="evenodd"/><path fill="#ffffff" d="m561.45044 639.06604l0 0c0 -3.1711426 2.5707397 -5.7418823 5.7419434 -5.7418823l0 0c1.5228271 0 2.9833374 0.60491943 4.0601196 1.6817627c1.0768433 1.0768433 1.6817627 2.5372925 1.6817627 4.0601196l0 0c0 3.1712036 -2.5707397 5.7419434 -5.7418823 5.7419434l0 0c-3.1712036 0 -5.7419434 -2.5707397 -5.7419434 -5.7419434z" fill-rule="evenodd"/><path fill="#ffffff" d="m593.50916 639.06604l0 0c0 -3.1711426 2.5707397 -5.7418823 5.7419434 -5.7418823l0 0c1.5228271 0 2.9833374 0.60491943 4.0601196 1.6817627c1.0768433 1.0768433 1.6817627 2.5372925 1.6817627 4.0601196l0 0c0 3.1712036 -2.5707397 5.7419434 -5.7418823 5.7419434l0 0c-3.1712036 0 -5.7419434 -2.5707397 -5.7419434 -5.7419434z" fill-rule="evenodd"/><path fill="#000000" d="m583.8276 633.93774c0.9365845 2.3412476 2.8464355 8.788757 5.404175 13.183777c2.5578003 4.3950195 7.4448853 9.2838745 9.942261 13.18634c2.4973755 3.9024658 5.2821655 6.6622925 5.041992 10.2283325c-0.2401123 3.56604 -2.9527588 9.703003 -6.48291 11.167969c-3.5302124 1.4650269 -11.888428 -1.2252808 -14.698181 -2.3779297c-2.8096924 -1.1526489 -1.93219 -4.4299927 -2.1600952 -4.538086c-0.22790527 -0.10803223 -1.6929321 2.6290894 0.7926636 3.8897705c2.4855347 1.2607422 10.698608 3.914734 14.120728 3.6745605c3.4221191 -0.24017334 4.9833984 -2.6657715 6.4120483 -5.1154785c1.4287109 -2.449707 2.8687744 -6.508789 2.1601562 -9.582703c-0.7086792 -3.0739136 -3.85437 -5.378845 -6.4121094 -8.860901c-2.5577393 -3.4820557 -6.7611694 -8.429138 -8.934387 -12.031494c-2.1732178 -3.602356 -3.204712 -7.3013916 -4.1049805 -9.582642c-0.90026855 -2.281311 -1.116333 -3.5647583 -1.2965698 -4.1049805c-0.18023682 -0.5402832 -0.7213745 -1.4777222 0.21520996 0.86346436z" fill-rule="evenodd"/><path stroke="#000000" stroke-width="8.0" stroke-linejoin="round" stroke-linecap="butt" d="m583.8276 633.93774c0.9365845 2.3412476 2.8464355 8.788757 5.404175 13.183777c2.5578003 4.3950195 7.4448853 9.2838745 9.942261 13.18634c2.4973755 3.9024658 5.2821655 6.6622925 5.041992 10.2283325c-0.2401123 3.56604 -2.9527588 9.703003 -6.48291 11.167969c-3.5302124 1.4650269 -11.888428 -1.2252808 -14.698181 -2.3779297c-2.8096924 -1.1526489 -1.93219 -4.4299927 -2.1600952 -4.538086c-0.22790527 -0.10803223 -1.6929321 2.6290894 0.7926636 3.8897705c2.4855347 1.2607422 10.698608 3.914734 14.120728 3.6745605c3.4221191 -0.24017334 4.9833984 -2.6657715 6.4120483 -5.1154785c1.4287109 -2.449707 2.8687744 -6.508789 2.1601562 -9.582703c-0.7086792 -3.0739136 -3.85437 -5.378845 -6.4121094 -8.860901c-2.5577393 -3.4820557 -6.7611694 -8.429138 -8.934387 -12.031494c-2.1732178 -3.602356 -3.204712 -7.3013916 -4.1049805 -9.582642c-0.90026855 -2.281311 -1.116333 -3.5647583 -1.2965698 -4.1049805c-0.18023682 -0.5402832 -0.7213745 -1.4777222 0.21520996 0.86346436z" fill-rule="evenodd"/><path fill="#000000" d="m437.50494 251.01595c0.8888855 8.888901 14.8333435 35.444443 17.0 48.33333c2.1666565 12.8888855 -0.777771 23.833344 -4.0 29.0c-3.222229 5.166687 -7.277771 1.3333435 -15.3333435 2.0c-8.055542 0.666687 -27.055542 -1.1666565 -33.0 2.0c-5.9444275 3.166687 -4.555542 8.0555725 -2.6666565 17.0c1.8888855 8.944458 10.5555725 26.5 14.0 36.666687c3.444458 10.1666565 7.6666565 19.333313 6.6666565 24.333313c-1.0 5.0 -10.8888855 2.3888855 -12.6666565 5.666687c-1.777771 3.277771 -3.1666565 12.0 2.0 14.0c5.1666565 2.0 21.222229 -1.666687 29.0 -2.0c7.777771 -0.3333435 14.8888855 2.6666565 17.666656 0c2.7778015 -2.666687 1.444458 -7.3333435 -1.0 -16.0c-2.4444275 -8.666687 -12.7221985 -29.055573 -13.6666565 -36.0c-0.9444275 -6.944458 3.3333435 -4.0555725 8.0 -5.666687c4.6666565 -1.6111145 14.1666565 -0.5 20.0 -4.0c5.8333435 -3.5 11.3888855 -8.1111145 15.0 -17.0c3.6111145 -8.8888855 7.0555725 -19.166656 6.6666565 -36.333313c-0.3888855 -17.166687 -2.0 -55.5 -9.0 -66.66667c-7.0 -11.166672 -25.555542 -1.1111145 -33.0 -0.3333435c-7.4444275 0.77778625 -12.555542 -3.8888855 -11.6666565 5.0z" fill-rule="evenodd"/><path stroke="#000000" stroke-width="12.0" stroke-linejoin="round" stroke-linecap="butt" d="m437.50494 251.01595c0.8888855 8.888901 14.8333435 35.444443 17.0 48.33333c2.1666565 12.8888855 -0.777771 23.833344 -4.0 29.0c-3.222229 5.166687 -7.277771 1.3333435 -15.3333435 2.0c-8.055542 0.666687 -27.055542 -1.1666565 -33.0 2.0c-5.9444275 3.166687 -4.555542 8.0555725 -2.6666565 17.0c1.8888855 8.944458 10.5555725 26.5 14.0 36.666687c3.444458 10.1666565 7.6666565 19.333313 6.6666565 24.333313c-1.0 5.0 -10.8888855 2.3888855 -12.6666565 5.666687c-1.777771 3.277771 -3.1666565 12.0 2.0 14.0c5.1666565 2.0 21.222229 -1.666687 29.0 -2.0c7.777771 -0.3333435 14.8888855 2.6666565 17.666656 0c2.7778015 -2.666687 1.444458 -7.3333435 -1.0 -16.0c-2.4444275 -8.666687 -12.7221985 -29.055573 -13.6666565 -36.0c-0.9444275 -6.944458 3.3333435 -4.0555725 8.0 -5.666687c4.6666565 -1.6111145 14.1666565 -0.5 20.0 -4.0c5.8333435 -3.5 11.3888855 -8.1111145 15.0 -17.0c3.6111145 -8.8888855 7.0555725 -19.166656 6.6666565 -36.333313c-0.3888855 -17.166687 -2.0 -55.5 -9.0 -66.66667c-7.0 -11.166672 -25.555542 -1.1111145 -33.0 -0.3333435c-7.4444275 0.77778625 -12.555542 -3.8888855 -11.6666565 5.0z" fill-rule="evenodd"/><path fill="#000000" d="m467.1701 350.0146c-2.333313 12.5 -7.555542 38.833344 -8.6666565 50.333344c-1.1111145 11.5 -2.0 7.1666565 2.0 18.666656c4.0 11.5 20.055542 36.333344 22.0 50.333344c1.9444275 14.0 -8.1666565 26.5 -10.3333435 33.666656c-2.1666565 7.166687 -4.8888855 7.5 -2.6666565 9.333313c2.222229 1.833374 10.722229 4.833374 16.0 1.666687c5.277771 -3.1666565 11.3333435 -13.333313 15.6666565 -20.666656c4.3333435 -7.3333435 10.166687 -17.277771 10.3333435 -23.333344c0.1666565 -6.055542 -5.444458 -4.722229 -9.3333435 -13.0c-3.8888855 -8.277771 -11.5 -28.055542 -14.0 -36.666656c-2.5 -8.6111145 -2.3888855 -4.6111145 -1.0 -15.0c1.3888855 -10.3888855 8.777771 -33.611115 9.3333435 -47.333344c0.555542 -13.722229 -2.0 -29.555542 -6.0 -35.0c-4.0 -5.4444275 -14.1111145 -2.1666565 -18.0 2.3333435c-3.8888855 4.5 -3.0 12.1666565 -5.3333435 24.666656z" fill-rule="evenodd"/><path stroke="#000000" stroke-width="12.0" stroke-linejoin="round" stroke-linecap="butt" d="m467.1701 350.0146c-2.333313 12.5 -7.555542 38.833344 -8.6666565 50.333344c-1.1111145 11.5 -2.0 7.1666565 2.0 18.666656c4.0 11.5 20.055542 36.333344 22.0 50.333344c1.9444275 14.0 -8.1666565 26.5 -10.3333435 33.666656c-2.1666565 7.166687 -4.8888855 7.5 -2.6666565 9.333313c2.222229 1.833374 10.722229 4.833374 16.0 1.666687c5.277771 -3.1666565 11.3333435 -13.333313 15.6666565 -20.666656c4.3333435 -7.3333435 10.166687 -17.277771 10.3333435 -23.333344c0.1666565 -6.055542 -5.444458 -4.722229 -9.3333435 -13.0c-3.8888855 -8.277771 -11.5 -28.055542 -14.0 -36.666656c-2.5 -8.6111145 -2.3888855 -4.6111145 -1.0 -15.0c1.3888855 -10.3888855 8.777771 -33.611115 9.3333435 -47.333344c0.555542 -13.722229 -2.0 -29.555542 -6.0 -35.0c-4.0 -5.4444275 -14.1111145 -2.1666565 -18.0 2.3333435c-3.8888855 4.5 -3.0 12.1666565 -5.3333435 24.666656z" fill-rule="evenodd"/><path fill="#ffffff" d="m406.66928 167.5853l87.77954 0l0 87.779526l-87.77954 0z" fill-rule="evenodd"/><path stroke="#000000" stroke-width="16.0" stroke-linejoin="round" stroke-linecap="butt" d="m406.66928 167.5853l87.77954 0l0 87.779526l-87.77954 0z" fill-rule="evenodd"/><path fill="#000000" d="m421.20648 195.72168c-0.12548828 -2.0623932 9.824554 -5.8148193 13.776947 -5.413803c3.952423 0.4010315 9.812012 5.757538 9.9374695 7.8199463c0.12548828 2.0623932 -5.2322083 4.95549 -9.184631 4.5544586c-3.9523926 -0.40101624 -14.404327 -4.8981934 -14.529785 -6.960602z" fill-rule="evenodd"/><path stroke="#000000" stroke-width="7.698162729658793" stroke-linejoin="round" stroke-linecap="butt" d="m421.20648 195.72168c-0.12548828 -2.0623932 9.824554 -5.8148193 13.776947 -5.413803c3.952423 0.4010315 9.812012 5.757538 9.9374695 7.8199463c0.12548828 2.0623932 -5.2322083 4.95549 -9.184631 4.5544586c-3.9523926 -0.40101624 -14.404327 -4.8981934 -14.529785 -6.960602z" fill-rule="evenodd"/><path fill="#000000" d="m482.03946 195.72168c0.12545776 -2.0623932 -9.824554 -5.8148193 -13.776978 -5.413803c-3.9523926 0.4010315 -9.812012 5.757538 -9.9374695 7.8199463c-0.12548828 2.0623932 5.232239 4.95549 9.184631 4.5544586c3.9523926 -0.40101624 14.404327 -4.8981934 14.529816 -6.960602z" fill-rule="evenodd"/><path stroke="#000000" stroke-width="7.698162729658793" stroke-linejoin="round" stroke-linecap="butt" d="m482.03946 195.72168c0.12545776 -2.0623932 -9.824554 -5.8148193 -13.776978 -5.413803c-3.9523926 0.4010315 -9.812012 5.757538 -9.9374695 7.8199463c-0.12548828 2.0623932 5.232239 4.95549 9.184631 4.5544586c3.9523926 -0.40101624 14.404327 -4.8981934 14.529816 -6.960602z" fill-rule="evenodd"/><path fill="#ffffff" d="m472.3962 197.21414l0 0c0 -3.0548706 -2.476471 -5.5313263 -5.5313416 -5.5313263l0 0c-1.4670105 0 -2.8739014 0.5827637 -3.9112244 1.6200867c-1.0373535 1.037323 -1.6201172 2.4442444 -1.6201172 3.9112396l0 0c0 3.0548706 2.476471 5.5313263 5.5313416 5.5313263l0 0c3.0548706 0 5.5313416 -2.4764557 5.5313416 -5.5313263z" fill-rule="evenodd"/><path fill="#ffffff" d="m441.5461 197.21414l0 0c0 -3.0548706 -2.476471 -5.5313263 -5.5313416 -5.5313263l0 0c-1.46698 0 -2.8739014 0.5827637 -3.9112244 1.6200867c-1.037323 1.037323 -1.6200867 2.4442444 -1.6200867 3.9112396l0 0c0 3.0548706 2.476471 5.5313263 5.531311 5.5313263l0 0c3.0548706 0 5.5313416 -2.4764557 5.5313416 -5.5313263z" fill-rule="evenodd"/><path fill="#000000" d="m450.86383 192.27344c-0.9012451 2.252945 -2.7391357 8.457382 -5.2004395 12.686707c-2.4613342 4.2293243 -7.164215 8.933899 -9.567444 12.689224c-2.4032288 3.7553253 -5.1268005 6.739044 -4.851898 9.842743c0.27487183 3.1036835 3.1040955 7.369629 6.50119 8.779404c3.3970947 1.4097748 11.2213745 0.4605255 13.881378 -0.32077026c2.6600037 -0.7812805 1.8593445 -4.2630005 2.0786743 -4.366974c0.21929932 -0.10397339 1.8778687 2.9041595 -0.76278687 3.7431183c-2.640625 0.838974 -11.787964 1.521759 -15.081085 1.2906494c-3.2931213 -0.23110962 -3.5515747 -0.69415283 -4.677643 -2.6772614c-1.1260376 -1.9831085 -2.7605896 -6.2633667 -2.0786438 -9.22142c0.6819458 -2.9580383 3.709015 -5.1760406 6.1703186 -8.526825c2.4613342 -3.3507996 6.506256 -8.111359 8.597565 -11.577911c2.0913086 -3.4665527 3.0838928 -7.0261383 3.9502258 -9.221405c0.866333 -2.195282 1.0742798 -3.430359 1.2477112 -3.950241c0.1734314 -0.51986694 0.69415283 -1.4219818 -0.2071228 0.83096313z" fill-rule="evenodd"/><path stroke="#000000" stroke-width="7.698162729658793" stroke-linejoin="round" stroke-linecap="butt" d="m450.86383 192.27344c-0.9012451 2.252945 -2.7391357 8.457382 -5.2004395 12.686707c-2.4613342 4.2293243 -7.164215 8.933899 -9.567444 12.689224c-2.4032288 3.7553253 -5.1268005 6.739044 -4.851898 9.842743c0.27487183 3.1036835 3.1040955 7.369629 6.50119 8.779404c3.3970947 1.4097748 11.2213745 0.4605255 13.881378 -0.32077026c2.6600037 -0.7812805 1.8593445 -4.2630005 2.0786743 -4.366974c0.21929932 -0.10397339 1.8778687 2.9041595 -0.76278687 3.7431183c-2.640625 0.838974 -11.787964 1.521759 -15.081085 1.2906494c-3.2931213 -0.23110962 -3.5515747 -0.69415283 -4.677643 -2.6772614c-1.1260376 -1.9831085 -2.7605896 -6.2633667 -2.0786438 -9.22142c0.6819458 -2.9580383 3.709015 -5.1760406 6.1703186 -8.526825c2.4613342 -3.3507996 6.506256 -8.111359 8.597565 -11.577911c2.0913086 -3.4665527 3.0838928 -7.0261383 3.9502258 -9.221405c0.866333 -2.195282 1.0742798 -3.430359 1.2477112 -3.950241c0.1734314 -0.51986694 0.69415283 -1.4219818 -0.2071228 0.83096313z" fill-rule="evenodd"/></g></svg>