<svg version="1.1" viewBox="0.0 0.0 636.3648293963255 722.0787401574803" fill="none" stroke="none" stroke-linecap="square" stroke-miterlimit="10" xmlns:xlink="http://www.w3.org/1999/xlink" xmlns="http://www.w3.org/2000/svg"><clipPath id="p.0"><path d="m0 0l636.3648 0l0 722.07874l-636.3648 0l0 -722.07874z" clip-rule="nonzero"/></clipPath><g clip-path="url(#p.0)"><path fill="#000000" fill-opacity="0.0" d="m0 0l636.3648 0l0 722.07874l-636.3648 0z" fill-rule="evenodd"/><path fill="#000000" d="m108.480316 137.58253l390.96063 -117.32284l4.4409485 14.834646l-390.96063 117.32283z" fill-rule="evenodd"/><path stroke="#000000" stroke-width="16.0" stroke-linejoin="round" stroke-linecap="butt" d="m108.480316 137.58253l390.96063 -117.32284l4.4409485 14.834646l-390.96063 117.32283z" fill-rule="evenodd"/><path fill="#000000" d="m229.93044 18.508492l191.2441 110.42519l-7.62204 13.196854l-191.24411 -110.4252z" fill-rule="evenodd"/><path stroke="#000000" stroke-width="16.0" stroke-linejoin="round" stroke-linecap="butt" d="m229.93044 18.508492l191.2441 110.42519l-7.62204 13.196854l-191.24411 -110.4252z" fill-rule="evenodd"/><path fill="#cfe2f3" d="m138.27716 131.65836c0.30708313 8.997818 6.33902 61.349518 4.2939606 78.52756c-2.0450592 17.17804 -10.531494 22.18898 -16.5643 24.54068c-6.0328064 2.351715 -16.36045 -5.5223083 -19.632545 -10.430435c-3.272087 -4.908142 -0.20428467 -19.018387 0 -19.018387c0.20428467 0 -1.4326324 14.110245 1.2257233 19.018387c2.6583557 4.908127 9.611549 10.021423 14.724411 10.430435c5.1128616 0.40901184 12.476372 -3.2729645 15.952751 -7.9763794c3.4763794 -4.7033997 4.496933 -8.485565 4.9055176 -20.244095c0.40856934 -11.75853 -1.6364899 -37.83246 -2.454071 -50.307083c-0.8175812 -12.474625 -2.7585297 -33.53849 -2.4514465 -24.54068z" fill-rule="evenodd"/><path stroke="#000000" stroke-width="12.0" stroke-linejoin="round" stroke-linecap="butt" d="m138.27716 131.65836c0.30708313 8.997818 6.33902 61.349518 4.2939606 78.52756c-2.0450592 17.17804 -10.531494 22.18898 -16.5643 24.54068c-6.0328064 2.351715 -16.36045 -5.5223083 -19.632545 -10.430435c-3.272087 -4.908142 -0.20428467 -19.018387 0 -19.018387c0.20428467 0 -1.4326324 14.110245 1.2257233 19.018387c2.6583557 4.908127 9.611549 10.021423 14.724411 10.430435c5.1128616 0.40901184 12.476372 -3.2729645 15.952751 -7.9763794c3.4763794 -4.7033997 4.496933 -8.485565 4.9055176 -20.244095c0.40856934 -11.75853 -1.6364899 -37.83246 -2.454071 -50.307083c-0.8175812 -12.474625 -2.7585297 -33.53849 -2.4514465 -24.54068z" fill-rule="evenodd"/><path fill="#cfe2f3" d="m315.65353 80.18466c0.3070984 12.286903 6.33902 83.775406 4.293976 107.23274c-2.0450745 23.457352 -10.531494 30.299728 -16.5643 33.511322c-6.0328064 3.2115936 -16.3609 -9.250977 -19.632538 -14.24176c-3.2716675 -4.9907837 -0.20169067 -15.702942 0.0026245117 -15.702942c0.20428467 0 -1.434845 10.712158 1.2230835 15.702942c2.6579285 4.9907837 9.611542 13.683533 14.724396 14.24176c5.1128845 0.55822754 12.476379 -4.469574 15.952759 -10.892349c3.4763794 -6.4227753 4.4969482 -11.58757 4.9055176 -27.644302c0.40856934 -16.056732 -1.6364746 -51.66153 -2.454071 -68.6961c-0.8175659 -17.034569 -2.7585144 -45.798225 -2.4514465 -33.511314z" fill-rule="evenodd"/><path stroke="#000000" stroke-width="12.0" stroke-linejoin="round" stroke-linecap="butt" d="m315.65353 80.18466c0.3070984 12.286903 6.33902 83.775406 4.293976 107.23274c-2.0450745 23.457352 -10.531494 30.299728 -16.5643 33.511322c-6.0328064 3.2115936 -16.3609 -9.250977 -19.632538 -14.24176c-3.2716675 -4.9907837 -0.20169067 -15.702942 0.0026245117 -15.702942c0.20428467 0 -1.434845 10.712158 1.2230835 15.702942c2.6579285 4.9907837 9.611542 13.683533 14.724396 14.24176c5.1128845 0.55822754 12.476379 -4.469574 15.952759 -10.892349c3.4763794 -6.4227753 4.4969482 -11.58757 4.9055176 -27.644302c0.40856934 -16.056732 -1.6364746 -51.66153 -2.454071 -68.6961c-0.8175659 -17.034569 -2.7585144 -45.798225 -2.4514465 -33.511314z" fill-rule="evenodd"/><path fill="#cfe2f3" d="m489.5818 40.64293c-0.30706787 13.510933 -6.33902 92.12161 -4.2939453 117.916016c2.045044 25.794388 10.438751 32.056854 16.5643 36.850388c6.1255493 4.793518 16.444427 -2.4085693 20.188995 -8.089233c3.7445068 -5.680664 2.34906 -25.994751 2.2781982 -25.994751c-0.07086182 0 0.42736816 20.314087 -2.7034302 25.994751c-3.1307983 5.680664 -10.74234 8.737091 -16.08136 8.089233c-5.33902 -0.64785767 -12.476379 -4.9138184 -15.952759 -11.976379c-3.4763794 -7.062561 -4.4969482 -12.74234 -4.9055176 -30.398956c-0.40856934 -17.6566 1.6365051 -56.80883 2.454071 -75.54067c0.81759644 -18.73185 2.758545 -50.361332 2.4514465 -36.850395z" fill-rule="evenodd"/><path stroke="#000000" stroke-width="12.0" stroke-linejoin="round" stroke-linecap="butt" d="m489.5818 40.64293c-0.30706787 13.510933 -6.33902 92.12161 -4.2939453 117.916016c2.045044 25.794388 10.438751 32.056854 16.5643 36.850388c6.1255493 4.793518 16.444427 -2.4085693 20.188995 -8.089233c3.7445068 -5.680664 2.34906 -25.994751 2.2781982 -25.994751c-0.07086182 0 0.42736816 20.314087 -2.7034302 25.994751c-3.1307983 5.680664 -10.74234 8.737091 -16.08136 8.089233c-5.33902 -0.64785767 -12.476379 -4.9138184 -15.952759 -11.976379c-3.4763794 -7.062561 -4.4969482 -12.74234 -4.9055176 -30.398956c-0.40856934 -17.6566 1.6365051 -56.80883 2.454071 -75.54067c0.81759644 -18.73185 2.758545 -50.361332 2.4514465 -36.850395z" fill-rule="evenodd"/><path fill="#000000" d="m352.5273 335.05307c8.716949 1.4579773 20.317871 -6.989258 32.735016 -9.314453c12.417145 -2.3251953 27.508118 -5.296875 41.767822 -4.636688c14.259674 0.66018677 33.33954 3.5968323 43.790314 8.597778c10.450806 5.000946 17.154114 21.061066 18.914368 21.407898c1.7602539 0.34683228 -10.48941 -16.275543 -8.352814 -19.326843c2.1365967 -3.0513 14.36496 -0.3734436 21.172333 1.019043c6.8073425 1.3924866 19.5737 7.976013 19.671783 7.3358765c0.098083496 -0.6401367 -16.768066 -7.8406067 -19.083405 -11.176697c-2.3153076 -3.33609 0.850708 -8.930176 5.1914673 -8.839844c4.34079 0.09033203 21.317108 9.373596 20.853119 9.381897c-0.46398926 0.008331299 -19.90271 -5.970154 -23.636993 -9.33197c-3.7342834 -3.361786 -2.6904907 -10.067535 1.2312927 -10.838837c3.9217834 -0.7713318 22.467957 6.5029907 22.299377 6.2109985c-0.1685791 -0.2919922 -14.815369 -5.402466 -23.310913 -7.9629517c-8.495575 -2.5605164 -14.228699 -4.1203613 -27.662506 -7.400055c-13.433777 -3.279663 -30.26416 -12.842316 -52.940247 -12.278015c-22.676117 0.56427 -67.748505 10.815338 -83.1163 15.663757c-15.367767 4.848419 -10.836426 8.178589 -9.090363 13.426758c1.7460327 5.2481995 10.849701 16.60437 19.56665 18.062347z" fill-rule="evenodd"/><path stroke="#000000" stroke-width="16.0" stroke-linejoin="round" stroke-linecap="butt" d="m352.5273 335.05307c8.716949 1.4579773 20.317871 -6.989258 32.735016 -9.314453c12.417145 -2.3251953 27.508118 -5.296875 41.767822 -4.636688c14.259674 0.66018677 33.33954 3.5968323 43.790314 8.597778c10.450806 5.000946 17.154114 21.061066 18.914368 21.407898c1.7602539 0.34683228 -10.48941 -16.275543 -8.352814 -19.326843c2.1365967 -3.0513 14.36496 -0.3734436 21.172333 1.019043c6.8073425 1.3924866 19.5737 7.976013 19.671783 7.3358765c0.098083496 -0.6401367 -16.768066 -7.8406067 -19.083405 -11.176697c-2.3153076 -3.33609 0.850708 -8.930176 5.1914673 -8.839844c4.34079 0.09033203 21.317108 9.373596 20.853119 9.381897c-0.46398926 0.008331299 -19.90271 -5.970154 -23.636993 -9.33197c-3.7342834 -3.361786 -2.6904907 -10.067535 1.2312927 -10.838837c3.9217834 -0.7713318 22.467957 6.5029907 22.299377 6.2109985c-0.1685791 -0.2919922 -14.815369 -5.402466 -23.310913 -7.9629517c-8.495575 -2.5605164 -14.228699 -4.1203613 -27.662506 -7.400055c-13.433777 -3.279663 -30.26416 -12.842316 -52.940247 -12.278015c-22.676117 0.56427 -67.748505 10.815338 -83.1163 15.663757c-15.367767 4.848419 -10.836426 8.178589 -9.090363 13.426758c1.7460327 5.2481995 10.849701 16.60437 19.56665 18.062347z" fill-rule="evenodd"/><path fill="#000000" d="m297.94424 303.47296c-9.825134 -6.1096497 -56.790344 -11.860443 -82.070435 -9.32962c-25.280106 2.5307922 -49.986282 16.707916 -69.61015 24.514496c-19.623886 7.80661 -43.387955 19.30478 -48.133133 22.325104c-4.745178 3.0203247 19.816406 -6.108734 19.662056 -4.203186c-0.15435028 1.9055481 -21.207008 15.04007 -20.588173 15.636505c0.61883545 0.59646606 22.883698 -14.073914 24.301186 -12.0578c1.4174881 2.0161133 -15.88987 23.329437 -15.796272 24.15448c0.09360504 0.8250427 11.550972 -16.338074 16.357887 -19.204193c4.8069153 -2.8661194 9.510384 -1.4990845 12.483604 2.0074463c2.9732208 3.5065002 4.5135193 19.000122 5.3556976 19.031647c0.84217834 0.03149414 -9.028793 -12.277252 -0.30259705 -18.84262c8.726196 -6.5653687 30.122986 -17.765625 52.659775 -20.549622c22.536789 -2.7839966 64.947525 7.75943 82.56096 3.8456726c17.613434 -3.9137878 32.944733 -21.218658 23.119598 -27.328308z" fill-rule="evenodd"/><path stroke="#000000" stroke-width="16.0" stroke-linejoin="round" stroke-linecap="butt" d="m297.94424 303.47296c-9.825134 -6.1096497 -56.790344 -11.860443 -82.070435 -9.32962c-25.280106 2.5307922 -49.986282 16.707916 -69.61015 24.514496c-19.623886 7.80661 -43.387955 19.30478 -48.133133 22.325104c-4.745178 3.0203247 19.816406 -6.108734 19.662056 -4.203186c-0.15435028 1.9055481 -21.207008 15.04007 -20.588173 15.636505c0.61883545 0.59646606 22.883698 -14.073914 24.301186 -12.0578c1.4174881 2.0161133 -15.88987 23.329437 -15.796272 24.15448c0.09360504 0.8250427 11.550972 -16.338074 16.357887 -19.204193c4.8069153 -2.8661194 9.510384 -1.4990845 12.483604 2.0074463c2.9732208 3.5065002 4.5135193 19.000122 5.3556976 19.031647c0.84217834 0.03149414 -9.028793 -12.277252 -0.30259705 -18.84262c8.726196 -6.5653687 30.122986 -17.765625 52.659775 -20.549622c22.536789 -2.7839966 64.947525 7.75943 82.56096 3.8456726c17.613434 -3.9137878 32.944733 -21.218658 23.119598 -27.328308z" fill-rule="evenodd"/><path fill="#000000" d="m301.70276 304.96228c-11.384308 4.522888 -27.91397 22.457 -34.619263 40.235657c-6.705261 17.778656 -2.0255737 48.502167 -5.6123962 66.43628c-3.5868225 17.934113 -17.000046 31.811707 -15.908524 41.168396c1.0915222 9.356689 12.164902 12.320343 22.457657 14.971771c10.292786 2.6514282 27.914642 8.5780945 39.29892 0.93673706c11.384308 -7.641327 22.613129 -29.31839 29.006836 -46.78482c6.3937073 -17.4664 9.511475 -40.702667 9.355347 -58.01364c-0.15609741 -17.310944 -2.9623108 -36.027008 -10.292084 -45.85205c-7.329773 -9.825073 -22.302216 -17.621216 -33.686493 -13.098328z" fill-rule="evenodd"/><path stroke="#000000" stroke-width="16.0" stroke-linejoin="round" stroke-linecap="butt" d="m301.70276 304.96228c-11.384308 4.522888 -27.91397 22.457 -34.619263 40.235657c-6.705261 17.778656 -2.0255737 48.502167 -5.6123962 66.43628c-3.5868225 17.934113 -17.000046 31.811707 -15.908524 41.168396c1.0915222 9.356689 12.164902 12.320343 22.457657 14.971771c10.292786 2.6514282 27.914642 8.5780945 39.29892 0.93673706c11.384308 -7.641327 22.613129 -29.31839 29.006836 -46.78482c6.3937073 -17.4664 9.511475 -40.702667 9.355347 -58.01364c-0.15609741 -17.310944 -2.9623108 -36.027008 -10.292084 -45.85205c-7.329773 -9.825073 -22.302216 -17.621216 -33.686493 -13.098328z" fill-rule="evenodd"/><path fill="#000000" d="m287.3873 449.92328c-7.6978455 2.9387817 -10.218109 24.49289 -7.5589294 39.468872c2.6591492 14.975952 19.17517 38.210205 23.513885 50.3869c4.338745 12.176697 4.7578735 8.817566 2.5184631 22.673218c-2.239441 13.855652 -11.756348 48.424194 -15.954956 60.460754c-4.198639 12.03656 -9.79657 0.7017822 -9.236725 11.758728c0.559845 11.057007 5.3177185 44.926086 12.595825 54.58313c7.278137 9.657043 28.27359 9.377441 31.072845 3.3591309c2.799286 -6.0182495 -12.177277 -28.97174 -14.277191 -39.46881c-2.0999146 -10.497131 -2.3807373 -10.777405 1.6777649 -23.513916c4.058502 -12.736572 18.05426 -38.06952 22.673218 -52.905396c4.6189575 -14.835876 6.4398193 -18.615295 5.040497 -36.10974c-1.3993225 -17.494385 -4.7590637 -53.74124 -13.436523 -68.85675c-8.677429 -15.1154785 -30.930328 -24.774902 -38.628174 -21.83612z" fill-rule="evenodd"/><path stroke="#000000" stroke-width="16.0" stroke-linejoin="round" stroke-linecap="butt" d="m287.3873 449.92328c-7.6978455 2.9387817 -10.218109 24.49289 -7.5589294 39.468872c2.6591492 14.975952 19.17517 38.210205 23.513885 50.3869c4.338745 12.176697 4.7578735 8.817566 2.5184631 22.673218c-2.239441 13.855652 -11.756348 48.424194 -15.954956 60.460754c-4.198639 12.03656 -9.79657 0.7017822 -9.236725 11.758728c0.559845 11.057007 5.3177185 44.926086 12.595825 54.58313c7.278137 9.657043 28.27359 9.377441 31.072845 3.3591309c2.799286 -6.0182495 -12.177277 -28.97174 -14.277191 -39.46881c-2.0999146 -10.497131 -2.3807373 -10.777405 1.6777649 -23.513916c4.058502 -12.736572 18.05426 -38.06952 22.673218 -52.905396c4.6189575 -14.835876 6.4398193 -18.615295 5.040497 -36.10974c-1.3993225 -17.494385 -4.7590637 -53.74124 -13.436523 -68.85675c-8.677429 -15.1154785 -30.930328 -24.774902 -38.628174 -21.83612z" fill-rule="evenodd"/><path fill="#000000" d="m270.18405 444.30667c7.6978455 2.9388123 10.218109 24.49292 7.5589294 39.468872c-2.6591492 14.975952 -19.17517 38.210236 -23.513885 50.386932c-4.33873 12.176697 -4.7578735 8.817566 -2.5184479 22.673218c2.2394104 13.855652 11.756332 48.424133 15.954971 60.460693c4.1986084 12.036621 9.796539 0.7017822 9.236694 11.758789c-0.559845 11.056946 -5.3177185 44.926086 -12.595825 54.58313c-7.278137 9.657043 -28.273575 9.377441 -31.072845 3.3591309c-2.799286 -6.0183105 12.177292 -28.97174 14.277191 -39.468872c2.0998993 -10.497131 2.380722 -10.777344 -1.6777649 -23.513916c-4.058502 -12.736511 -18.054276 -38.06952 -22.673218 -52.905334c-4.6189575 -14.835876 -6.4398346 -18.615356 -5.040497 -36.10974c1.3993378 -17.494446 4.7590637 -53.741272 13.436523 -68.85675c8.677444 -15.1154785 30.930328 -24.774933 38.628174 -21.836151z" fill-rule="evenodd"/><path stroke="#000000" stroke-width="16.0" stroke-linejoin="round" stroke-linecap="butt" d="m270.18405 444.30667c7.6978455 2.9388123 10.218109 24.49292 7.5589294 39.468872c-2.6591492 14.975952 -19.17517 38.210236 -23.513885 50.386932c-4.33873 12.176697 -4.7578735 8.817566 -2.5184479 22.673218c2.2394104 13.855652 11.756332 48.424133 15.954971 60.460693c4.1986084 12.036621 9.796539 0.7017822 9.236694 11.758789c-0.559845 11.056946 -5.3177185 44.926086 -12.595825 54.58313c-7.278137 9.657043 -28.273575 9.377441 -31.072845 3.3591309c-2.799286 -6.0183105 12.177292 -28.97174 14.277191 -39.468872c2.0998993 -10.497131 2.380722 -10.777344 -1.6777649 -23.513916c-4.058502 -12.736511 -18.054276 -38.06952 -22.673218 -52.905334c-4.6189575 -14.835876 -6.4398346 -18.615356 -5.040497 -36.10974c1.3993378 -17.494446 4.7590637 -53.741272 13.436523 -68.85675c8.677444 -15.1154785 30.930328 -24.774933 38.628174 -21.836151z" fill-rule="evenodd"/><path fill="#000000" d="m348.41724 319.2095c3.786255 -3.0718384 4.852936 5.202942 9.057465 5.2292786c4.2044983 0.02633667 9.92691 -5.9494934 16.169556 -5.0713196c6.2426453 0.8781738 16.840546 5.112915 21.286377 10.340332c4.445801 5.227417 7.5195923 13.621948 5.3884583 21.0242c-2.131134 7.4022827 -10.093353 18.384613 -18.175293 23.389343c-8.081909 5.0046997 -23.654114 8.928131 -30.316284 6.6389465c-6.6621704 -2.289215 -6.811676 -14.0590515 -9.656738 -20.374146c-2.8450928 -6.3150635 -8.454803 -10.653564 -7.413727 -17.516327c1.0410767 -6.862793 9.873901 -20.58847 13.660187 -23.660309z" fill-rule="evenodd"/><path stroke="#000000" stroke-width="16.0" stroke-linejoin="round" stroke-linecap="butt" d="m348.41724 319.2095c3.786255 -3.0718384 4.852936 5.202942 9.057465 5.2292786c4.2044983 0.02633667 9.92691 -5.9494934 16.169556 -5.0713196c6.2426453 0.8781738 16.840546 5.112915 21.286377 10.340332c4.445801 5.227417 7.5195923 13.621948 5.3884583 21.0242c-2.131134 7.4022827 -10.093353 18.384613 -18.175293 23.389343c-8.081909 5.0046997 -23.654114 8.928131 -30.316284 6.6389465c-6.6621704 -2.289215 -6.811676 -14.0590515 -9.656738 -20.374146c-2.8450928 -6.3150635 -8.454803 -10.653564 -7.413727 -17.516327c1.0410767 -6.862793 9.873901 -20.58847 13.660187 -23.660309z" fill-rule="evenodd"/><path fill="#000000" fill-opacity="0.0" d="m356.65906 394.48822c-1.0205688 -0.5345764 -25.809723 -9.045929 -31.225739 -14.419952c-5.415985 -5.3740234 -1.7550049 -12.422577 -1.2703247 -17.824158c0.48468018 -5.4015503 4.3753357 -15.776886 4.178467 -14.585297c-0.19683838 1.1916199 -5.895447 15.798767 -5.359558 21.734924c0.53585815 5.9361267 2.961914 9.699463 8.574799 13.881866c5.612854 4.182434 26.122925 11.747162 25.102356 11.212616z" fill-rule="evenodd"/><path stroke="#ffffff" stroke-width="8.0" stroke-linejoin="round" stroke-linecap="butt" d="m356.65906 394.48822c-1.0205688 -0.5345764 -25.809723 -9.045929 -31.225739 -14.419952c-5.415985 -5.3740234 -1.7550049 -12.422577 -1.2703247 -17.824158c0.48468018 -5.4015503 4.3753357 -15.776886 4.178467 -14.585297c-0.19683838 1.1916199 -5.895447 15.798767 -5.359558 21.734924c0.53585815 5.9361267 2.961914 9.699463 8.574799 13.881866c5.612854 4.182434 26.122925 11.747162 25.102356 11.212616z" fill-rule="evenodd"/><path fill="#000000" d="m405.05692 369.78952c0.14175415 0.07086182 6.5240784 -22.62381 3.4042053 -30.212585c-3.1198425 -7.588806 -21.981628 -15.249359 -22.123352 -15.320221c-0.14172363 -0.07086182 18.153107 7.3062134 21.27295 14.89502c3.119873 7.588806 -2.6955261 30.566925 -2.5538025 30.637787z" fill-rule="evenodd"/><path stroke="#ffffff" stroke-width="8.0" stroke-linejoin="round" stroke-linecap="butt" d="m405.05692 369.78952c0.14175415 0.07086182 6.5240784 -22.62381 3.4042053 -30.212585c-3.1198425 -7.588806 -21.981628 -15.249359 -22.123352 -15.320221c-0.14172363 -0.07086182 18.153107 7.3062134 21.27295 14.89502c3.119873 7.588806 -2.6955261 30.566925 -2.5538025 30.637787z" fill-rule="evenodd"/><path fill="#cfe2f3" d="m146.27692 334.24957c0.30708313 -5.5345764 6.33902 -37.73581 4.2939606 -48.30185c-2.0450592 -10.566071 -10.531494 -13.647858 -16.5643 -15.094482c-6.0328064 -1.4466248 -15.670166 2.477234 -19.632545 6.4147034c-3.9623795 3.937439 -4.3460236 17.20996 -4.1417313 17.20996c0.20428467 0 2.0188065 -13.272522 5.3674545 -17.20996c3.3486404 -3.9374695 9.611542 -6.1631775 14.724403 -6.4147034c5.1128693 -0.25152588 12.476379 2.0122375 15.952759 4.9055176c3.4763794 2.8932495 4.496933 5.221344 4.9055176 12.454041c0.40856934 7.232727 -1.6364899 23.26947 -2.454071 30.94226c-0.8175812 7.6727905 -2.7585297 20.629059 -2.4514465 15.094513z" fill-rule="evenodd"/><path stroke="#000000" stroke-width="12.0" stroke-linejoin="round" stroke-linecap="butt" d="m146.27692 334.24957c0.30708313 -5.5345764 6.33902 -37.73581 4.2939606 -48.30185c-2.0450592 -10.566071 -10.531494 -13.647858 -16.5643 -15.094482c-6.0328064 -1.4466248 -15.670166 2.477234 -19.632545 6.4147034c-3.9623795 3.937439 -4.3460236 17.20996 -4.1417313 17.20996c0.20428467 0 2.0188065 -13.272522 5.3674545 -17.20996c3.3486404 -3.9374695 9.611542 -6.1631775 14.724403 -6.4147034c5.1128693 -0.25152588 12.476379 2.0122375 15.952759 4.9055176c3.4763794 2.8932495 4.496933 5.221344 4.9055176 12.454041c0.40856934 7.232727 -1.6364899 23.26947 -2.454071 30.94226c-0.8175812 7.6727905 -2.7585297 20.629059 -2.4514465 15.094513z" fill-rule="evenodd"/><path fill="#cfe2f3" d="m485.2375 294.47067c0.49588013 -5.520813 -0.8193054 -38.25769 2.7311096 -48.41774c3.5504456 -10.160019 12.393097 -11.983185 18.571533 -12.54245c6.1784363 -0.55926514 15.134552 4.871933 18.499115 9.186844c3.364563 4.314911 1.8902588 16.732147 1.6881714 16.702637c-0.20214844 -0.029541016 -0.14379883 -12.653519 -2.901001 -16.879745c-2.7572632 -4.226227 -8.61969 -7.489929 -13.642517 -8.477631c-5.022827 -0.98768616 -12.636536 0.19088745 -16.494476 2.5514374c-3.8579712 2.36055 -5.203888 4.5145416 -6.6532288 11.611862c-1.4493713 7.0973053 -1.743103 23.261154 -2.0428772 30.97197c-0.29977417 7.710785 -0.25170898 20.81366 0.24417114 15.292816z" fill-rule="evenodd"/><path stroke="#000000" stroke-width="12.0" stroke-linejoin="round" stroke-linecap="butt" d="m485.2375 294.47067c0.49588013 -5.520813 -0.8193054 -38.25769 2.7311096 -48.41774c3.5504456 -10.160019 12.393097 -11.983185 18.571533 -12.54245c6.1784363 -0.55926514 15.134552 4.871933 18.499115 9.186844c3.364563 4.314911 1.8902588 16.732147 1.6881714 16.702637c-0.20214844 -0.029541016 -0.14379883 -12.653519 -2.901001 -16.879745c-2.7572632 -4.226227 -8.61969 -7.489929 -13.642517 -8.477631c-5.022827 -0.98768616 -12.636536 0.19088745 -16.494476 2.5514374c-3.8579712 2.36055 -5.203888 4.5145416 -6.6532288 11.611862c-1.4493713 7.0973053 -1.743103 23.261154 -2.0428772 30.97197c-0.29977417 7.710785 -0.25170898 20.81366 0.24417114 15.292816z" fill-rule="evenodd"/><path fill="#cfe2f3" d="m316.19553 304.06357c0.3070984 -4.599243 6.33902 -31.35846 4.293976 -40.138855c-2.045044 -8.78038 -10.531494 -11.341354 -16.5643 -12.543503c-6.0328064 -1.2021484 -15.670166 2.0585938 -19.632538 5.330612c-3.9624023 3.2720032 -4.346039 14.301483 -4.141754 14.301483c0.20428467 0 2.0188293 -11.02948 5.367462 -14.301483c3.3486328 -3.2720184 9.611542 -5.1215973 14.724396 -5.330612c5.1128845 -0.20903015 12.476379 1.6721802 15.952759 4.076477c3.4763794 2.4043121 4.4969482 4.3389435 4.9055176 10.349319c0.40856934 6.0104065 -1.6364746 19.336945 -2.454071 25.713013c-0.8175659 6.3760986 -2.7585144 17.142761 -2.4514465 12.543549z" fill-rule="evenodd"/><path stroke="#000000" stroke-width="12.0" stroke-linejoin="round" stroke-linecap="butt" d="m316.19553 304.06357c0.3070984 -4.599243 6.33902 -31.35846 4.293976 -40.138855c-2.045044 -8.78038 -10.531494 -11.341354 -16.5643 -12.543503c-6.0328064 -1.2021484 -15.670166 2.0585938 -19.632538 5.330612c-3.9624023 3.2720032 -4.346039 14.301483 -4.141754 14.301483c0.20428467 0 2.0188293 -11.02948 5.367462 -14.301483c3.3486328 -3.2720184 9.611542 -5.1215973 14.724396 -5.330612c5.1128845 -0.20903015 12.476379 1.6721802 15.952759 4.076477c3.4763794 2.4043121 4.4969482 4.3389435 4.9055176 10.349319c0.40856934 6.0104065 -1.6364746 19.336945 -2.454071 25.713013c-0.8175659 6.3760986 -2.7585144 17.142761 -2.4514465 12.543549z" fill-rule="evenodd"/></g></svg>