<svg version="1.1" viewBox="0.0 0.0 592.0183727034121 918.2834645669292" fill="none" stroke="none" stroke-linecap="square" stroke-miterlimit="10" xmlns:xlink="http://www.w3.org/1999/xlink" xmlns="http://www.w3.org/2000/svg"><clipPath id="p.0"><path d="m0 0l592.0184 0l0 918.28345l-592.0184 0l0 -918.28345z" clip-rule="nonzero"/></clipPath><g clip-path="url(#p.0)"><path fill="#000000" fill-opacity="0.0" d="m0 0l592.0184 0l0 918.28345l-592.0184 0z" fill-rule="evenodd"/><path fill="#000000" d="m47.7971 720.6798c16.25632 -36.14868 45.130756 -102.02997 70.58548 -129.62305c25.454727 -27.59314 59.682495 -13.903198 82.14285 -35.935547c22.460358 -22.032349 50.052414 -71.66098 52.61931 -96.25867c2.5668945 -24.597687 -19.249634 -29.72409 -37.21791 -51.327423c-17.968292 -21.603333 -55.61789 -46.634277 -70.59183 -78.29251c-14.973923 -31.658234 -27.80841 -71.65732 -19.251732 -111.656906c8.556679 -39.999603 39.790092 -98.60816 70.59182 -128.3407c30.801727 -29.732536 79.781235 -43.42407 114.21852 -50.05452c34.437286 -6.630451 62.67212 0.2174263 92.40518 10.271816c29.733063 10.05439 66.741455 29.94785 85.993195 50.054516c19.25174 20.106667 22.672516 48.98217 29.517212 70.58549c6.8447266 21.603317 2.781189 35.505417 11.551086 59.03444c8.769836 23.529022 35.07953 54.331787 41.068237 82.13968c5.9887085 27.807892 -0.21636963 56.04535 -5.1359253 84.70764c-4.9194946 28.662292 -8.766724 67.58795 -24.381287 87.26611c-15.614624 19.678131 -55.615784 17.540833 -69.306274 30.802795c-13.69046 13.261963 -6.2061462 31.656616 -12.836578 48.76892c-6.6304626 17.112305 -21.599121 41.284668 -26.946106 53.904907c-5.3470154 12.620239 -13.477264 8.982544 -5.1359253 21.816528c8.34137 12.833923 42.350677 34.439392 55.184113 55.187256c12.833435 20.747864 16.682709 43.631958 21.816528 69.29993c5.133789 25.667908 21.443909 63.720703 8.986267 84.70764c-12.457703 20.986877 -33.77658 33.55597 -83.73242 41.213867c-49.95584 7.657959 -152.09875 11.602783 -216.0026 4.7338257c-63.90384 -6.8690186 -135.23817 -31.658264 -167.42046 -45.947693c-32.182278 -14.28949 -25.88641 -18.61267 -25.673206 -39.789062c0.21320534 -21.176392 10.696114 -51.120544 26.952435 -87.26929z" fill-rule="evenodd"/><path stroke="#000000" stroke-width="11.695538057742782" stroke-linejoin="round" stroke-linecap="butt" d="m47.7971 720.6798c16.25632 -36.14868 45.130756 -102.02997 70.58548 -129.62305c25.454727 -27.59314 59.682495 -13.903198 82.14285 -35.935547c22.460358 -22.032349 50.052414 -71.66098 52.61931 -96.25867c2.5668945 -24.597687 -19.249634 -29.72409 -37.21791 -51.327423c-17.968292 -21.603333 -55.61789 -46.634277 -70.59183 -78.29251c-14.973923 -31.658234 -27.80841 -71.65732 -19.251732 -111.656906c8.556679 -39.999603 39.790092 -98.60816 70.59182 -128.3407c30.801727 -29.732536 79.781235 -43.42407 114.21852 -50.05452c34.437286 -6.630451 62.67212 0.2174263 92.40518 10.271816c29.733063 10.05439 66.741455 29.94785 85.993195 50.054516c19.25174 20.106667 22.672516 48.98217 29.517212 70.58549c6.8447266 21.603317 2.781189 35.505417 11.551086 59.03444c8.769836 23.529022 35.07953 54.331787 41.068237 82.13968c5.9887085 27.807892 -0.21636963 56.04535 -5.1359253 84.70764c-4.9194946 28.662292 -8.766724 67.58795 -24.381287 87.26611c-15.614624 19.678131 -55.615784 17.540833 -69.306274 30.802795c-13.69046 13.261963 -6.2061462 31.656616 -12.836578 48.76892c-6.6304626 17.112305 -21.599121 41.284668 -26.946106 53.904907c-5.3470154 12.620239 -13.477264 8.982544 -5.1359253 21.816528c8.34137 12.833923 42.350677 34.439392 55.184113 55.187256c12.833435 20.747864 16.682709 43.631958 21.816528 69.29993c5.133789 25.667908 21.443909 63.720703 8.986267 84.70764c-12.457703 20.986877 -33.77658 33.55597 -83.73242 41.213867c-49.95584 7.657959 -152.09875 11.602783 -216.0026 4.7338257c-63.90384 -6.8690186 -135.23817 -31.658264 -167.42046 -45.947693c-32.182278 -14.28949 -25.88641 -18.61267 -25.673206 -39.789062c0.21320534 -21.176392 10.696114 -51.120544 26.952435 -87.26929z" fill-rule="evenodd"/><path fill="#ffffff" d="m287.98157 384.90964c0.16784668 -0.08392334 4.9617615 13.545868 2.0169983 17.668518c-2.9447327 4.1226807 -11.94577 10.0121765 -19.685516 7.0674133c-7.739746 -2.9447327 -16.321228 -16.911743 -26.75296 -24.735931c-10.431717 -7.824188 -26.583542 -11.104584 -35.837357 -22.209167c-9.253815 -11.104584 -20.358398 -32.556427 -19.685532 -44.418304c0.67285156 -11.861877 15.730698 -25.743408 23.722702 -26.75296c7.9920044 -1.009552 23.555939 20.191101 24.229324 20.695618c0.6733856 0.5045166 -12.533157 -17.415741 -20.188995 -17.668549c-7.655838 -0.2527771 -22.464584 7.5708923 -25.746033 16.151855c-3.2814484 8.580933 0.8412018 24.733307 6.0573273 35.333893c5.2161255 10.600586 16.490112 21.53894 25.23941 28.269653c8.749298 6.730713 19.76892 6.2256775 27.256409 12.114655c7.487503 5.8890076 10.93782 20.44336 17.668533 23.219238c6.730713 2.775879 19.098175 -2.4412842 22.71579 -6.5639343c3.6176147 -4.1226807 -1.1779175 -18.088104 -1.0101013 -18.171997z" fill-rule="evenodd"/><path stroke="#ffffff" stroke-width="9.650918635170603" stroke-linejoin="round" stroke-linecap="butt" d="m287.98157 384.90964c0.16784668 -0.08392334 4.9617615 13.545868 2.0169983 17.668518c-2.9447327 4.1226807 -11.94577 10.0121765 -19.685516 7.0674133c-7.739746 -2.9447327 -16.321228 -16.911743 -26.75296 -24.735931c-10.431717 -7.824188 -26.583542 -11.104584 -35.837357 -22.209167c-9.253815 -11.104584 -20.358398 -32.556427 -19.685532 -44.418304c0.67285156 -11.861877 15.730698 -25.743408 23.722702 -26.75296c7.9920044 -1.009552 23.555939 20.191101 24.229324 20.695618c0.6733856 0.5045166 -12.533157 -17.415741 -20.188995 -17.668549c-7.655838 -0.2527771 -22.464584 7.5708923 -25.746033 16.151855c-3.2814484 8.580933 0.8412018 24.733307 6.0573273 35.333893c5.2161255 10.600586 16.490112 21.53894 25.23941 28.269653c8.749298 6.730713 19.76892 6.2256775 27.256409 12.114655c7.487503 5.8890076 10.93782 20.44336 17.668533 23.219238c6.730713 2.775879 19.098175 -2.4412842 22.71579 -6.5639343c3.6176147 -4.1226807 -1.1779175 -18.088104 -1.0101013 -18.171997z" fill-rule="evenodd"/><path fill="#ffffff" d="m458.59344 235.33298c1.4301453 1.850769 33.98764 38.697693 43.914856 50.475647c9.927185 11.777985 13.629272 13.125275 15.648376 20.19217c2.019104 7.0668945 -1.1779175 17.58252 -3.5336914 22.209167c-2.355835 4.626648 -10.516693 5.719055 -10.601135 5.5506897c-0.08444214 -0.16833496 7.9070435 -1.5135193 10.094482 -6.560791c2.187439 -5.047241 6.3950806 -14.973389 3.0302734 -23.722687c-3.3648682 -8.749298 -13.460388 -17.415741 -23.219269 -28.773132c-9.75885 -11.357361 -36.76407 -41.221817 -35.333893 -39.371063z" fill-rule="evenodd"/><path stroke="#ffffff" stroke-width="9.650918635170603" stroke-linejoin="round" stroke-linecap="butt" d="m458.59344 235.33298c1.4301453 1.850769 33.98764 38.697693 43.914856 50.475647c9.927185 11.777985 13.629272 13.125275 15.648376 20.19217c2.019104 7.0668945 -1.1779175 17.58252 -3.5336914 22.209167c-2.355835 4.626648 -10.516693 5.719055 -10.601135 5.5506897c-0.08444214 -0.16833496 7.9070435 -1.5135193 10.094482 -6.560791c2.187439 -5.047241 6.3950806 -14.973389 3.0302734 -23.722687c-3.3648682 -8.749298 -13.460388 -17.415741 -23.219269 -28.773132c-9.75885 -11.357361 -36.76407 -41.221817 -35.333893 -39.371063z" fill-rule="evenodd"/><path fill="#000000" fill-opacity="0.0" d="m109.657814 227.59904c9.468071 -0.38630676 22.720009 1.9225311 56.80845 -2.31781c34.088455 -4.240341 102.9377 -13.941147 147.72227 -23.124252c44.784546 -9.18309 87.495636 -18.798935 120.98514 -31.97435c33.48947 -13.1754 66.6264 -39.23175 79.95169 -47.078094" fill-rule="evenodd"/><path stroke="#ffffff" stroke-width="9.650918635170603" stroke-linejoin="round" stroke-linecap="butt" stroke-dasharray="38.60367454068241,28.95275590551181" d="m109.657814 227.59904c9.468071 -0.38630676 22.720009 1.9225311 56.80845 -2.31781c34.088455 -4.240341 102.9377 -13.941147 147.72227 -23.124252c44.784546 -9.18309 87.495636 -18.798935 120.98514 -31.97435c33.48947 -13.1754 66.6264 -39.23175 79.95169 -47.078094" fill-rule="evenodd"/><path fill="#000000" fill-opacity="0.0" d="m247.37796 50.934715c11.87085 -0.67549896 50.26825 -7.3312798 71.2251 -4.0529976c20.956848 3.278286 37.1857 11.776386 54.51596 23.722698c17.330261 11.94632 36.67804 25.997238 49.465576 47.955193c12.787537 21.957954 20.954224 64.10914 27.259583 83.79255c6.305359 19.683426 0.14089966 18.49234 10.572601 34.308c10.431732 15.815659 43.011383 45.524445 52.01773 60.585968c9.006287 15.061523 3.534729 22.800232 2.0201416 29.783203c-1.5145874 6.982971 -9.59314 5.468384 -11.107758 12.114655c-1.5145874 6.6463013 -0.16674805 18.64856 2.020172 27.763031c2.1869202 9.114502 5.296356 16.212006 11.10144 26.92395c5.8050537 10.711945 18.84906 25.738647 23.729004 37.347748c4.879944 11.60907 5.88739 22.295166 5.55072 32.306824c-0.33673096 10.011627 -6.0568237 19.350403 -7.570862 27.763031c-1.5140991 8.412598 -1.2612915 18.927155 -1.5135498 22.712616" fill-rule="evenodd"/><path stroke="#ffffff" stroke-width="9.650918635170603" stroke-linejoin="round" stroke-linecap="butt" stroke-dasharray="38.60367454068241,28.95275590551181" d="m247.37796 50.934715c11.87085 -0.67549896 50.26825 -7.3312798 71.2251 -4.0529976c20.956848 3.278286 37.1857 11.776386 54.51596 23.722698c17.330261 11.94632 36.67804 25.997238 49.465576 47.955193c12.787537 21.957954 20.954224 64.10914 27.259583 83.79255c6.305359 19.683426 0.14089966 18.49234 10.572601 34.308c10.431732 15.815659 43.011383 45.524445 52.01773 60.585968c9.006287 15.061523 3.534729 22.800232 2.0201416 29.783203c-1.5145874 6.982971 -9.59314 5.468384 -11.107758 12.114655c-1.5145874 6.6463013 -0.16674805 18.64856 2.020172 27.763031c2.1869202 9.114502 5.296356 16.212006 11.10144 26.92395c5.8050537 10.711945 18.84906 25.738647 23.729004 37.347748c4.879944 11.60907 5.88739 22.295166 5.55072 32.306824c-0.33673096 10.011627 -6.0568237 19.350403 -7.570862 27.763031c-1.5140991 8.412598 -1.2612915 18.927155 -1.5135498 22.712616" fill-rule="evenodd"/><path fill="#ffffff" d="m329.43518 272.88742c-6.0708923 -5.511841 20.187134 -32.154327 32.35034 -40.252045c12.163239 -8.097717 29.483917 -9.819626 40.628967 -8.334244c11.14502 1.4853668 26.941833 10.345596 26.24121 17.246475c-0.70059204 6.900879 -13.908051 18.935486 -30.444824 24.158783c-16.536743 5.223297 -62.704803 12.692841 -68.775696 7.1810303z" fill-rule="evenodd"/><path stroke="#ffffff" stroke-width="10.438320209973753" stroke-linejoin="round" stroke-linecap="butt" d="m329.43518 272.88742c-6.0708923 -5.511841 20.187134 -32.154327 32.35034 -40.252045c12.163239 -8.097717 29.483917 -9.819626 40.628967 -8.334244c11.14502 1.4853668 26.941833 10.345596 26.24121 17.246475c-0.70059204 6.900879 -13.908051 18.935486 -30.444824 24.158783c-16.536743 5.223297 -62.704803 12.692841 -68.775696 7.1810303z" fill-rule="evenodd"/><path fill="#000000" d="m353.53683 250.24959l0 0c-1.1348877 -18.384949 12.84906 -34.208893 31.234009 -35.343765l0 0c8.828766 -0.5449829 17.51242 2.43956 24.140656 8.297089c6.628235 5.8575134 10.658112 14.10817 11.2030945 22.936935l0 0c1.1348877 18.384933 -12.84906 34.208878 -31.234009 35.343765l0 0c-18.384949 1.1348572 -34.208893 -12.849091 -35.34375 -31.234024z" fill-rule="evenodd"/><path stroke="#000000" stroke-width="1.304461942257218" stroke-linejoin="round" stroke-linecap="butt" d="m353.53683 250.24959l0 0c-1.1348877 -18.384949 12.84906 -34.208893 31.234009 -35.343765l0 0c8.828766 -0.5449829 17.51242 2.43956 24.140656 8.297089c6.628235 5.8575134 10.658112 14.10817 11.2030945 22.936935l0 0c1.1348877 18.384933 -12.84906 34.208878 -31.234009 35.343765l0 0c-18.384949 1.1348572 -34.208893 -12.849091 -35.34375 -31.234024z" fill-rule="evenodd"/><path fill="#000000" fill-opacity="0.0" d="m384.77084 214.90582l4.109741 66.57779" fill-rule="evenodd"/><path stroke="#ffffff" stroke-width="10.438320209973753" stroke-linejoin="round" stroke-linecap="butt" d="m384.77084 214.90582l4.109741 66.57779" fill-rule="evenodd"/><path fill="#000000" fill-opacity="0.0" d="m348.72928 250.22292l75.04385 -4.5207214" fill-rule="evenodd"/><path stroke="#ffffff" stroke-width="10.438320209973753" stroke-linejoin="round" stroke-linecap="butt" d="m348.72928 250.22292l75.04385 -4.5207214" fill-rule="evenodd"/><path fill="#000000" fill-opacity="0.0" d="m318.2023 276.84058c-6.8495483 -9.703552 26.765259 -43.916 41.43988 -54.796524c14.674622 -10.880539 33.137054 -13.397751 46.60788 -10.486694c13.470795 2.9110718 35.135406 16.501755 34.21701 27.95308c-0.9184265 11.45134 -19.350037 34.533234 -39.727478 40.754913c-20.377472 6.2216797 -75.68771 6.278778 -82.53729 -3.4247742z" fill-rule="evenodd"/><path stroke="#000000" stroke-width="10.438320209973753" stroke-linejoin="round" stroke-linecap="butt" d="m318.2023 276.84058c-6.8495483 -9.703552 26.765259 -43.916 41.43988 -54.796524c14.674622 -10.880539 33.137054 -13.397751 46.60788 -10.486694c13.470795 2.9110718 35.135406 16.501755 34.21701 27.95308c-0.9184265 11.45134 -19.350037 34.533234 -39.727478 40.754913c-20.377472 6.2216797 -75.68771 6.278778 -82.53729 -3.4247742z" fill-rule="evenodd"/></g></svg>