<svg version="1.1" viewBox="0.0 0.0 636.3648293963255 722.0787401574803" fill="none" stroke="none" stroke-linecap="square" stroke-miterlimit="10" xmlns:xlink="http://www.w3.org/1999/xlink" xmlns="http://www.w3.org/2000/svg"><clipPath id="p.0"><path d="m0 0l636.3648 0l0 722.07874l-636.3648 0l0 -722.07874z" clip-rule="nonzero"/></clipPath><g clip-path="url(#p.0)"><path fill="#000000" fill-opacity="0.0" d="m0 0l636.3648 0l0 722.07874l-636.3648 0z" fill-rule="evenodd"/><path fill="#cfe2f3" d="m353.71204 319.26773c-1.4246216 -0.5883789 43.456085 -31.18811 69.45792 -29.422577c26.001831 1.7655334 68.74344 31.776886 86.55313 40.015747c17.809692 8.238831 15.289368 4.046356 20.305054 9.417328c5.015686 5.370941 10.501587 22.80838 9.7890625 22.80838c-0.7124634 0 -8.336304 -19.006989 -14.064087 -22.80838c-5.727783 -3.801422 -16.947449 -2.036316 -20.302643 0c-3.3551636 2.0362854 1.2403259 13.787384 0.17156982 12.217834c-1.0687561 -1.5695496 5.733368 -11.948395 -6.5840454 -21.635162c-12.317413 -9.686798 -43.099457 -34.72003 -67.320435 -36.485565c-24.221008 -1.7655334 -76.58093 26.480743 -78.00552 25.892395z" fill-rule="evenodd"/><path stroke="#000000" stroke-width="24.0" stroke-linejoin="round" stroke-linecap="butt" d="m353.71204 319.26773c-1.4246216 -0.5883789 43.456085 -31.18811 69.45792 -29.422577c26.001831 1.7655334 68.74344 31.776886 86.55313 40.015747c17.809692 8.238831 15.289368 4.046356 20.305054 9.417328c5.015686 5.370941 10.501587 22.80838 9.7890625 22.80838c-0.7124634 0 -8.336304 -19.006989 -14.064087 -22.80838c-5.727783 -3.801422 -16.947449 -2.036316 -20.302643 0c-3.3551636 2.0362854 1.2403259 13.787384 0.17156982 12.217834c-1.0687561 -1.5695496 5.733368 -11.948395 -6.5840454 -21.635162c-12.317413 -9.686798 -43.099457 -34.72003 -67.320435 -36.485565c-24.221008 -1.7655334 -76.58093 26.480743 -78.00552 25.892395z" fill-rule="evenodd"/><path fill="#000000" d="m82.43832 154.58948l445.03934 -133.5433l4.440979 14.834644l-445.03937 133.5433z" fill-rule="evenodd"/><path stroke="#000000" stroke-width="16.0" stroke-linejoin="round" stroke-linecap="butt" d="m82.43832 154.58948l445.03934 -133.5433l4.440979 14.834644l-445.03937 133.5433z" fill-rule="evenodd"/><path fill="#000000" d="m229.93044 27.698967l191.2441 110.42519l-7.62204 13.196854l-191.24411 -110.4252z" fill-rule="evenodd"/><path stroke="#000000" stroke-width="16.0" stroke-linejoin="round" stroke-linecap="butt" d="m229.93044 27.698967l191.2441 110.42519l-7.62204 13.196854l-191.24411 -110.4252z" fill-rule="evenodd"/><path fill="#cfe2f3" d="m114.27821 147.7073c0.30709076 7.707535 6.33902 52.552002 4.293968 67.26671c-2.0450592 14.714706 -10.531502 19.00708 -16.564308 21.021545c-6.0328064 2.0144806 -16.36045 -4.7304077 -19.632545 -8.934708c-3.2720947 -4.204315 -0.20428467 -16.291138 0 -16.291138c0.20428467 0 -1.4326324 12.0868225 1.2257233 16.291138c2.6583557 4.2043 9.611549 8.584351 14.724411 8.934708c5.1128616 0.3503723 12.476372 -2.8036194 15.952751 -6.8325653c3.4763794 -4.0289307 4.4969406 -7.2687225 4.90551 -17.34108c0.40857697 -10.072357 -1.6364822 -32.407288 -2.4540634 -43.09305c-0.8175888 -10.685776 -2.7585297 -28.72908 -2.4514465 -21.02156z" fill-rule="evenodd"/><path stroke="#000000" stroke-width="12.0" stroke-linejoin="round" stroke-linecap="butt" d="m114.27821 147.7073c0.30709076 7.707535 6.33902 52.552002 4.293968 67.26671c-2.0450592 14.714706 -10.531502 19.00708 -16.564308 21.021545c-6.0328064 2.0144806 -16.36045 -4.7304077 -19.632545 -8.934708c-3.2720947 -4.204315 -0.20428467 -16.291138 0 -16.291138c0.20428467 0 -1.4326324 12.0868225 1.2257233 16.291138c2.6583557 4.2043 9.611549 8.584351 14.724411 8.934708c5.1128616 0.3503723 12.476372 -2.8036194 15.952751 -6.8325653c3.4763794 -4.0289307 4.4969406 -7.2687225 4.90551 -17.34108c0.40857697 -10.072357 -1.6364822 -32.407288 -2.4540634 -43.09305c-0.8175888 -10.685776 -2.7585297 -28.72908 -2.4514465 -21.02156z" fill-rule="evenodd"/><path fill="#cfe2f3" d="m315.65353 81.37514c0.3070984 12.286903 6.33902 83.775406 4.293976 107.23276c-2.0450745 23.457336 -10.531494 30.299713 -16.5643 33.511307c-6.0328064 3.2115936 -16.3609 -9.250961 -19.632538 -14.24176c-3.2716675 -4.9907837 -0.20169067 -15.702942 0.0026245117 -15.702942c0.20428467 0 -1.434845 10.712158 1.2230835 15.702942c2.6579285 4.990799 9.611542 13.683533 14.724396 14.24176c5.1128845 0.55822754 12.476379 -4.469574 15.952759 -10.892349c3.4763794 -6.4227753 4.4969482 -11.58757 4.9055176 -27.644302c0.40856934 -16.056732 -1.6364746 -51.66153 -2.454071 -68.6961c-0.8175659 -17.034569 -2.7585144 -45.798218 -2.4514465 -33.511314z" fill-rule="evenodd"/><path stroke="#000000" stroke-width="12.0" stroke-linejoin="round" stroke-linecap="butt" d="m315.65353 81.37514c0.3070984 12.286903 6.33902 83.775406 4.293976 107.23276c-2.0450745 23.457336 -10.531494 30.299713 -16.5643 33.511307c-6.0328064 3.2115936 -16.3609 -9.250961 -19.632538 -14.24176c-3.2716675 -4.9907837 -0.20169067 -15.702942 0.0026245117 -15.702942c0.20428467 0 -1.434845 10.712158 1.2230835 15.702942c2.6579285 4.990799 9.611542 13.683533 14.724396 14.24176c5.1128845 0.55822754 12.476379 -4.469574 15.952759 -10.892349c3.4763794 -6.4227753 4.4969482 -11.58757 4.9055176 -27.644302c0.40856934 -16.056732 -1.6364746 -51.66153 -2.454071 -68.6961c-0.8175659 -17.034569 -2.7585144 -45.798218 -2.4514465 -33.511314z" fill-rule="evenodd"/><path fill="#cfe2f3" d="m489.5818 49.833405c-0.30706787 13.510937 -6.33902 92.12161 -4.2939453 117.916016c2.045044 25.794388 10.438751 32.05687 16.5643 36.850388c6.1255493 4.7935333 16.444427 -2.4085693 20.188995 -8.089233c3.7445068 -5.680664 2.34906 -25.994751 2.2781982 -25.994751c-0.07086182 0 0.42736816 20.314087 -2.7034302 25.994751c-3.1307983 5.680664 -10.74234 8.737091 -16.08136 8.089233c-5.33902 -0.64785767 -12.476379 -4.9138184 -15.952759 -11.976379c-3.4763794 -7.062546 -4.4969482 -12.74234 -4.9055176 -30.398941c-0.40856934 -17.656616 1.6365051 -56.808846 2.454071 -75.54069c0.81759644 -18.73185 2.758545 -50.361332 2.4514465 -36.850395z" fill-rule="evenodd"/><path stroke="#000000" stroke-width="12.0" stroke-linejoin="round" stroke-linecap="butt" d="m489.5818 49.833405c-0.30706787 13.510937 -6.33902 92.12161 -4.2939453 117.916016c2.045044 25.794388 10.438751 32.05687 16.5643 36.850388c6.1255493 4.7935333 16.444427 -2.4085693 20.188995 -8.089233c3.7445068 -5.680664 2.34906 -25.994751 2.2781982 -25.994751c-0.07086182 0 0.42736816 20.314087 -2.7034302 25.994751c-3.1307983 5.680664 -10.74234 8.737091 -16.08136 8.089233c-5.33902 -0.64785767 -12.476379 -4.9138184 -15.952759 -11.976379c-3.4763794 -7.062546 -4.4969482 -12.74234 -4.9055176 -30.398941c-0.40856934 -17.656616 1.6365051 -56.808846 2.454071 -75.54069c0.81759644 -18.73185 2.758545 -50.361332 2.4514465 -36.850395z" fill-rule="evenodd"/><path fill="#cfe2f3" d="m119.40757 333.88068c-0.20172119 -5.539459 2.8520203 -38.15857 -0.15335083 -48.492706c-3.0053787 -10.3341675 -11.73877 -12.624817 -17.878899 -13.512146c-6.140129 -0.8873596 -15.37719 3.9038086 -18.96186 8.188049c-3.5846786 4.2842712 -2.749611 17.536224 -2.5461807 17.517487c0.20342255 -0.018737793 0.7932358 -13.401886 3.7667542 -17.629883c2.9735107 -4.2279663 9.00602 -7.0186462 14.074341 -7.737976c5.068321 -0.71932983 12.608498 0.8597107 16.335587 3.4220276c3.727089 2.5623474 4.956848 4.7870483 6.026947 11.951935c1.0700989 7.1648865 0.5042038 23.321808 0.39364624 31.037323c-0.110557556 7.7155457 -0.85526276 20.79538 -1.056984 15.25589z" fill-rule="evenodd"/><path stroke="#000000" stroke-width="12.0" stroke-linejoin="round" stroke-linecap="butt" d="m119.40757 333.88068c-0.20172119 -5.539459 2.8520203 -38.15857 -0.15335083 -48.492706c-3.0053787 -10.3341675 -11.73877 -12.624817 -17.878899 -13.512146c-6.140129 -0.8873596 -15.37719 3.9038086 -18.96186 8.188049c-3.5846786 4.2842712 -2.749611 17.536224 -2.5461807 17.517487c0.20342255 -0.018737793 0.7932358 -13.401886 3.7667542 -17.629883c2.9735107 -4.2279663 9.00602 -7.0186462 14.074341 -7.737976c5.068321 -0.71932983 12.608498 0.8597107 16.335587 3.4220276c3.727089 2.5623474 4.956848 4.7870483 6.026947 11.951935c1.0700989 7.1648865 0.5042038 23.321808 0.39364624 31.037323c-0.110557556 7.7155457 -0.85526276 20.79538 -1.056984 15.25589z" fill-rule="evenodd"/><path fill="#cfe2f3" d="m493.66333 316.5852c0.3425598 -5.5292664 -1.0081177 -38.05719 1.7185974 -48.39334c2.726715 -10.336151 9.736908 -12.690384 14.641663 -13.623535c4.9047546 -0.93315125 12.072845 3.9315186 14.786896 8.024628c2.7140503 4.093109 1.6583252 16.551208 1.4974365 16.534119c-0.1609497 -0.017120361 -0.2322998 -12.594971 -2.4629517 -16.636719c-2.2305908 -4.041748 -6.919922 -6.9357452 -10.920715 -7.6138153c-4.0008545 -0.67807007 -10.040436 0.95932007 -13.08432 3.545395c-3.0438538 2.58609 -4.0933533 4.8135376 -5.1789246 11.97113c-1.0855713 7.157593 -1.1681519 23.275696 -1.3344421 30.974396c-0.16629028 7.6987 -0.00579834 20.74701 0.33676147 15.217743z" fill-rule="evenodd"/><path stroke="#000000" stroke-width="12.0" stroke-linejoin="round" stroke-linecap="butt" d="m493.66333 316.5852c0.3425598 -5.5292664 -1.0081177 -38.05719 1.7185974 -48.39334c2.726715 -10.336151 9.736908 -12.690384 14.641663 -13.623535c4.9047546 -0.93315125 12.072845 3.9315186 14.786896 8.024628c2.7140503 4.093109 1.6583252 16.551208 1.4974365 16.534119c-0.1609497 -0.017120361 -0.2322998 -12.594971 -2.4629517 -16.636719c-2.2305908 -4.041748 -6.919922 -6.9357452 -10.920715 -7.6138153c-4.0008545 -0.67807007 -10.040436 0.95932007 -13.08432 3.545395c-3.0438538 2.58609 -4.0933533 4.8135376 -5.1789246 11.97113c-1.0855713 7.157593 -1.1681519 23.275696 -1.3344421 30.974396c-0.16629028 7.6987 -0.00579834 20.74701 0.33676147 15.217743z" fill-rule="evenodd"/><path fill="#cfe2f3" d="m316.19553 304.06357c0.3070984 -4.599243 6.33902 -31.35846 4.293976 -40.138855c-2.045044 -8.78038 -10.531494 -11.341354 -16.5643 -12.543503c-6.0328064 -1.2021484 -15.670166 2.0585938 -19.632538 5.330612c-3.9624023 3.2720032 -4.346039 14.301483 -4.141754 14.301483c0.20428467 0 2.0188293 -11.02948 5.367462 -14.301483c3.3486328 -3.2720184 9.611542 -5.1215973 14.724396 -5.330612c5.1128845 -0.20903015 12.476379 1.6721802 15.952759 4.076477c3.4763794 2.4043121 4.4969482 4.3389435 4.9055176 10.349319c0.40856934 6.0104065 -1.6364746 19.336945 -2.454071 25.713013c-0.8175659 6.3760986 -2.7585144 17.142761 -2.4514465 12.543549z" fill-rule="evenodd"/><path stroke="#000000" stroke-width="12.0" stroke-linejoin="round" stroke-linecap="butt" d="m316.19553 304.06357c0.3070984 -4.599243 6.33902 -31.35846 4.293976 -40.138855c-2.045044 -8.78038 -10.531494 -11.341354 -16.5643 -12.543503c-6.0328064 -1.2021484 -15.670166 2.0585938 -19.632538 5.330612c-3.9624023 3.2720032 -4.346039 14.301483 -4.141754 14.301483c0.20428467 0 2.0188293 -11.02948 5.367462 -14.301483c3.3486328 -3.2720184 9.611542 -5.1215973 14.724396 -5.330612c5.1128845 -0.20903015 12.476379 1.6721802 15.952759 4.076477c3.4763794 2.4043121 4.4969482 4.3389435 4.9055176 10.349319c0.40856934 6.0104065 -1.6364746 19.336945 -2.454071 25.713013c-0.8175659 6.3760986 -2.7585144 17.142761 -2.4514465 12.543549z" fill-rule="evenodd"/><path fill="#000000" d="m307.04416 305.53152c-12.103699 4.034546 -32.91339 15.074341 -39.496063 33.123352c-6.582672 18.04898 2.7607117 53.72354 0 75.17059c-2.7607117 21.447083 -9.344269 27.60498 -16.564316 53.51181c-7.2200317 25.90683 -29.091858 69.65222 -26.755905 101.92914c2.3359528 32.276917 37.161865 69.43616 40.771667 91.7323c3.6097717 22.296143 -19.96196 42.257202 -19.11287 42.044617c0.8490753 -0.21258545 27.604996 -19.325012 24.207352 -43.32019c-3.397644 -23.99524 -46.92914 -70.49786 -44.593185 -100.65094c2.335968 -30.153137 40.34691 -84.51489 58.608932 -80.26773c18.262024 4.247162 48.839447 74.53586 50.963257 105.75064c2.1237793 31.214783 -34.610687 62.851746 -38.22049 81.538086c-3.6098022 18.68634 16.774292 30.367432 16.561676 30.580017c-0.21258545 0.21264648 -22.084412 -10.193298 -17.83725 -29.304443c4.247162 -19.111084 42.882324 -53.175842 43.32019 -85.36218c0.43789673 -32.18634 -37.93219 -77.60239 -40.6929 -107.75592c-2.7607117 -30.153534 15.860016 -52.477264 24.128601 -73.165344c8.268585 -20.68811 22.51007 -36.52362 25.48294 -50.963257c2.9729004 -14.439636 -0.8503723 -28.242798 -7.6456604 -35.67456c-6.795288 -7.431732 -21.022308 -12.950562 -33.125977 -8.915985z" fill-rule="evenodd"/><path stroke="#000000" stroke-width="24.0" stroke-linejoin="round" stroke-linecap="butt" d="m307.04416 305.53152c-12.103699 4.034546 -32.91339 15.074341 -39.496063 33.123352c-6.582672 18.04898 2.7607117 53.72354 0 75.17059c-2.7607117 21.447083 -9.344269 27.60498 -16.564316 53.51181c-7.2200317 25.90683 -29.091858 69.65222 -26.755905 101.92914c2.3359528 32.276917 37.161865 69.43616 40.771667 91.7323c3.6097717 22.296143 -19.96196 42.257202 -19.11287 42.044617c0.8490753 -0.21258545 27.604996 -19.325012 24.207352 -43.32019c-3.397644 -23.99524 -46.92914 -70.49786 -44.593185 -100.65094c2.335968 -30.153137 40.34691 -84.51489 58.608932 -80.26773c18.262024 4.247162 48.839447 74.53586 50.963257 105.75064c2.1237793 31.214783 -34.610687 62.851746 -38.22049 81.538086c-3.6098022 18.68634 16.774292 30.367432 16.561676 30.580017c-0.21258545 0.21264648 -22.084412 -10.193298 -17.83725 -29.304443c4.247162 -19.111084 42.882324 -53.175842 43.32019 -85.36218c0.43789673 -32.18634 -37.93219 -77.60239 -40.6929 -107.75592c-2.7607117 -30.153534 15.860016 -52.477264 24.128601 -73.165344c8.268585 -20.68811 22.51007 -36.52362 25.48294 -50.963257c2.9729004 -14.439636 -0.8503723 -28.242798 -7.6456604 -35.67456c-6.795288 -7.431732 -21.022308 -12.950562 -33.125977 -8.915985z" fill-rule="evenodd"/><path fill="#000000" d="m308.958 343.71127l0 0c0 -26.648804 21.60315 -48.251953 48.251953 -48.251953l0 0c12.797241 0 25.070312 5.083679 34.119293 14.13266c9.049011 9.049011 14.13269 21.322083 14.13269 34.119293l0 0c0 26.648834 -21.60315 48.251984 -48.251984 48.251984l0 0c-26.648804 0 -48.251953 -21.60315 -48.251953 -48.251984z" fill-rule="evenodd"/><path stroke="#ffffff" stroke-width="12.0" stroke-linejoin="round" stroke-linecap="butt" d="m308.958 343.71127l0 0c0 -26.648804 21.60315 -48.251953 48.251953 -48.251953l0 0c12.797241 0 25.070312 5.083679 34.119293 14.13266c9.049011 9.049011 14.13269 21.322083 14.13269 34.119293l0 0c0 26.648834 -21.60315 48.251984 -48.251984 48.251984l0 0c-26.648804 0 -48.251953 -21.60315 -48.251953 -48.251984z" fill-rule="evenodd"/><path fill="#cfe2f3" d="m287.95975 333.22565c1.5691223 -0.5883484 -47.864395 -31.18808 -76.50394 -29.422546c-28.639542 1.7655334 -75.716965 31.776886 -95.33333 40.015747c-19.616364 8.238831 -16.840332 4.046356 -22.36483 9.417328c-5.524498 5.370941 -11.566933 22.80838 -10.78215 22.80838c0.7847748 0 9.181976 -19.006989 15.490814 -22.80838c6.3088303 -3.801422 18.666664 -2.036316 22.362198 0c3.6955414 2.0362854 -1.3661346 13.787384 -0.18897247 12.217834c1.1771622 -1.5695496 -6.3149643 -11.948395 7.2519684 -21.635162c13.566925 -9.686798 47.471573 -34.72003 74.14961 -36.485565c26.67804 -1.7655334 84.3495 26.480743 85.918625 25.892365z" fill-rule="evenodd"/><path stroke="#000000" stroke-width="24.0" stroke-linejoin="round" stroke-linecap="butt" d="m287.95975 333.22565c1.5691223 -0.5883484 -47.864395 -31.18808 -76.50394 -29.422546c-28.639542 1.7655334 -75.716965 31.776886 -95.33333 40.015747c-19.616364 8.238831 -16.840332 4.046356 -22.36483 9.417328c-5.524498 5.370941 -11.566933 22.80838 -10.78215 22.80838c0.7847748 0 9.181976 -19.006989 15.490814 -22.80838c6.3088303 -3.801422 18.666664 -2.036316 22.362198 0c3.6955414 2.0362854 -1.3661346 13.787384 -0.18897247 12.217834c1.1771622 -1.5695496 -6.3149643 -11.948395 7.2519684 -21.635162c13.566925 -9.686798 47.471573 -34.72003 74.14961 -36.485565c26.67804 -1.7655334 84.3495 26.480743 85.918625 25.892365z" fill-rule="evenodd"/></g></svg>